TexturaLibera-Light-Expand.sfdir
StartChar: numbersign
Encoding: 35 35 3
Width: 840
Flags: W
HStem: -187 21G<23 60 263 300> 163 74<80 211 304 451 544 760> 363 74<80 324 417 564 657 760>
LayerCount: 2
Back
SplineSet
300 -150 m 25
 780 700 l 1049
60 -150 m 25
 540 700 l 1049
60 200 m 25
 780 200 l 1049
60 400 m 25
 780 400 l 1049
EndSplineSet
Fore
SplineSet
23 380 m 1
 80 437 l 1
 366 437 l 1
 503 680 l 1
 560 737 l 1
 577 720 l 1
 417 437 l 1
 606 437 l 1
 743 680 l 1
 800 737 l 1
 817 720 l 1
 657 437 l 1
 800 437 l 1
 817 420 l 1
 760 363 l 1
 615 363 l 1
 544 237 l 1
 800 237 l 1
 817 220 l 1
 760 163 l 1
 502 163 l 1
 337 -130 l 1
 280 -187 l 1
 263 -170 l 1
 451 163 l 1
 262 163 l 1
 97 -130 l 1
 40 -187 l 1
 23 -170 l 1
 211 163 l 1
 40 163 l 1
 23 180 l 1
 80 237 l 1
 253 237 l 1
 324 363 l 1
 40 363 l 1
 23 380 l 1
304 237 m 1
 493 237 l 1
 564 363 l 1
 375 363 l 1
 304 237 l 1
EndSplineSet
EndChar
StartChar: ampersand
Encoding: 38 38 6
Width: 600
Flags: W
HStem: 313 74<260 323 397 460> 617 20G<240 308>
VStem: 83 74<80 210 430 460> 323 74<100 313 387 520>
LayerCount: 2
Back
SplineSet
240 350 m 25
 480 350 l 1049
540 120 m 1
 420 0 l 1
 360 60 l 1
 360 550 l 9
 240 600 l 1
 120 480 l 17
 120 400 l 1
 240 350 l 1
 120 230 l 25
 119 50 l 25
 240 0 l 25
 360 120 l 1041
EndSplineSet
Fore
SplineSet
323 66 m 1
 220 -37 l 1
 99 13 l 1
 82 30 l 1
 83 210 l 1
 196 323 l 1
 100 363 l 1
 83 380 l 1
 83 460 l 1
 260 637 l 1
 380 587 l 1
 397 570 l 1
 397 387 l 1
 500 387 l 1
 517 370 l 1
 460 313 l 1
 397 313 l 1
 397 80 l 1
 440 37 l 1
 560 157 l 1
 577 140 l 1
 400 -37 l 1
 323 40 l 1
 323 66 l 1
323 313 m 1
 220 313 l 1
 157 250 l 1
 156 80 l 1
 260 37 l 2
 260 37 317 94 323 100 c 1
 323 313 l 1
323 387 m 1
 323 520 l 1
 220 563 l 2
 220 563 163 506 157 500 c 1
 157 430 l 1
 260 387 l 1
 323 387 l 1
EndSplineSet
EndChar
StartChar: quotesingle
Encoding: 39 39 7
Width: 360
Flags: W
HStem: 371 248
VStem: 91 148
LayerCount: 2
Back
SplineSet
152.5 582.5 m 25
 202.5 532.5 l 1
 202.5 482.5 l 25
 127.5 407.5 l 1049
EndSplineSet
Fore
SplineSet
116 563 m 1
 172 619 l 1
 239 552 l 1
 239 502 l 1
 108 371 l 1
 91 388 l 1
 166 463 l 1
 166 513 l 1
 116 563 l 1
EndSplineSet
EndChar
StartChar: plus
Encoding: 43 43 11
Width: 720
Flags: W
HStem: 263 74<140 323 397 580> 517 20G<360 397>
VStem: 323 74<120 263 337 480>
LayerCount: 2
Back
SplineSet
360 500 m 25
 360 100 l 1049
120 300 m 25
 600 300 l 1049
EndSplineSet
Fore
SplineSet
83 280 m 1
 140 337 l 1
 323 337 l 1
 323 480 l 1
 380 537 l 1
 397 520 l 1
 397 337 l 1
 620 337 l 1
 637 320 l 1
 580 263 l 1
 397 263 l 1
 397 120 l 1
 340 63 l 1
 323 80 l 1
 323 263 l 1
 100 263 l 1
 83 280 l 1
EndSplineSet
EndChar
StartChar: hyphen
Encoding: 45 45 13
Width: 360
Flags: W
HStem: 163 99
VStem: 83 194
LayerCount: 2
Back
SplineSet
120 200 m 25
 240 225 l 1049
EndSplineSet
Fore
SplineSet
83 180 m 1
 140 237 l 1
 260 262 l 1
 277 245 l 1
 220 188 l 1
 100 163 l 1
 83 180 l 1
EndSplineSet
EndChar
StartChar: slash
Encoding: 47 47 15
Width: 600
Flags: W
HStem: -187 21G<23 60>
LayerCount: 2
Back
SplineSet
60 -150 m 25
 540 700 l 1049
EndSplineSet
Fore
SplineSet
40 -187 m 1
 23 -170 l 1
 503 680 l 1
 560 737 l 1
 577 720 l 1
 97 -130 l 1
 40 -187 l 1
EndSplineSet
EndChar
StartChar: zero
Encoding: 48 48 16
Width: 480
Flags: W
HStem: 417 20G<240 300> 417 20G<240 300>
VStem: 83 74<88 260> 323 74<140 312>
LayerCount: 2
Back
SplineSet
240 400 m 1
 120 280 l 1
 120 60 l 25
 240 0 l 1
 360 120 l 1
 360 340 l 25
 240 400 l 1
EndSplineSet
Fore
SplineSet
220 363 m 1x30
 157 300 l 1
 157 88 l 1
 260 37 l 2
 260 37 317 94 323 100 c 1
 323 312 l 1
 220 363 l 1x30
83 260 m 1
 260 437 l 1xb0
 380 377 l 1
 397 360 l 1
 397 140 l 1
 220 -37 l 1
 100 23 l 1
 83 40 l 1
 83 260 l 1
EndSplineSet
Substitution2: "Subscript forms-1" zero.inferior
Substitution2: "Superscript forms-1" zero.superior
EndChar
StartChar: three
Encoding: 51 51 19
Width: 480
Flags: W
HStem: -187 74<147.844 232.449> 417 20G<176 296> 417 20G<176 296>
VStem: 293 74<290 323> 323 74<-120 103.03>
LayerCount: 2
Back
SplineSet
120 350 m 1
 180 400 l 1
 240 400 l 1
 330 350 l 1
 330 270 l 1
 210 150 l 1049
90 -200 m 25
 67 -220 140 -150 180 -150 c 27
 231 -150 300 -200 300 -200 c 9
 360 -140 l 1
 360 85 l 9
 270 175 l 1049
EndSplineSet
Fore
SplineSet
74 -233 m 2x88
 70 -237 l 2
 67 -240 66 -240 66 -240 c 2
 49 -223 l 2
 106 -166 l 2
 111 -161 167 -113 200 -113 c 0
 251 -113 320 -163 320 -163 c 2
 323 -160 l 2
 323 65 l 2
 323 104 271 117 250 138 c 2
 233 155 l 1
 290 212 l 1
 397 105 l 1
 397 -120 l 1
 280 -237 l 1
 280 -237 211 -187 160 -187 c 0
 133 -187 91 -218 74 -233 c 2x88
83 330 m 1
 140 387 l 1
 200 437 l 1
 260 437 l 1
 350 387 l 1
 367 370 l 1
 367 290 l 1
 190 113 l 1
 173 130 l 1
 293 250 l 1
 293 323 l 1xd0
 220 363 l 1
 160 363 l 1
 100 313 l 1
 83 330 l 1
EndSplineSet
Substitution2: "Subscript forms-1" three.inferior
Substitution2: "Superscript forms-1" three.superior
EndChar
StartChar: seven
Encoding: 55 55 23
Width: 480
Flags: W
HStem: 113 74<148.44 216.671> 113 49<305.542 371> 313 74<169.308 328.402> 417 20G<90 182 380 457> 417 20G<90 182 380 457>
VStem: 203 74<-90 86.9687>
LayerCount: 2
Back
SplineSet
215 -95 m 25
 265 -145 l 1049
90 400 m 1
 90 400 164 350 270 350 c 3
 335 350 420 400 420 400 c 1
 420 400 240 276 240 0 c 3
 240 -32 240 -120 240.799804688 -120 c 1025
120 125 m 25
 120 125 176 150 210 150 c 24
 263 150 247 125 300 125 c 24
 334 125 390 150 391 150 c 1049
EndSplineSet
Fore
SplineSet
83 105 m 1xa4
 140 162 l 1x64
 140 162 196 187 230 187 c 0xa4
 234 187 238 186 241 186 c 0
 267 250 301 298 330 330 c 1
 305 321 276 313 250 313 c 0
 144 313 70 363 70 363 c 1
 53 380 l 1
 110 437 l 1
 110 437 184 387 290 387 c 0
 355 387 440 437 440 437 c 1
 457 420 l 1
 400 363 l 1
 400 363 398 362 393 358 c 2
 392 357 l 1
 357 315 318 251 295 164 c 1
 301 162 309 162 320 162 c 0x74
 354 162 410 187 411 187 c 2xa4
 428 170 l 1
 371 113 l 2x64
 370 113 315 88 281 88 c 1
 279 66 277 44 277 20 c 0
 277 -12 277 -99 278 -100 c 2
 277 -101 l 1
 302 -125 l 1
 245 -182 l 1
 178 -115 l 1
 203 -90 l 1
 203 -64 203 -36 203 -20 c 0
 203 28 208 71 217 110 c 1
 210 112 202 113 190 113 c 0
 156 113 100 88 100 88 c 1
 83 105 l 1xa4
221 -157 m 1
 221 -157 l 1
EndSplineSet
Substitution2: "Subscript forms-1" seven.inferior
Substitution2: "Superscript forms-1" seven.superior
EndChar
StartChar: nine
Encoding: 57 57 25
Width: 480
Flags: W
HStem: -187 74<144.848 232.449> 417 20G<240 280> 417 20G<240 280>
VStem: 83 74<140 260> 323 74<-120 66 100 260>
LayerCount: 2
Back
SplineSet
360 120 m 1
 240 0 l 1
 120 120 l 25
 120 280 l 25
 240 400 l 25
 360 280 l 1
 360 -140 l 9
 300 -200 l 17
 300 -200 231 -150 180 -150 c 27
 140 -150 90 -200 90 -200 c 1025
EndSplineSet
Fore
SplineSet
323 100 m 1x98
 323 260 l 1
 220 363 l 1
 157 300 l 1
 157 140 l 1
 260 37 l 1
 323 100 l 1x98
323 66 m 1
 220 -37 l 1
 83 100 l 1
 83 260 l 1
 260 437 l 1xd8
 397 300 l 1
 397 -120 l 1
 280 -237 l 1
 280 -237 211 -187 160 -187 c 0
 120 -187 70 -237 70 -237 c 1
 53 -220 l 1
 110 -163 l 1
 110 -163 160 -113 200 -113 c 0
 251 -113 320 -163 320 -163 c 1
 323 -160 l 1
 323 66 l 1
EndSplineSet
Substitution2: "Subscript forms-1" nine.inferior
Substitution2: "Superscript forms-1" nine.superior
EndChar
StartChar: semicolon
Encoding: 59 59 27
Width: 360
Flags: W
VStem: 91 151
LayerCount: 2
Back
SplineSet
152.5 50 m 25
 202.5 0 l 1
 202.5 -50 l 25
 127.5 -125 l 1049
155 345 m 25
 205 295 l 1049
EndSplineSet
Fore
SplineSet
118 325 m 1
 175 382 l 1
 242 315 l 1
 185 258 l 1
 118 325 l 1
116 30 m 1
 172 87 l 1
 239 20 l 1
 239 -30 l 1
 108 -162 l 1
 91 -145 l 1
 166 -70 l 1
 166 -20 l 1
 116 30 l 1
EndSplineSet
EndChar
StartChar: equal
Encoding: 61 61 29
Width: 720
Flags: W
HStem: 163 74<140 580> 363 74<140 580>
LayerCount: 2
Back
SplineSet
120 200 m 25
 600 200 l 1049
120 400 m 25
 600 400 l 1049
EndSplineSet
Fore
SplineSet
83 380 m 1
 140 437 l 1
 620 437 l 1
 637 420 l 1
 580 363 l 1
 100 363 l 1
 83 380 l 1
83 180 m 1
 140 237 l 1
 620 237 l 1
 637 220 l 1
 580 163 l 1
 100 163 l 1
 83 180 l 1
EndSplineSet
EndChar
StartChar: greater
Encoding: 62 62 30
Width: 720
Flags: W
HStem: 517 20G<120 188>
LayerCount: 2
Back
SplineSet
120 500 m 25
 600 300 l 25
 120 100 l 1049
EndSplineSet
Fore
SplineSet
83 480 m 1
 140 537 l 1
 620 337 l 1
 637 320 l 1
 580 263 l 1
 100 63 l 1
 83 80 l 1
 140 137 l 1
 512 292 l 1
 100 463 l 1
 83 480 l 1
EndSplineSet
EndChar
StartChar: A
Encoding: 65 65 33
Width: 840
Flags: W
HStem: 13 74<114.651 222.908> 313 74<294.773 350 434 457.233> 538 21G<233 264 488 525> 563 74<293.767 363.195> 563 56<295 348.559>
VStem: 383 74<388.24 546.675>
AnchorPoint: "blwmark" 480 0 basechar 0
AnchorPoint: "abvmark" 540 700 basechar 0
LayerCount: 2
Back
SplineSet
625 550 m 25
 575 600 l 25
 525 550 l 1049
240 300 m 1
 240 300 276 350 360 350 c 3
 512 350 600 250 601 250 c 1025
270 575 m 1
 270 575 282 600 330 600 c 11
 389 600 420 549 420 500 c 3
 420 263 211 75 211 75 c 1025
60 0 m 17
 60 0 97 50 180 50 c 3
 298 50 330 0 330 0 c 1025
600 575 m 1
 660 60 l 1
 720 0 l 9
 780 60 l 1049
EndSplineSet
Fore
SplineSet
40 -37 m 1xf4
 23 -20 l 1
 23 -20 26 -17 30 -13 c 2
 86 44 l 2
 100 58 137 87 200 87 c 0
 202 87 203 87 205 87 c 0
 244 129 310 210 350 313 c 1
 347 313 343 313 340 313 c 0
 288 313 255 294 236 279 c 2
 220 263 l 1
 203 280 l 1
 203 280 205 283 210 288 c 2
 267 345 l 2
 281 359 314 385 373 387 c 1
 380 417 383 448 383 480 c 0
 383 504 376 528 362 547 c 1
 349 557 331 563 310 563 c 0xf4
 287 563 274 558 264 552 c 2
 250 538 l 1
 233 555 l 1
 233 555 235 558 239 562 c 2
 295 619 l 2
 296 619 l 0xec
 304 627 319 637 350 637 c 0xf4
 376 637 395 627 410 612 c 2
 427 596 l 2
 428 595 l 0
 447 576 457 548 457 520 c 0
 457 472 448 425 434 382 c 1
 507 370 560 337 591 313 c 1
 563 555 l 1
 555 563 l 1xec
 505 513 l 1
 488 530 l 1
 595 637 l 1
 620 612 l 1
 637 595 l 1
 662 570 l 1
 642 550 l 1
 697 80 l 2
 700 58 727 50 740 37 c 1
 800 97 l 1
 817 80 l 1
 700 -37 l 1
 623 40 l 1
 601 233 l 1
 581 213 l 2
 580 213 517 285 404 307 c 1
 356 208 288 135 260 107 c 2
 238 85 l 1
 302 78 332 56 344 44 c 2
 361 27 l 2
 365 23 367 20 367 20 c 1
 310 -37 l 1
 296 -23 l 2
 277 -8 237 13 160 13 c 0
 107 13 73 -7 55 -22 c 2
 40 -37 l 1xf4
EndSplineSet
EndChar
StartChar: C
Encoding: 67 67 35
Width: 900
Flags: W
HStem: -37 74<361.499 560.772> 455 21G<323 348> 513 74<634.63 702.512> 517 20G<510 547> 563 74<498.03 575.301>
VStem: 113 74<201.2 379.225> 348 24<64 462 521 571> 473 74<120 480>
AnchorPoint: "blwmark" 480 0 basechar 0
AnchorPoint: "abvmark" 540 700 basechar 0
LayerCount: 2
Back
SplineSet
360 550 m 1
 360 100 l 1025
510 500 m 1
 510 100 l 1025
360 600 m 1
 360 600 150 480 150 300 c 3
 150 134 264 0 480 0 c 3
 623 0 781 150 782 150 c 1025
360 492 m 1
 360 492 474 600 546 600 c 3
 623 600 590 550 660 550 c 3
 718 550 750 600 751 600 c 1025
EndSplineSet
Fore
SplineSet
530 537 m 1xd7
 547 520 l 1
 547 120 l 1
 490 63 l 1
 473 80 l 1
 473 480 l 1
 530 537 l 1xd7
348 571 m 1
 340 563 l 1xcf
 340 563 305 544 265 509 c 1
 223 459 187 395 187 320 c 0
 187 242 211 171 260 118 c 0
 284 96 314 78 348 64 c 1
 348 462 l 1
 343 458 340 455 340 455 c 1
 323 472 l 1
 348 497 l 1
 348 571 l 1
358 60 m 1
 399 45 446 37 500 37 c 0
 643 37 801 187 802 187 c 2
 819 170 l 1
 762 113 l 2
 761 113 603 -37 460 -37 c 0
 351 -37 268 -2 212 53 c 0
 195 70 l 2
 141 124 113 198 113 280 c 0
 113 370 165 444 218 497 c 0
 218 498 l 2
 275 555 l 2
 327 607 380 637 380 637 c 1
 397 620 l 1
 367 590 l 1
 372 590 l 1
 372 521 l 1
 380 529 l 1
 380 529 494 637 566 637 c 0xcf
 596 637 609 629 618 620 c 2
 635 603 l 2
 637 601 640 597 642 595 c 0
 650 590 661 587 680 587 c 0xe7
 707 587 728 598 743 609 c 2
 771 637 l 2xcf
 788 620 l 2
 786 618 781 611 774 604 c 2
 718 548 l 2
 703 533 676 513 640 513 c 0xe7
 615 513 604 519 595 528 c 0
 594 528 l 2
 577 545 l 2
 575 547 573 550 571 553 c 0
 562 559 548 563 526 563 c 0
 478 563 411 515 372 483 c 1
 372 60 l 1
 358 60 l 1
EndSplineSet
EndChar
StartChar: E
Encoding: 69 69 37
Width: 900
Flags: W
HStem: -37 74<361.499 560.772> 263 74<635 698.366> 313 74<566.784 625> 455 21G<323 348> 513 74<634.63 702.512> 517 20G<510 547> 563 74<498.03 575.301>
VStem: 113 74<201.2 379.225> 348 24<64 462 521 571> 473 74<120 311.543 351 480>
AnchorPoint: "blwmark" 480 0 basechar 0
AnchorPoint: "abvmark" 540 700 basechar 0
LayerCount: 2
Back
SplineSet
510 300 m 25
 510 300 566 350 600 350 c 27
 642 350 618 300 660 300 c 3
 709 300 750 350 751 350 c 1049
360 550 m 1
 360 100 l 1025
510 500 m 1
 510 100 l 1025
360 600 m 1
 360 600 150 480 150 300 c 3
 150 134 264 0 480 0 c 3
 623 0 781 150 782 150 c 1025
360 492 m 1
 360 492 474 600 546 600 c 3
 623 600 590 550 660 550 c 3
 718 550 750 600 751 600 c 1025
EndSplineSet
Fore
SplineSet
530 537 m 1xb5c0
 547 520 l 1
 547 351 l 1
 566 366 598 387 620 387 c 0xb5c0
 630 387 636 384 640 380 c 2
 657 363 l 2
 663 357 666 346 669 338 c 0
 672 337 676 337 680 337 c 0xd1c0
 714 337 743 360 759 375 c 2
 770 386 l 2
 771 387 l 2xb1c0
 788 370 l 1
 785 367 l 2
 784 366 782 364 781 363 c 2
 725 307 l 2
 711 293 678 263 640 263 c 0xd1c0
 630 263 625 266 620 270 c 0
 603 287 l 2
 597 293 595 303 591 312 c 0
 589 313 584 313 580 313 c 0
 570 313 559 309 547 303 c 1
 547 120 l 1
 490 63 l 1
 473 80 l 1
 473 280 l 1
 473 480 l 1
 530 537 l 1xb5c0
348 571 m 1
 340 563 l 1x93c0
 340 563 305 544 265 509 c 1
 223 459 187 395 187 320 c 0
 187 242 211 171 260 118 c 0
 284 96 314 78 348 64 c 1
 348 462 l 1
 343 458 340 455 340 455 c 1
 323 472 l 1
 348 497 l 1
 348 571 l 1
358 60 m 1
 399 45 446 37 500 37 c 0
 643 37 801 187 802 187 c 2
 819 170 l 1
 762 113 l 2
 761 113 603 -37 460 -37 c 0
 351 -37 268 -2 212 53 c 0
 195 70 l 2
 141 124 113 198 113 280 c 0
 113 370 165 444 218 497 c 0
 218 498 l 2
 275 555 l 2
 327 607 380 637 380 637 c 1
 397 620 l 1
 367 590 l 1
 372 590 l 1
 372 521 l 1
 380 529 l 1
 380 529 494 637 566 637 c 0x93c0
 596 637 609 629 618 620 c 2
 635 603 l 2
 637 601 640 597 642 595 c 0
 650 590 661 587 680 587 c 0x99c0
 707 587 728 598 743 609 c 2
 771 637 l 2x93c0
 788 620 l 2
 786 618 781 611 774 604 c 2
 718 548 l 2
 703 533 676 513 640 513 c 0x99c0
 615 513 604 519 595 528 c 0
 594 528 l 2
 577 545 l 2
 575 547 573 550 571 553 c 0
 562 559 548 563 526 563 c 0
 478 563 411 515 372 483 c 1
 372 60 l 1
 358 60 l 1
EndSplineSet
EndChar
StartChar: F
Encoding: 70 70 38
Width: 840
Flags: W
HStem: -37 21G<23 55 296 330> 13 74<114.255 227.259> 263 74<576.192 638.366> 313 74<474.528 528.808> 488 74<545.416 644.657> 513 21G<23 58> 538 74<194.815 228> 563 49<252.792 281> 563 33<88 107.353> 617 20G<320.5 338 450 510 721 758>
VStem: 228 24<86 539> 353 74<80 300.256 324 520>
AnchorPoint: "blwmark" 420 0 basechar 0
AnchorPoint: "abvmark" 480 700 basechar 0
LayerCount: 2
Back
SplineSet
60 0 m 17
 60 0 97 50 180 50 c 3
 298 50 330 0 330 0 c 9
 390 60 l 1
 390 540 l 1
 450 600 l 1
 450 600 525 525 600 525 c 27
 667 525 720 600 721 600 c 1025
60 550 m 1
 60 550 101 600 149 600 c 3
 192 600 214 575 240 575 c 3
 274 575 300 600 301 600 c 1025
240 550 m 1
 240 75 l 1025
420 300 m 1
 420 300 471 350 505 350 c 3
 547 350 558 300 600 300 c 3
 649 300 690 350 691 350 c 1049
EndSplineSet
Fore
SplineSet
40 513 m 1xc4f0
 23 530 l 1
 23 530 27 534 32 539 c 2
 88 596 l 2
 89 596 l 0xc4f0
 104 611 135 637 169 637 c 0
 212 637 234 612 260 612 c 0
 294 612 320 637 321 637 c 2
 338 620 l 1
 281 563 l 2
 280 563 269 552 252 545 c 1
 252 83 l 1
 306 75 333 55 344 44 c 2
 350 37 l 1
 353 40 l 1
 353 520 l 1
 470 637 l 1
 470 637 545 562 620 562 c 0xc970
 649 562 675 575 695 591 c 2
 741 637 l 2
 758 620 l 1
 755 617 748 607 736 595 c 2
 735 595 l 2
 679 538 l 2xc270
 657 516 621 488 580 488 c 0
 505 488 430 563 430 563 c 1
 427 560 l 1
 427 324 l 1
 440 337 l 1xe8f0
 440 337 491 387 525 387 c 0xd070
 567 387 578 337 620 337 c 0xe070
 654 337 683 360 699 375 c 2
 710 386 l 2
 711 387 l 2xd070
 728 370 l 1
 725 367 l 2
 724 366 722 364 721 363 c 2
 665 307 l 2
 651 293 618 263 580 263 c 0xe070
 538 263 527 313 485 313 c 0
 467 313 444 299 427 286 c 1
 427 80 l 1
 310 -37 l 1
 296 -23 l 2
 277 -8 237 13 160 13 c 0
 107 13 73 -7 55 -22 c 2
 40 -37 l 1
 23 -20 l 1
 23 -20 26 -17 30 -13 c 2
 86 44 l 2
 100 58 137 87 200 87 c 0
 210 87 219 87 228 86 c 1
 228 539 l 2
 225 539 223 538 220 538 c 0xd270
 194 538 172 563 129 563 c 0
 101 563 75 546 58 531 c 2
 40 513 l 1xc4f0
EndSplineSet
EndChar
StartChar: H
Encoding: 72 72 40
Width: 840
Flags: W
HStem: -37 21G<23 55 296 330 680 720> 13 74<114.897 227.259> 513 21G<23 58> 538 74<194.815 228> 563 49<252.792 281> 563 33<88 107.353> 617 20G<320.5 338 450 487>
VStem: 228 24<86 539> 353 74<80 192 219 520> 623 74<51.4784 295>
AnchorPoint: "blwmark" 480 0 basechar 0
AnchorPoint: "abvmark" 480 700 basechar 0
LayerCount: 2
Back
SplineSet
60 550 m 1
 60 550 101 600 149 600 c 3
 192 600 214 575 240 575 c 3
 274 575 300 600 301 600 c 1025
240 550 m 1
 240 75 l 1025
450 225 m 1
 600 375 l 1
 660 315 l 1
 660 60 l 1
 720 0 l 9
 780 60 l 1049
450 600 m 1
 390 540 l 1
 390 60 l 1
 330 0 l 1
 330 0 298 50 180 50 c 3
 97 50 60 0 60 0 c 1033
EndSplineSet
Fore
SplineSet
470 637 m 1xebc0
 487 620 l 1
 427 560 l 1
 427 219 l 1
 620 412 l 1
 697 335 l 1
 697 80 l 2
 697 57 728 49 740 37 c 1
 800 97 l 1
 817 80 l 1
 700 -37 l 1
 623 40 l 1
 623 295 l 1
 580 338 l 1
 430 188 l 1
 427 192 l 1
 427 80 l 1
 310 -37 l 1
 296 -23 l 2
 277 -8 237 13 160 13 c 0
 106 13 72 -8 55 -22 c 2
 40 -37 l 1
 23 -20 l 2
 23 -20 25 -17 29 -13 c 2
 30 -13 l 2
 86 44 l 2
 100 58 137 87 200 87 c 0
 210 87 219 87 228 86 c 1
 228 539 l 2
 225 539 223 538 220 538 c 0xf3c0
 194 538 172 563 129 563 c 0
 101 563 75 546 58 531 c 2
 40 513 l 1
 23 530 l 1
 23 530 27 534 32 539 c 2
 88 596 l 2
 89 596 l 0xe7c0
 104 611 135 637 169 637 c 0
 212 637 234 612 260 612 c 0
 294 612 320 637 321 637 c 2
 338 620 l 1
 281 563 l 2
 280 563 269 552 252 545 c 1
 252 83 l 1
 306 75 333 55 344 44 c 2
 350 37 l 1
 353 40 l 1
 353 520 l 1
 470 637 l 1xebc0
EndSplineSet
EndChar
StartChar: J
Encoding: 74 74 42
Width: 540
Flags: W
HStem: -187 74<24.8971 182.616> 513 21G<23 58> 538 74<194.815 228> 563 49<252.792 281> 563 33<88 107.353> 617 20G<320.5 338 450 487>
VStem: 228 24<-138 539> 353 74<-30 520>
AnchorPoint: "abvmark" 300 700 basechar 0
LayerCount: 2
Back
SplineSet
60 550 m 1
 60 550 101 600 149 600 c 3
 192 600 214 575 240 575 c 3
 274 575 300 600 301 600 c 1025
240 550 m 1
 240 -125 l 1025
450 600 m 1
 390 540 l 1
 390 -50 l 1
 240 -200 l 1
 240 -200 208 -150 90 -150 c 3
 7 -150 -30 -200 -30 -200 c 1025
EndSplineSet
Fore
SplineSet
470 637 m 1xd7
 487 620 l 1
 427 560 l 1
 427 -30 l 1
 220 -237 l 1
 206 -223 l 2
 187 -208 147 -187 70 -187 c 0
 16 -187 -18 -208 -35 -222 c 2
 -50 -237 l 1
 -67 -220 l 2
 -67 -220 -65 -217 -61 -213 c 2
 -60 -213 l 2
 -4 -156 l 2
 10 -142 47 -113 110 -113 c 0
 168 -113 205 -126 228 -138 c 1
 228 539 l 2
 225 539 223 538 220 538 c 0xe7
 194 538 172 563 129 563 c 0
 101 563 75 546 58 531 c 2
 40 513 l 1
 23 530 l 1
 23 530 27 534 32 539 c 2
 88 596 l 2
 89 596 l 0xcf
 104 611 135 637 169 637 c 0
 212 637 234 612 260 612 c 0
 294 612 320 637 321 637 c 2
 338 620 l 1
 281 563 l 2
 280 563 269 552 252 545 c 1
 252 -155 l 2
 253 -156 253 -155 254 -156 c 2
 260 -163 l 1
 353 -70 l 1
 353 520 l 1
 470 637 l 1xd7
EndSplineSet
EndChar
StartChar: K
Encoding: 75 75 43
Width: 840
Flags: W
HStem: -37 21G<23 55 296 330> 13 74<114.897 227.259> 513 21G<23 58 690.455 730> 538 74<194.815 228> 563 49<252.792 281> 563 33<88 107.353> 617 20G<320.5 338 450 487 680 720>
VStem: 228 24<86 539> 353 74<80 187 214 520> 593 74<420 530> 623 74<55.2178 202>
AnchorPoint: "blwmark" 480 0 basechar 0
AnchorPoint: "abvmark" 540 700 basechar 0
LayerCount: 2
Back
SplineSet
60 550 m 1
 60 550 101 600 149 600 c 3
 192 600 214 575 240 575 c 3
 274 575 300 600 301 600 c 1025
240 550 m 1
 240 75 l 1025
450 220 m 1
 630 400 l 1
 630 550 l 1
 680 600 l 9
 730 550 l 1049
560 305 m 1
 660 225 l 1
 660 60 l 1
 710 10 l 9
 760 60 l 1049
450 600 m 1
 390 540 l 1
 390 60 l 1
 330 0 l 1
 330 0 298 50 180 50 c 3
 97 50 60 0 60 0 c 1033
EndSplineSet
Fore
SplineSet
470 637 m 1xeba0
 487 620 l 1
 427 560 l 1
 427 214 l 1
 593 380 l 1
 593 530 l 1
 700 637 l 1
 767 570 l 1
 710 513 l 1
 667 557 l 1
 667 420 l 1xebc0
 585 338 l 1
 680 262 l 1
 697 245 l 1
 697 80 l 2
 697 63 721 56 730 47 c 1
 780 97 l 1
 797 80 l 1
 690 -27 l 1
 623 40 l 1
 623 202 l 1
 540 268 l 1
 528 281 l 1
 430 183 l 1
 427 187 l 1
 427 80 l 1
 310 -37 l 1
 296 -23 l 2
 277 -8 237 13 160 13 c 0
 106 13 72 -8 55 -22 c 2
 40 -37 l 1
 23 -20 l 2
 23 -20 25 -17 29 -13 c 2
 30 -13 l 2
 86 44 l 2
 100 58 137 87 200 87 c 0
 210 87 219 87 228 86 c 1
 228 539 l 2
 225 539 223 538 220 538 c 0xf3a0
 194 538 172 563 129 563 c 0
 101 563 75 546 58 531 c 2
 40 513 l 1
 23 530 l 1
 23 530 27 534 32 539 c 2
 88 596 l 2
 89 596 l 0xe7a0
 104 611 135 637 169 637 c 0
 212 637 234 612 260 612 c 0
 294 612 320 637 321 637 c 2
 338 620 l 1
 281 563 l 2
 280 563 269 552 252 545 c 1
 252 83 l 1
 306 75 333 55 344 44 c 2
 350 37 l 1
 353 40 l 1
 353 520 l 1
 470 637 l 1xeba0
EndSplineSet
EndChar
StartChar: L
Encoding: 76 76 44
Width: 840
Flags: W
HStem: -37 21G<23 55 412 600> 13 74<115.143 228 252 397.92> 513 21G<23 58> 538 74<194.815 228> 563 49<252.792 281> 563 33<88 107.353> 617 20G<320.5 338 450 487>
VStem: 228 24<87 539> 353 74<170 520> 623 74<170.099 241.397>
AnchorPoint: "blwmark" 420 0 basechar 0
AnchorPoint: "abvmark" 480 700 basechar 0
LayerCount: 2
Back
SplineSet
60 550 m 1
 60 550 101 600 149 600 c 3
 192 600 214 575 240 575 c 3
 274 575 300 600 301 600 c 1025
240 550 m 1
 240 75 l 1025
390 150 m 1
 390 540 l 1
 450 600 l 1025
720 300 m 1
 720 300 660 253.200195312 660 210 c 3
 660 136.799804688 720 121.200195312 720 121.200195312 c 1
 600 0 l 17
 600 0 419 50 180 50 c 3
 97 50 60 0 60 0 c 1033
EndSplineSet
Fore
SplineSet
757 320 m 1xebc0
 721 284 l 2
 708 267 697 249 697 230 c 0
 697 204 705 184 715 171 c 0
 724 164 733 161 737 159 c 0
 739 158 740 158 740 158 c 1
 757 141 l 1
 637 20 l 1
 580 -37 l 1
 580 -37 399 13 160 13 c 0
 106 13 72 -8 55 -22 c 2
 40 -37 l 1
 23 -20 l 2
 23 -20 25 -17 29 -13 c 2
 30 -13 l 2
 86 44 l 2
 100 58 137 87 200 87 c 0
 209 87 219 87 228 87 c 1
 228 539 l 2
 225 539 223 538 220 538 c 0xf3c0
 194 538 172 563 129 563 c 0
 101 563 75 546 58 531 c 2
 40 513 l 1
 23 530 l 1
 23 530 27 534 32 539 c 2
 88 596 l 2
 89 596 l 0xe7c0
 104 611 135 637 169 637 c 0
 212 637 234 612 260 612 c 0
 294 612 320 637 321 637 c 2
 338 620 l 1
 281 563 l 2
 280 563 269 552 252 545 c 1
 252 86 l 1
 458 80 610 40 619 37 c 1
 678 96 l 1
 674 99 670 101 666 105 c 0
 649 122 l 2
 636 135 623 157 623 190 c 0
 623 217 646 245 664 263 c 2
 720 319 l 2
 731 330 740 337 740 337 c 1
 757 320 l 1xebc0
370 113 m 1
 353 130 l 1
 353 520 l 1
 470 637 l 1
 487 620 l 1
 427 560 l 1
 427 170 l 1
 370 113 l 1
EndSplineSet
EndChar
StartChar: M
Encoding: 77 77 45
Width: 1080
Flags: W
HStem: -37 21G<23 55 296 330 620 660 890 930> 13 74<114.897 227.259> 513 21G<23 58> 538 74<194.815 228> 563 49<252.792 281> 563 33<88 107.353> 617 20G<320.5 338 450 490 720 760>
VStem: 228 24<86 539> 353 74<80 520> 563 74<80 470> 833 74<80 470>
AnchorPoint: "blwmark" 540 0 basechar 0
AnchorPoint: "abvmark" 600 700 basechar 0
LayerCount: 2
Back
SplineSet
990 60 m 25
 930 0 l 17
 870 60 l 1
 870 450 l 1
 720 600 l 1
 600 480 l 1025
60 550 m 1
 60 550 101 600 149 600 c 3
 192 600 214 575 240 575 c 3
 274 575 300 600 301 600 c 1025
240 550 m 1
 240 75 l 1025
720 60 m 25
 660 0 l 17
 600 60 l 1
 600 450 l 1
 450 600 l 1
 390 540 l 1
 390 60 l 1
 330 0 l 1
 330 0 298 50 180 50 c 3
 97 50 60 0 60 0 c 1033
EndSplineSet
Fore
SplineSet
740 97 m 1xe7e0
 757 80 l 1
 640 -37 l 1
 563 40 l 1
 563 430 l 2
 563 503 469 524 430 563 c 1xe7e0
 427 560 l 1
 427 80 l 1
 310 -37 l 1
 296 -23 l 2
 277 -8 237 13 160 13 c 0
 106 13 72 -8 55 -22 c 2
 40 -37 l 1
 23 -20 l 2
 23 -20 25 -17 29 -13 c 2
 30 -13 l 2
 86 44 l 2
 100 58 137 87 200 87 c 0
 210 87 219 87 228 86 c 1
 228 539 l 2
 225 539 223 538 220 538 c 0xf3e0
 194 538 172 563 129 563 c 0
 101 563 75 546 58 531 c 2
 40 513 l 1
 23 530 l 1
 23 530 27 534 32 539 c 2
 88 596 l 2
 89 596 l 0xe7e0
 104 611 135 637 169 637 c 0
 212 637 234 612 260 612 c 0
 294 612 320 637 321 637 c 2
 338 620 l 1
 281 563 l 2xebe0
 280 563 269 552 252 545 c 1
 252 83 l 1
 306 75 333 55 344 44 c 2
 350 37 l 1
 353 40 l 1
 353 520 l 1
 470 637 l 1
 605 502 l 1
 740 637 l 1
 907 470 l 1
 907 80 l 1
 950 37 l 1
 1010 97 l 1
 1027 80 l 1
 910 -37 l 1
 833 40 l 1
 833 430 l 2
 833 503 739 524 700 563 c 1
 622 485 l 1
 637 470 l 1
 637 80 l 1
 680 37 l 1
 740 97 l 1xe7e0
EndSplineSet
EndChar
StartChar: O
Encoding: 79 79 47
Width: 960
Flags: W
HStem: -37 74<361.499 561.553> 455 21G<323 348> 562 75<551.067 627.466>
VStem: 113 74<201.2 379.225> 348 24<64 463 526 571> 473 74<120 530> 747 74<219.781 422.506>
AnchorPoint: "blwmark" 480 0 basechar 0
AnchorPoint: "abvmark" 540 700 basechar 0
LayerCount: 2
Back
SplineSet
360 550 m 1
 360 100 l 1025
512 550 m 1
 510 100 l 1025
360 600 m 1
 360 600 150 480 150 300 c 3
 150 134 264 0 480 0 c 3
 623 0 784 142 784 300 c 3
 784 512 673 600 540 600 c 3
 436 600 360 492 360 492 c 1025
EndSplineSet
Fore
SplineSet
508 563 m 1
 466 559 428 538 400 517 c 0
 398 514 397 512 397 512 c 1
 372 487 l 1
 372 60 l 1
 358 60 l 1
 399 45 446 37 500 37 c 0
 562 37 628 64 682 107 c 1
 722 157 747 217 747 280 c 0
 747 385 720 460 677 508 c 1
 641 540 597 557 549 562 c 1
 547 120 l 1
 490 63 l 1
 473 80 l 1
 475 530 l 1
 508 563 l 1
348 571 m 1
 340 563 l 1
 340 563 305 544 265 509 c 1
 223 459 187 395 187 320 c 0
 187 242 211 171 260 118 c 0
 284 96 314 78 348 64 c 1
 348 463 l 1
 340 455 l 1
 323 472 l 2
 323 472 332 484 348 501 c 1
 348 571 l 1
372 526 m 1
 410 564 l 2
 442 596 496 637 560 637 c 0
 623 637 681 617 725 573 c 2
 742 556 l 2
 790 508 821 431 821 320 c 0
 821 244 784 172 729 117 c 2
 672 60 l 2
 613 1 534 -37 460 -37 c 0
 351 -37 268 -2 212 53 c 0
 195 70 l 2
 141 124 113 198 113 280 c 0
 113 370 165 444 218 497 c 0
 218 498 l 2
 275 555 l 2
 327 607 380 637 380 637 c 1
 397 620 l 1
 367 590 l 1
 372 590 l 1
 372 526 l 1
EndSplineSet
EndChar
StartChar: P
Encoding: 80 80 48
Width: 840
Flags: W
HStem: -37 21G<23 55 296 330> 13 74<114.897 227.259> 262 75<427.188 517.039> 513 21G<23 58> 538 74<194.815 228> 563 49<252.792 281> 563 33<88 107.353> 617 20G<320.5 338 450 513.2>
VStem: 228 24<86 539> 353 74<80 253 336 520> 683 74<390 446>
AnchorPoint: "blwmark" 480 0 basechar 0
AnchorPoint: "abvmark" 480 700 basechar 0
LayerCount: 2
Back
SplineSet
300 250 m 17
 300 250 369 300 420 300 c 27
 511 300 600 250 600 250 c 1
 720 370 l 1
 720 475 l 1
 450 600 l 1
 390 540 l 1
 390 60 l 1
 330 0 l 1
 330 0 298 50 180 50 c 3
 97 50 60 0 60 0 c 1033
60 550 m 1
 60 550 101 600 149 600 c 3
 192 600 214 575 240 575 c 3
 274 575 300 600 301 600 c 1025
240 550 m 1
 240 75 l 1025
EndSplineSet
Fore
SplineSet
40 513 m 1xf3e0
 23 530 l 1
 23 530 27 534 32 539 c 2
 88 596 l 2
 89 596 l 0xf3e0
 104 611 135 637 169 637 c 0
 212 637 234 612 260 612 c 0
 294 612 320 637 321 637 c 2
 338 620 l 1
 281 563 l 2xf5e0
 280 563 269 552 252 545 c 1
 252 83 l 1
 306 75 333 55 344 44 c 2
 350 37 l 1
 353 40 l 1
 353 253 l 2
 352 252 350 252 349 251 c 0
 312 236 280 213 280 213 c 1
 263 230 l 1
 320 287 l 1
 320 287 333 297 353 308 c 1
 353 520 l 1
 470 637 l 1
 740 512 l 1
 757 495 l 1
 757 390 l 1
 580 213 l 1
 580 213 508 254 427 262 c 1
 427 80 l 1
 310 -37 l 1
 296 -23 l 2
 277 -8 237 13 160 13 c 0
 106 13 72 -8 55 -22 c 2
 40 -37 l 1
 23 -20 l 2
 23 -20 25 -17 29 -13 c 2
 30 -13 l 2
 86 44 l 2
 100 58 137 87 200 87 c 0
 210 87 219 87 228 86 c 1
 228 539 l 2
 225 539 223 538 220 538 c 0xf9e0
 194 538 172 563 129 563 c 0
 101 563 75 546 58 531 c 2
 40 513 l 1xf3e0
427 336 m 1
 431 337 436 337 440 337 c 0
 531 337 620 287 620 287 c 2
 620 287 677 344 683 350 c 1
 683 446 l 1
 430 563 l 2
 427 560 l 2
 427 336 l 1
EndSplineSet
EndChar
StartChar: R
Encoding: 82 82 50
Width: 840
Flags: W
HStem: -37 21G<23 55 296 330 680 720> 13 74<114.897 227.259> 513 21G<23 58> 538 74<194.815 228> 563 49<252.792 281> 563 33<88 107.353> 617 20G<320.5 338 450 513.2>
VStem: 228 24<86 539> 353 74<80 520> 623 74<51.4784 301>
AnchorPoint: "blwmark" 480 0 basechar 0
AnchorPoint: "abvmark" 480 700 basechar 0
LayerCount: 2
Back
SplineSet
60 550 m 1
 60 550 101 600 149 600 c 3
 192 600 214 575 240 575 c 3
 274 575 300 600 301 600 c 1025
240 550 m 1
 240 75 l 1025
540 295 m 1
 720 475 l 1
 450 600 l 1
 390 540 l 1
 390 60 l 1
 330 0 l 1
 330 0 298 50 180 50 c 3
 97 50 60 0 60 0 c 1033
620 355 m 1
 660 325 l 1
 660 60 l 1
 720 0 l 9
 780 60 l 1049
EndSplineSet
Fore
SplineSet
520 258 m 1xebc0
 503 275 l 1
 677 449 l 1
 430 563 l 2xe7c0
 427 560 l 2
 427 80 l 1
 310 -37 l 1
 296 -23 l 2
 277 -8 237 13 160 13 c 0
 106 13 72 -8 55 -22 c 2
 40 -37 l 1
 23 -20 l 2
 23 -20 25 -17 29 -13 c 2
 30 -13 l 2
 86 44 l 2
 100 58 137 87 200 87 c 0
 210 87 219 87 228 86 c 1
 228 539 l 2
 225 539 223 538 220 538 c 0xf3c0
 194 538 172 563 129 563 c 0
 101 563 75 546 58 531 c 2
 40 513 l 1
 23 530 l 1
 23 530 27 534 32 539 c 2
 88 596 l 2
 89 596 l 0xe7c0
 104 611 135 637 169 637 c 0
 212 637 234 612 260 612 c 0
 294 612 320 637 321 637 c 2
 338 620 l 1
 281 563 l 2
 280 563 269 552 252 545 c 1
 252 83 l 1
 306 75 333 55 344 44 c 2
 350 37 l 1
 353 40 l 1
 353 520 l 1
 470 637 l 1
 740 512 l 1
 757 495 l 1
 648 386 l 1
 680 362 l 1
 697 345 l 1
 697 80 l 2
 697 57 728 49 740 37 c 1
 800 97 l 1
 817 80 l 1
 700 -37 l 1
 623 40 l 1
 623 301 l 1
 600 318 l 1
 590 328 l 1
 520 258 l 1xebc0
EndSplineSet
EndChar
StartChar: U
Encoding: 85 85 53
Width: 840
Flags: W
HStem: -37 74<344.404 502.343> 513 21G<23 58> 544 68<311 318 343.41 451> 563 33<88 107.353> 617 20G<560.5 578>
VStem: 113 74<155.764 360.7> 318 24<56 542> 443 74<120 530> 683 74<55 97 124.154 168 172 570>
AnchorPoint: "blwmark" 420 0 basechar 0
AnchorPoint: "abvmark" 540 700 basechar 0
LayerCount: 2
Back
SplineSet
480 550 m 1
 480 100 l 1025
695 50 m 25
 745 0 l 25
 795 50 l 1049
695 625 m 25
 745 575 l 1049
720 600 m 9
 720 25 l 1049
300 550 m 1
 300 550 150 466 150 250 c 3
 150 84 257 0 420 0 c 3
 563 0 721 150 722 150 c 1049
60 550 m 1
 60 550 101 600 149 600 c 3
 245 600 274 575 480 575 c 3
 514 575 540 600 541 600 c 1025
330 525 m 1
 330 50 l 1025
EndSplineSet
Fore
SplineSet
40 513 m 1xdf80
 23 530 l 1
 23 530 27 534 32 539 c 2
 88 596 l 2
 89 596 l 0xdf80
 104 611 135 637 169 637 c 0
 265 637 294 612 500 612 c 0xef80
 534 612 560 637 561 637 c 2
 578 620 l 1
 521 563 l 2
 521 563 520 562 517 560 c 2
 517 120 l 1
 460 63 l 1
 443 80 l 1
 443 530 l 1
 451 538 l 1
 407 538 372 540 342 542 c 1
 342 49 l 1
 372 41 405 37 440 37 c 0
 529 37 624 95 683 139 c 1
 683 580 l 1
 658 605 l 1
 715 662 l 1
 740 637 l 1
 757 620 l 1
 782 595 l 1
 757 570 l 1
 757 172 l 1
 759 170 l 1
 757 168 l 1
 757 45 l 1
 765 37 l 1
 815 87 l 1
 832 70 l 1
 725 -37 l 1
 700 -12 l 1
 683 5 l 1
 658 30 l 1
 683 55 l 1
 683 97 l 1
 637 58 514 -37 400 -37 c 0
 313 -37 243 -13 195 34 c 2
 178 51 l 2
 136 93 113 152 113 230 c 0
 113 364 171 447 215 491 c 2
 271 548 l 2
 272 548 l 1
 216 555 183 563 129 563 c 0
 101 563 75 546 58 531 c 2
 40 513 l 1xdf80
318 543 m 2
 316 543 313 544 311 544 c 2xef80
 280 513 l 1
 280 513 272 509 261 500 c 0
 224 452 187 378 187 270 c 0
 187 198 207 141 243 100 c 0
 264 81 290 66 318 56 c 1
 318 543 l 2
EndSplineSet
EndChar
StartChar: V
Encoding: 86 86 54
Width: 840
Flags: W
HStem: -37 21G<413 450> 113 74<174.073 228 252 322.644> 513 21G<23 58> 538 74<194.815 228> 563 49<252.792 281> 563 33<88 107.353> 617 20G<320.5 338 450 487 716.226 757>
VStem: 228 24<187 539> 353 74<270 520> 563 74<429.117 485.496> 653 74<261 349.645>
AnchorPoint: "blwmark" 450 0 basechar 0
AnchorPoint: "abvmark" 540 700 basechar 0
LayerCount: 2
Back
SplineSet
60 550 m 1
 60 550 101 600 149 600 c 3
 192 600 214 575 240 575 c 3
 274 575 300 600 301 600 c 1025
240 550 m 1
 240 175 l 1025
390 250 m 1
 390 540 l 1
 450 600 l 1025
120 100 m 17
 120 100 166 150 210 150 c 3
 449 150 450 0 450 0 c 1
 690 241.200195312 l 1
 690 378 l 1
 690 378 600 382.799804688 600 450 c 3
 600 516 720 600 720 600 c 1025
EndSplineSet
Fore
SplineSet
100 63 m 1xf3e0
 83 80 l 1
 83 80 84 81 86 83 c 2
 143 140 l 2
 155 152 192 186 228 187 c 1
 228 539 l 2
 225 539 223 538 220 538 c 0xf3e0
 194 538 172 563 129 563 c 0
 101 563 75 546 58 531 c 2
 40 513 l 1
 23 530 l 1
 23 530 27 534 32 539 c 2
 88 596 l 2
 89 596 l 0xe7e0
 104 611 135 637 169 637 c 0
 212 637 234 612 260 612 c 0
 294 612 320 637 321 637 c 2
 338 620 l 1
 281 563 l 2xebe0
 280 563 269 552 252 545 c 1
 252 186 l 1
 345 182 397 155 428 124 c 2
 446 107 l 0
 466 87 476 65 481 49 c 1
 653 221 l 1
 653 344 l 1
 637 347 614 354 598 370 c 2
 581 387 l 2
 580 387 l 0
 570 397 563 411 563 430 c 0
 563 462 590 497 619 526 c 2
 676 583 l 2
 677 584 l 2
 709 615 740 637 740 637 c 2
 757 620 l 1
 700 563 l 2xe7e0
 700 563 686 554 668 538 c 1
 651 516 637 492 637 470 c 0
 637 456 641 444 647 435 c 1
 673 417 710 415 710 415 c 1
 727 398 l 1
 727 261 l 1
 487 20 l 1
 430 -37 l 1
 413 -20 l 1
 413 -20 413 -17 412 -12 c 0
 410 2 404 31 380 59 c 1
 346 88 287 113 190 113 c 0
 156 113 121 84 107 70 c 2
 100 63 l 1xf3e0
370 213 m 1
 353 230 l 1
 353 520 l 1
 470 637 l 1
 487 620 l 1
 427 560 l 1
 427 270 l 1
 370 213 l 1
EndSplineSet
EndChar
StartChar: X
Encoding: 88 88 56
Width: 720
Flags: W
HStem: 263 74<455.193 533.134> 288 74<186.866 276.604> 503 21G<53 90 590 630> 617 20G<150 187 570 610>
AnchorPoint: "abvmark" 360 700 basechar 0
LayerCount: 2
Back
SplineSet
120 275 m 25
 120 275 187 325 240 325 c 27
 335 325 385 300 480 300 c 27
 533 300 600 350 600 350 c 1049
660 60 m 25
 600 0 l 17
 150 600 l 9
 90 540 l 1049
60 60 m 25
 120 0 l 17
 570 600 l 9
 630 540 l 1049
EndSplineSet
Fore
SplineSet
23 40 m 1xb0
 80 97 l 1
 132 45 l 1
 309 281 l 1
 282 285 254 288 220 288 c 0
 167 288 100 238 100 238 c 1
 83 255 l 1
 140 312 l 1
 140 312 207 362 260 362 c 0x70
 266 362 271 361 277 361 c 1
 128 561 l 1
 70 503 l 1
 53 520 l 1
 170 637 l 1
 187 620 l 1
 375 369 l 1
 533 580 l 1
 590 637 l 1
 667 560 l 1
 610 503 l 1
 558 555 l 1
 401 346 l 1
 431 341 462 337 500 337 c 0
 553 337 620 387 620 387 c 1
 637 370 l 1
 580 313 l 1
 580 313 513 263 460 263 c 0
 458 263 456 263 454 263 c 2
 622 39 l 1
 680 97 l 1
 697 80 l 1
 580 -37 l 1
 563 -20 l 1
 345 271 l 1
 157 20 l 1
 100 -37 l 1
 23 40 l 1xb0
EndSplineSet
EndChar
StartChar: Y
Encoding: 89 89 57
Width: 840
Flags: W
HStem: -187 74<126.534 474.64> -37 21G<413 450> 113 74<174.073 228 252 322.644> 513 21G<23 58> 538 74<194.815 228> 563 49<252.792 281> 563 33<88 107.353> 617 20G<320.5 338 450 487 665 705>
VStem: 228 24<187 539> 353 74<270 520> 653 74<-60 186 220 545>
AnchorPoint: "abvmark" 540 700 basechar 0
LayerCount: 2
Back
SplineSet
60 550 m 1
 60 550 101 600 149 600 c 3
 192 600 214 575 240 575 c 3
 274 575 300 600 301 600 c 1025
240 550 m 1
 240 175 l 1025
390 250 m 1
 390 540 l 1
 450 600 l 1025
120 100 m 17
 120 100 166 150 210 150 c 3
 449 150 450 0 450 0 c 1
 690 240 l 1025
60 -200 m 17
 60 -200 79 -150 300 -150 c 3
 494 -150 570 -200 570 -200 c 9
 690 -80 l 1
 690 575 l 1025
665 600 m 25
 715 550 l 1049
EndSplineSet
Fore
SplineSet
628 580 m 1xf5e0
 685 637 l 1
 710 612 l 1xf5e0
 727 595 l 1
 752 570 l 1
 727 545 l 1
 727 260 l 1
 727 -60 l 1
 550 -237 l 1
 550 -237 474 -187 280 -187 c 0
 132 -187 75 -209 53 -224 c 1
 40 -237 l 1
 23 -220 l 1
 23 -220 24 -218 28 -214 c 2
 84 -157 l 2
 97 -144 148 -113 320 -113 c 0
 514 -113 590 -163 590 -163 c 2
 590 -163 647 -106 653 -100 c 1
 653 186 l 1
 430 -37 l 1
 413 -20 l 1
 413 -20 413 20 380 59 c 1
 346 88 287 113 190 113 c 0
 156 113 121 84 107 70 c 2
 100 63 l 1
 83 80 l 1
 83 80 84 81 86 83 c 2
 143 140 l 2
 155 152 192 186 228 187 c 1
 228 539 l 2
 225 539 223 538 220 538 c 0xf9e0
 194 538 172 563 129 563 c 0
 101 563 75 546 58 531 c 2
 40 513 l 1
 23 530 l 1
 23 530 27 534 32 539 c 2
 88 596 l 2
 89 596 l 0xf3e0
 104 611 135 637 169 637 c 0
 212 637 234 612 260 612 c 0
 294 612 320 637 321 637 c 2
 338 620 l 1
 281 563 l 2
 280 563 269 552 252 545 c 1
 252 186 l 1
 345 182 397 155 428 124 c 2
 446 107 l 0
 466 87 476 64 481 48 c 1
 653 220 l 1
 653 555 l 1
 628 580 l 1xf5e0
370 213 m 1
 353 230 l 1
 353 520 l 1
 470 637 l 1
 487 620 l 1
 427 560 l 1
 427 270 l 1
 370 213 l 1
EndSplineSet
EndChar
StartChar: bracketleft
Encoding: 91 91 59
Width: 360
Flags: W
HStem: -187 74<157 280> 663 74<157 280>
VStem: 83 74<-113 663>
LayerCount: 2
Back
SplineSet
300 700 m 25
 120 700 l 25
 120 -150 l 25
 300 -150 l 1033
EndSplineSet
Fore
SplineSet
337 720 m 1
 280 663 l 1
 157 663 l 1
 157 -113 l 1
 320 -113 l 1
 337 -130 l 1
 280 -187 l 1
 100 -187 l 1
 83 -170 l 1
 83 680 l 1
 140 737 l 1
 320 737 l 1
 337 720 l 1
EndSplineSet
EndChar
StartChar: asciicircum
Encoding: 94 94 62
Width: 720
Flags: W
HStem: 617 20G<360 397>
LayerCount: 2
Back
SplineSet
120 300 m 25
 360 600 l 25
 600 300 l 1049
EndSplineSet
Fore
SplineSet
100 263 m 1
 83 280 l 1
 323 580 l 1
 380 637 l 1
 397 620 l 1
 637 320 l 1
 580 263 l 1
 563 280 l 1
 344 554 l 1
 157 320 l 1
 100 263 l 1
EndSplineSet
EndChar
StartChar: grave
Encoding: 96 96 64
Width: 480
Flags: W
HStem: 513 224
VStem: 113 254
LayerCount: 2
Back
SplineSet
150 700 m 17
 150 600 330 550 330 550 c 1049
EndSplineSet
Fore
SplineSet
170 737 m 1
 187 720 l 1
 187 696 198 675 213 657 c 0
 266 610 350 587 350 587 c 2
 367 570 l 1
 310 513 l 1
 310 513 217 539 165 591 c 0
 164 591 l 2
 147 608 l 2
 127 628 113 652 113 680 c 1
 170 737 l 1
EndSplineSet
EndChar
StartChar: e
Encoding: 101 101 69
Width: 420
Flags: W
HStem: 417 20G<240 290> 417 20G<240 290>
VStem: 83 74<134 260>
AnchorPoint: "blwmark" 240 0 basechar 0
AnchorPoint: "abvmark" 240 500 basechar 0
LayerCount: 2
Back
SplineSet
360 120 m 9
 240 0 l 25
 120 80 l 25
 120 280 l 25
 240 400 l 25
 360 320 l 1
 120 80 l 1025
EndSplineSet
Fore
SplineSet
157 134 m 1x20
 320 297 l 1
 220 363 l 1
 157 300 l 1
 157 134 l 1x20
160 103 m 1
 260 37 l 1
 380 157 l 1
 397 140 l 1
 220 -37 l 1
 100 43 l 1
 83 60 l 1
 83 260 l 1
 260 437 l 1xa0
 380 357 l 1
 397 340 l 1
 160 103 l 1
EndSplineSet
EndChar
StartChar: h
Encoding: 104 104 72
Width: 480
Flags: W
HStem: 417 20G<270 310> 417 20G<270 310>
VStem: 83 74<55 270 304 570> 323 74<55 328.03>
AnchorPoint: "blwmark" 240 0 basechar 0
AnchorPoint: "abvmark" 240 700 basechar 0
LayerCount: 2
Back
SplineSet
335 50 m 25
 385 0 l 1049
95 50 m 25
 145 0 l 1049
95 625 m 25
 145 575 l 1049
120 600 m 9
 120 25 l 1049
360 25 m 25
 360 310 l 25
 270 400 l 1
 120 250 l 1049
EndSplineSet
Fore
SplineSet
58 605 m 1xb0
 115 662 l 1
 140 637 l 1
 157 620 l 1
 182 595 l 1
 157 570 l 1
 157 304 l 1
 290 437 l 1
 397 330 l 1
 397 45 l 1
 422 20 l 1
 365 -37 l 1
 340 -12 l 1
 323 5 l 1
 298 30 l 1
 323 55 l 1
 323 290 l 2
 323 329 271 342 250 363 c 1
 157 270 l 1
 157 45 l 1
 182 20 l 1
 125 -37 l 1
 100 -12 l 1
 83 5 l 1
 58 30 l 1
 83 55 l 1
 83 230 l 1
 83 580 l 1
 58 605 l 1xb0
EndSplineSet
Substitution2: "Stylistic alternates-1" h.alt
EndChar
StartChar: i
Encoding: 105 105 73
Width: 240
Flags: W
HStem: 417 20G<95 135> 417 20G<95 135> 513 21G<88 125>
VStem: 83 74<55 345>
AnchorPoint: "blwmark" 120 0 basechar 0
LayerCount: 2
Back
SplineSet
125 650 m 25
 175 600 l 25
 125 550 l 1049
95 50 m 25
 145 0 l 25
 195 50 l 1049
145 350 m 25
 95 400 l 25
 45 350 l 1049
120 375 m 9
 120 25 l 1025
EndSplineSet
Fore
SplineSet
88 630 m 1x30
 145 687 l 1
 212 620 l 1
 105 513 l 1
 88 530 l 1
 138 580 l 1
 88 630 l 1x30
157 395 m 1
 182 370 l 1
 157 345 l 1
 157 45 l 1
 165 37 l 1
 215 87 l 1
 232 70 l 1
 125 -37 l 1
 100 -12 l 1
 83 5 l 1
 58 30 l 1
 83 55 l 1
 83 355 l 1
 75 363 l 1
 25 313 l 1
 8 330 l 1
 115 437 l 1xb0
 140 412 l 1
 157 395 l 1
EndSplineSet
Substitution2: "Dotless forms-1" dotlessi
EndChar
StartChar: k
Encoding: 107 107 75
Width: 480
Flags: W
HStem: 437 20G<335 375> 637 20G<95 135>
VStem: 83 74<60 199 247 565> 323 74<60 174>
AnchorPoint: "blwmark" 240 0 basechar 0
AnchorPoint: "abvmark" 240 700 basechar 0
LayerCount: 2
Back
SplineSet
335 420 m 25
 385 370 l 1049
95 620 m 25
 145 570 l 1049
95 620 m 25
 145 570 l 1049
120 200 m 1
 360 350 l 9
 360 395 l 1049
240 275 m 1
 360 200 l 1
 360 30 l 1025
335 55 m 25
 385 5 l 1049
95 55 m 25
 145 5 l 1049
95 620 m 25
 145 570 l 1049
120 595 m 9
 120 30 l 1049
EndSplineSet
Fore
SplineSet
298 400 m 1
 355 457 l 1
 380 432 l 1
 397 415 l 1
 422 390 l 1
 365 333 l 1
 363 336 l 1
 340 313 l 1
 299 287 l 1
 380 237 l 1
 397 220 l 1
 397 50 l 1
 422 25 l 1
 365 -32 l 1
 340 -7 l 1
 323 10 l 1
 298 35 l 1
 323 60 l 1
 323 174 l 1
 220 238 l 1
 157 199 l 1
 157 50 l 1
 182 25 l 1
 125 -32 l 1
 100 -7 l 1
 83 10 l 1
 58 35 l 1
 83 60 l 1
 83 180 l 1
 83 575 l 1
 58 600 l 1
 115 657 l 1
 140 632 l 1
 157 615 l 1
 182 590 l 1
 157 565 l 1
 157 247 l 1
 260 312 l 1
 323 351 l 1
 323 375 l 1
 298 400 l 1
EndSplineSet
EndChar
StartChar: n
Encoding: 110 110 78
Width: 480
Flags: W
HStem: 417 20G<95 135 270 310> 417 20G<95 135 270 310>
VStem: 83 74<55 270 304 345> 323 74<55 328.03>
AnchorPoint: "blwmark" 240 0 basechar 0
AnchorPoint: "abvmark" 240 500 basechar 0
LayerCount: 2
Back
SplineSet
335 50 m 25
 385 0 l 1049
360 25 m 1
 360 310 l 25
 270 400 l 1
 120 250 l 1049
95 50 m 25
 145 0 l 1049
145 350 m 25
 95 400 l 1049
120 375 m 9
 120 25 l 1025
EndSplineSet
Fore
SplineSet
157 395 m 1xb0
 182 370 l 1
 157 345 l 1
 157 304 l 1
 290 437 l 1
 397 330 l 1
 397 45 l 1
 422 20 l 1
 365 -37 l 1
 340 -12 l 1
 323 5 l 1
 298 30 l 1
 323 55 l 1
 323 290 l 2
 323 329 271 342 250 363 c 1
 157 270 l 1
 157 45 l 1
 182 20 l 1
 125 -37 l 1
 100 -12 l 1
 83 5 l 1
 58 30 l 1
 83 55 l 1
 83 230 l 1
 83 355 l 1
 58 380 l 1
 115 437 l 1
 140 412 l 1
 157 395 l 1xb0
EndSplineSet
Substitution2: "Stylistic alternates-1" n.alt
EndChar
StartChar: r
Encoding: 114 114 82
Width: 360
Flags: W
HStem: 417 20G<95 135 240 280> 417 20G<95 135 240 280>
VStem: 83 74<55 300 334 345>
AnchorPoint: "blwmark" 180 0 basechar 0
AnchorPoint: "abvmark" 180 500 basechar 0
LayerCount: 2
Back
SplineSet
300 340 m 25
 240 400 l 25
 120 280 l 1049
95 50 m 25
 145 0 l 1049
95 400 m 25
 145 350 l 1049
120 375 m 9
 120 25 l 1025
EndSplineSet
Fore
SplineSet
58 380 m 1xa0
 115 437 l 1
 140 412 l 1
 157 395 l 1
 182 370 l 1
 157 345 l 1
 157 334 l 1
 260 437 l 1
 337 360 l 1
 280 303 l 1
 220 363 l 1
 157 300 l 1
 157 45 l 1
 182 20 l 1
 125 -37 l 1
 100 -12 l 1
 83 5 l 1
 58 30 l 1
 83 55 l 1
 83 260 l 1
 83 355 l 1
 58 380 l 1xa0
EndSplineSet
EndChar
StartChar: s
Encoding: 115 115 83
Width: 480
Flags: W
HStem: 23 74<125.105 174.895> 303 74<291.556 354.337> 417 20G<240 277 410 457> 417 20G<240 277 410 457>
AnchorPoint: "blwmark" 240 0 basechar 0
AnchorPoint: "abvmark" 240 500 basechar 0
LayerCount: 2
Back
SplineSet
420 400 m 17
 420 400 358 340 330 340 c 24
 270 340 240 400 240 400 c 9
 120 280 l 1
 120 240 l 1
 360 160 l 1
 360 120 l 1
 240 0 l 17
 240 0 180 60 150 60 c 24
 120 60 60 0 60 0 c 1025
EndSplineSet
Fore
SplineSet
457 420 m 1xe0
 400 363 l 1
 400 363 338 303 310 303 c 0
 280 303 258 318 243 333 c 2
 226 350 l 2
 223 353 219 357 217 360 c 2
 157 300 l 1
 157 271 l 1
 380 197 l 1
 397 180 l 1
 397 140 l 1
 220 -37 l 1
 220 -37 160 23 130 23 c 0
 100 23 40 -37 40 -37 c 1
 23 -20 l 1
 80 37 l 1
 80 37 140 97 170 97 c 0
 200 97 260 37 260 37 c 1
 323 100 l 1
 323 129 l 1
 100 203 l 1
 83 220 l 1
 83 260 l 1
 260 437 l 1
 277 420 l 2
 277 420 281 411 291 399 c 0
 305 388 325 377 350 377 c 0
 378 377 440 437 440 437 c 1
 457 420 l 1xe0
EndSplineSet
EndChar
StartChar: u
Encoding: 117 117 85
Width: 480
Flags: W
HStem: 417 20G<95 135 335 375> 417 20G<95 135 335 375>
VStem: 83 74<71.9701 345> 323 74<50 96 130 345>
AnchorPoint: "blwmark" 240 0 basechar 0
AnchorPoint: "abvmark" 240 500 basechar 0
LayerCount: 2
Back
SplineSet
145 350 m 25
 95 400 l 1049
450 60 m 25
 390 0 l 1
 360 30 l 17
 360 375 l 1025
385 350 m 25
 335 400 l 1049
120 375 m 25
 120 90 l 1
 210 0 l 25
 360 150 l 1049
EndSplineSet
Fore
SplineSet
470 97 m 1xb0
 487 80 l 1
 370 -37 l 1
 323 10 l 1
 323 96 l 1
 190 -37 l 1
 83 70 l 1
 83 355 l 1
 58 380 l 1
 115 437 l 1
 140 412 l 1
 157 395 l 1
 182 370 l 1
 157 345 l 1
 157 110 l 2
 157 71 209 58 230 37 c 1
 323 130 l 1
 323 355 l 1
 298 380 l 1
 355 437 l 1
 380 412 l 1
 397 395 l 1
 422 370 l 1
 397 345 l 1
 397 170 l 1
 397 50 l 1
 410 37 l 1
 470 97 l 1xb0
EndSplineSet
EndChar
StartChar: v
Encoding: 118 118 86
Width: 480
Flags: W
HStem: 417 20G<95 135> 437 130G<95 135 385.5 403>
VStem: 83 74<100 345> 263 74<432.566 500.732> 323 74<140 346>
AnchorPoint: "blwmark" 240 0 basechar 0
LayerCount: 2
Back
SplineSet
145 350 m 25
 95 400 l 1049
120 375 m 25
 120 120 l 1
 240 0 l 25
 360 120 l 1
 360 370 l 17
 370 351 300 423 300 472 c 8
 300 523.5 363.5 550 366 550 c 1033
EndSplineSet
Fore
SplineSet
157 395 m 1xa8
 182 370 l 1
 157 345 l 1
 157 140 l 2
 157 84 230 67 260 37 c 1
 323 100 l 1
 323 346 l 1xa8
 316 353 l 2
 299 370 263 417 263 452 c 0
 263 473 274 489 286 502 c 2
 343 559 l 2
 362 577 385 587 386 587 c 2
 403 570 l 1
 346 513 l 2
 346 513 344 513 340 511 c 0
 339 507 337 499 337 492 c 0xb0
 337 464 360 427 378 405 c 1
 380 407 l 1
 397 390 l 2
 398 388 398 387 398 387 c 0
 397 386 398 387 397 386 c 2
 397 140 l 1
 220 -37 l 1
 83 100 l 1
 83 355 l 1
 58 380 l 1
 115 437 l 1
 140 412 l 1
 157 395 l 1xa8
EndSplineSet
Substitution2: "Dotless forms-1" v.alt
EndChar
StartChar: x
Encoding: 120 120 88
Width: 480
Flags: W
HStem: 188 74<148.156 201.872> 188 24<320 371> 417 20G<120 160 360 400> 417 20G<120 160 360 400>
AnchorPoint: "blwmark" 240 0 basechar 0
AnchorPoint: "abvmark" 240 500 basechar 0
LayerCount: 2
Back
SplineSet
90 175 m 25
 90 175 146 225 180 225 c 24
 233 225 247 175 300 175 c 24
 334 175 390 225 391 225 c 1049
240 280 m 9
 360 400 l 25
 420 340 l 1049
240 120 m 9
 360 0 l 1
 420 60 l 1049
60 340 m 25
 120 400 l 25
 240 280 l 25
 240 120 l 25
 120 0 l 25
 60 60 l 1049
EndSplineSet
Fore
SplineSet
40 303 m 1x80
 23 320 l 1
 140 437 l 1
 260 317 l 1
 380 437 l 1
 457 360 l 1
 400 303 l 1
 340 363 l 1
 277 300 l 1
 277 225 l 1
 289 218 302 212 320 212 c 0x60
 354 212 410 262 411 262 c 2x80
 428 245 l 1
 371 188 l 2x40
 370 188 314 138 280 138 c 0
 279 138 279 138 278 138 c 2
 380 37 l 1
 440 97 l 1
 457 80 l 1
 340 -37 l 1
 220 83 l 1
 100 -37 l 1
 23 40 l 1
 80 97 l 1
 140 37 l 1
 203 100 l 1
 203 175 l 1
 191 182 178 188 160 188 c 0x80
 126 188 70 138 70 138 c 1
 53 155 l 1
 110 212 l 1x40
 110 212 166 262 200 262 c 0
 201 262 201 262 202 262 c 2
 100 363 l 1
 40 303 l 1x80
EndSplineSet
EndChar
StartChar: y
Encoding: 121 121 89
Width: 480
Flags: W
HStem: -237 74<236.085 297.987> -187 74<112.36 182.207> 417 20G<95 135 335 375> 417 20G<95 135 335 375>
VStem: 83 74<140 345> 323 74<-130 66 100 345>
AnchorPoint: "abvmark" 240 500 basechar 0
LayerCount: 2
Back
SplineSet
145 350 m 25
 95 400 l 1049
385 350 m 25
 335 400 l 1049
60 -200 m 17
 60 -200 104 -150 150 -150 c 8
 168.5 -150 249 -200 270 -200 c 24
 292.5 -200 360 -150 360 -150 c 1
 360 375 l 1025
360 120 m 9
 240 0 l 25
 120 120 l 1
 120 375 l 1049
EndSplineSet
Fore
SplineSet
40 -237 m 1x8c
 23 -220 l 1
 23 -220 25 -217 28 -214 c 2
 85 -158 l 2
 85 -157 l 0
 99 -143 134 -113 170 -113 c 0x4c
 188 -113 269 -163 290 -163 c 0x8c
 297 -163 311 -157 323 -150 c 1
 323 66 l 1
 220 -37 l 1
 83 100 l 1
 83 355 l 1
 58 380 l 1
 115 437 l 1
 140 412 l 1
 157 395 l 1
 182 370 l 1
 157 345 l 1
 157 140 l 1
 260 37 l 1
 323 100 l 1
 323 355 l 1
 298 380 l 1
 355 437 l 1
 380 412 l 1
 397 395 l 1
 422 370 l 1
 397 345 l 1
 397 140 l 1
 397 -130 l 1
 340 -187 l 1x6c
 340 -187 272 -237 250 -237 c 0x8c
 229 -237 148 -187 130 -187 c 0x4c
 98 -187 68 -210 52 -225 c 2
 40 -237 l 1x8c
EndSplineSet
EndChar
StartChar: braceright
Encoding: 125 125 93
Width: 360
Flags: W
HStem: -187 21G<23 60>
VStem: 143 74<-10 160 380 620>
LayerCount: 2
Back
SplineSet
60 700 m 25
 180 650 l 1
 180 350 l 25
 300 300 l 25
 180 180 l 25
 180 -30 l 1
 60 -150 l 1049
EndSplineSet
Fore
SplineSet
23 680 m 1
 80 737 l 1
 200 687 l 1
 217 670 l 1
 217 380 l 1
 320 337 l 1
 337 320 l 1
 217 200 l 1
 217 -10 l 1
 40 -187 l 1
 23 -170 l 1
 143 -50 l 1
 143 160 l 1
 256 273 l 1
 160 313 l 1
 143 330 l 1
 143 620 l 1
 40 663 l 1
 23 680 l 1
EndSplineSet
EndChar
StartChar: currency
Encoding: 164 164 207
Width: 600
Flags: W
HStem: 438 21G<143 180> 438 21G<143 180> 517 20G<270 324.688> 617 20G<60 97 540 577>
VStem: 83 74<247 330> 443 74<270 353>
LayerCount: 2
Back
SplineSet
540 0 m 25
 420 125 l 1049
60 0 m 25
 180 125 l 1049
540 600 m 25
 420 475 l 1049
60 600 m 25
 180 475 l 1049
270 500 m 25
 120 350 l 25
 120 220 l 25
 330 100 l 25
 480 250 l 25
 480 380 l 25
 270 500 l 25
EndSplineSet
Fore
SplineSet
250 463 m 1x3c
 157 370 l 1
 157 247 l 1
 350 137 l 2
 350 137 434 221 443 230 c 1
 443 353 l 1
 250 463 l 1x3c
83 330 m 1
 290 537 l 1
 401 473 l 1
 503 580 l 1
 560 637 l 1
 577 620 l 1
 457 495 l 1
 423 461 l 1
 500 417 l 1
 517 400 l 1
 517 270 l 1
 310 63 l 1
 199 127 l 1
 97 20 l 1
 40 -37 l 1
 23 -20 l 1
 143 105 l 1
 177 139 l 1
 100 183 l 1
 83 200 l 1
 83 330 l 1
80 637 m 1
 97 620 l 1
 217 495 l 1
 160 438 l 1xbc
 143 455 l 1
 23 580 l 1
 80 637 l 1
520 -37 m 1
 503 -20 l 1
 383 105 l 1
 440 162 l 1
 457 145 l 1
 577 20 l 1
 520 -37 l 1
EndSplineSet
EndChar
StartChar: yen
Encoding: 165 165 204
Width: 780
Flags: W
HStem: -187 74<126.534 425.346> -37 74<373.43 533 607 665.747> -12 74<234.09 509.144> 513 21G<23 58> 563 33<88 107.353> 617 20G<540 580>
VStem: 203 74<295 547.079> 533 74<-60 -37 42 276 310 530>
LayerCount: 2
Back
SplineSet
60 550 m 1
 60 550 101 600 149 600 c 3
 192 600 196 575 240 575 c 1
 240 275 l 1025
120 200 m 17
 120 200 166 250 210 250 c 3
 372 250 390 150 390 150 c 1
 570 330 l 1025
60 -200 m 17
 60 -200 79 -150 300 -150 c 3
 529 -150 450 -200 450 -200 c 9
 570 -80 l 1
 570 570 l 1025
540 600 m 25
 600 540 l 1049
180 -25 m 17
 180 -25 228 25 270 25 c 27
 410 25 490 0 630 0 c 27
 672 0 720 50 720 50 c 1033
EndSplineSet
Fore
SplineSet
160 -62 m 1xbf
 143 -45 l 1
 143 -45 143 -45 144 -44 c 2
 201 13 l 2
 208 20 252 62 290 62 c 0xbf
 387 62 454 49 533 42 c 1
 533 276 l 1
 370 113 l 1
 353 130 l 1
 353 130 350 150 332 172 c 1
 306 194 262 213 190 213 c 0
 156 213 121 184 107 170 c 2
 100 163 l 1
 83 180 l 1
 83 180 84 181 86 183 c 2
 143 240 l 2
 152 249 176 271 203 281 c 1
 203 540 l 1
 174 545 166 563 129 563 c 0
 101 563 75 546 58 531 c 2
 40 513 l 1
 23 530 l 1
 23 530 27 534 32 539 c 2
 88 596 l 2
 89 596 l 0
 104 611 135 637 169 637 c 0
 212 637 216 612 260 612 c 1
 277 595 l 1
 277 295 l 1
 267 285 l 1
 325 279 359 258 380 237 c 2
 397 220 l 2
 406 211 413 202 417 194 c 1
 533 310 l 1
 533 550 l 1
 503 580 l 1
 560 637 l 1
 590 607 l 1
 607 590 l 1
 637 560 l 1
 607 530 l 1
 607 350 l 1
 607 38 l 1
 621 37 635 37 650 37 c 0
 687 37 728 75 737 84 c 2
 740 87 l 1
 757 70 l 2
 757 70 757 70 756 69 c 2
 699 12 l 2
 692 5 648 -37 610 -37 c 0
 609 -37 608 -37 607 -37 c 2xdf
 607 -60 l 1
 498 -169 l 2
 497 -171 495 -173 493 -175 c 2
 437 -231 l 2
 434 -234 430 -237 430 -237 c 1
 413 -220 l 1
 424 -209 l 2
 425 -207 426 -205 426 -202 c 0
 406 -194 363 -187 280 -187 c 0
 132 -187 75 -209 53 -224 c 1
 40 -237 l 1
 23 -220 l 1
 23 -220 24 -218 28 -214 c 2
 84 -157 l 2
 97 -144 148 -113 320 -113 c 0
 428 -113 467 -124 479 -136 c 2
 488 -145 l 1
 533 -100 l 1
 533 -34 l 1
 436 -28 362 -12 250 -12 c 0
 213 -12 173 -49 163 -59 c 2
 160 -62 l 1xbf
EndSplineSet
EndChar
StartChar: macron
Encoding: 175 175 227
Width: 480
Flags: W
HStem: 513 74<110 370>
LayerCount: 2
Back
SplineSet
90 550 m 1
 390 550 l 1049
EndSplineSet
Fore
SplineSet
53 530 m 1
 110 587 l 1
 410 587 l 1
 427 570 l 1
 370 513 l 1
 70 513 l 1
 53 530 l 1
EndSplineSet
EndChar
StartChar: plusminus
Encoding: 177 177 213
Width: 720
Flags: W
HStem: -12 74<140 580> 338 74<140 323 397 580> 592 20G<360 397>
VStem: 323 74<195 338 412 555>
LayerCount: 2
Back
SplineSet
120 25 m 25
 600 25 l 1049
360 575 m 25
 360 175 l 1049
120 375 m 25
 600 375 l 1049
EndSplineSet
Fore
SplineSet
83 355 m 1
 140 412 l 1
 323 412 l 1
 323 555 l 1
 380 612 l 1
 397 595 l 1
 397 412 l 1
 620 412 l 1
 637 395 l 1
 580 338 l 1
 397 338 l 1
 397 195 l 1
 340 138 l 1
 323 155 l 1
 323 338 l 1
 100 338 l 1
 83 355 l 1
83 5 m 1
 140 62 l 1
 620 62 l 1
 637 45 l 1
 580 -12 l 1
 100 -12 l 1
 83 5 l 1
EndSplineSet
EndChar
StartChar: acute
Encoding: 180 180 99
Width: 480
Flags: W
HStem: 488 249
VStem: 293 74<653.608 680>
LayerCount: 2
Back
SplineSet
330 700 m 17
 330 600 180 525 180 525 c 1049
EndSplineSet
Fore
SplineSet
350 737 m 1
 367 720 l 1
 367 680 343 644 314 615 c 2
 258 559 l 2
 257 558 l 2
 213 515 160 488 160 488 c 2
 143 505 l 1
 200 562 l 2
 200 562 230 577 265 604 c 1
 281 626 293 652 293 680 c 1
 350 737 l 1
EndSplineSet
EndChar
StartChar: periodcentered
Encoding: 183 183 212
Width: 360
Flags: W
HStem: 268 124
VStem: 118 124
LayerCount: 2
Back
SplineSet
155 355 m 25
 205 305 l 1049
EndSplineSet
Fore
SplineSet
118 335 m 1
 175 392 l 1
 242 325 l 1
 185 268 l 1
 118 335 l 1
EndSplineSet
EndChar
StartChar: ordmasculine
Encoding: 186 186 211
Width: 480
Flags: W
HStem: 163 74<80 400>
VStem: 83 74<400 560> 323 74<440 600>
LayerCount: 2
Back
SplineSet
240 700 m 25
 120 580 l 25
 120 420 l 25
 240 300 l 25
 360 420 l 25
 360 580 l 25
 240 700 l 25
60 200 m 25
 420 200 l 1049
EndSplineSet
Fore
SplineSet
23 180 m 1
 80 237 l 1
 440 237 l 1
 457 220 l 1
 400 163 l 1
 40 163 l 1
 23 180 l 1
220 663 m 1
 157 600 l 1
 157 440 l 2
 157 384 230 367 260 337 c 1
 323 400 l 1
 323 560 l 2
 323 616 250 633 220 663 c 1
83 560 m 1
 260 737 l 1
 397 600 l 1
 397 440 l 1
 220 263 l 1
 83 400 l 1
 83 560 l 1
EndSplineSet
EndChar
StartChar: guillemotright
Encoding: 187 187 216
Width: 660
Flags: W
LayerCount: 2
Back
SplineSet
390 325 m 17
 390 325 416.080078124 295.744140624 450 275 c 0
 564 207 600 200 600 200 c 1
 600 200 523 174 420 100 c 0
 394.849609376 81.732421875 360 50 360 50 c 1033
90 325 m 17
 90 325 116.080078125 295.744140624 150 275 c 0
 264 207 300 200 300 200 c 1
 300 200 223 174 120 100 c 0
 94.849609375 81.732421875 60 50 60 50 c 1033
EndSplineSet
Fore
SplineSet
110 362 m 1
 126 345 l 2
 137 335 153 323 170 312 c 0
 246 267 287 248 306 241 c 0
 316 237 320 237 320 237 c 1
 337 220 l 1
 280 163 l 1
 280 163 276 163 270 160 c 0
 246 151 181 121 100 63 c 0
 75 45 40 13 40 13 c 1
 23 30 l 1
 80 87 l 1
 80 87 115 119 140 137 c 0
 169 158 196 175 220 189 c 1
 198 200 168 215 130 238 c 0
 107 252 88 270 78 280 c 2
 61 297 l 2
 56 302 53 305 53 305 c 1
 110 362 l 1
410 362 m 1
 426 345 l 2
 437 335 453 323 470 312 c 0
 546 267 587 248 606 241 c 0
 616 237 620 237 620 237 c 1
 637 220 l 1
 580 163 l 1
 580 163 576 163 570 160 c 0
 546 151 481 121 400 63 c 0
 375 45 340 13 340 13 c 1
 323 30 l 1
 380 87 l 1
 380 87 415 119 440 137 c 0
 469 158 496 175 520 189 c 1
 498 200 468 215 430 238 c 0
 407 252 388 270 378 280 c 2
 361 297 l 2
 356 302 353 305 353 305 c 1
 410 362 l 1
EndSplineSet
EndChar
StartChar: questiondown
Encoding: 191 191 201
Width: 480
Flags: W
HStem: 417 20G<215 255> 417 20G<215 255>
VStem: 83 74<-119 -50> 203 74<70 185>
LayerCount: 2
Back
SplineSet
360 -50 m 25
 360 -110 l 25
 270 -200 l 25
 120 -150 l 25
 120 -30 l 25
 240 50 l 25
 240 205 l 1049
265 350 m 25
 215 400 l 1049
EndSplineSet
Fore
SplineSet
302 370 m 1xb0
 245 313 l 1
 178 380 l 1
 235 437 l 1
 302 370 l 1xb0
380 -13 m 1
 397 -30 l 1
 397 -90 l 1
 250 -237 l 1
 100 -187 l 1
 83 -170 l 1
 83 -50 l 1
 140 7 l 1
 203 49 l 1
 203 185 l 1
 260 242 l 1
 277 225 l 1
 277 70 l 1
 220 13 l 1
 157 -29 l 1
 157 -119 l 1
 290 -163 l 1
 323 -130 l 1
 323 -70 l 1
 380 -13 l 1
EndSplineSet
EndChar
StartChar: Oslash
Encoding: 216 216 182
Width: 960
Flags: W
HStem: -37 74<361.499 561.553> 455 21G<323 348> 562 75<551.067 627.466>
VStem: 113 74<202.144 379.225> 348 24<64 170 230 463 526 571> 474 74<120 275 316 336 377 530> 747 74<219.781 422.882>
AnchorPoint: "abvmark" 540 700 basechar 0
LayerCount: 2
Back
SplineSet
840 600 m 25
 120 0 l 1049
360 550 m 1
 360 100 l 1025
512 550 m 1
 510 100 l 1025
360 600 m 1
 360 600 150 480 150 300 c 3
 150 134 264 0 480 0 c 3
 623 0 784 142 784 300 c 3
 784 512 673 600 540 600 c 3
 436 600 360 492 360 492 c 1025
EndSplineSet
Fore
SplineSet
877 620 m 1
 820 563 l 1
 770 522 l 1
 802 474 821 408 821 320 c 0
 821 244 784 172 729 117 c 2
 672 60 l 2
 613 1 534 -37 460 -37 c 0
 351 -37 268 -2 212 53 c 0
 210 55 l 1
 100 -37 l 1
 83 -20 l 1
 140 37 l 1
 188 77 l 1
 138 130 113 202 113 280 c 0
 113 370 165 444 218 497 c 0
 218 498 l 2
 275 555 l 2
 327 607 380 637 380 637 c 1
 397 620 l 1
 367 590 l 1
 372 590 l 1
 372 526 l 1
 410 564 l 2
 442 596 496 637 560 637 c 0
 623 637 681 617 725 573 c 2
 742 556 l 2
 745 553 748 549 751 546 c 1
 860 637 l 1
 877 620 l 1
508 563 m 1
 466 559 428 538 400 517 c 0
 398 514 397 512 397 512 c 1
 372 487 l 1
 372 230 l 1
 474 316 l 1
 475 530 l 1
 508 563 l 1
549 562 m 1
 548 377 l 1
 688 494 l 1
 684 499 681 504 677 508 c 0
 641 540 597 557 549 562 c 1
348 571 m 1
 340 563 l 1
 340 563 305 544 265 509 c 1
 223 459 187 395 187 320 c 0
 187 248 209 181 251 129 c 1
 348 210 l 1
 348 463 l 1
 340 455 l 1
 323 472 l 2
 323 472 332 484 348 501 c 1
 348 571 l 1
348 64 m 1
 348 170 l 1
 273 107 l 1
 295 90 320 75 348 64 c 1
358 60 m 1
 399 45 446 37 500 37 c 0
 562 37 628 64 682 107 c 1
 722 157 747 217 747 280 c 0
 747 359 731 422 705 468 c 1
 548 336 l 1
 547 120 l 1
 490 63 l 1
 473 80 l 1
 474 275 l 1
 372 190 l 1
 372 60 l 1
 358 60 l 1
EndSplineSet
EndChar
StartChar: germandbls
Encoding: 223 223 131
Width: 600
Flags: W
HStem: -237 74<26.134 89.6482 390.002 422.513> -187 74<-97.6401 -27.2399> 303 74<267.87 376.101> 417 20G<187 247.333 420 460> 417 20G<187 247.333 420 460> 613 14<380 431>
VStem: 113 74<-130 -78 10.5577 347 424 510> 443 74<-130 73>
AnchorPoint: "abvmark" 360 750 basechar 0
LayerCount: 2
Back
SplineSet
180 400 m 1
 180 400 269 340 322 340 c 3
 411 340 420 400 420 400 c 1
 480 340 l 1
 300 200 l 1
 480 100 l 1
 480 -150 l 1
 480 -150 424.000360522 -200 390 -200 c 1
 311 -113 150 0 150 0 c 1025
-150 -200 m 17
 -150 -200 -106 -150 -60 -150 c 8
 -35 -150 33 -200 60 -200 c 24
 86 -200 150 -150 150 -150 c 1
 150 530 l 1
 270 650 l 17
 270 650 300 590 360 590 c 24
 388 590 450 650 451 650 c 1033
EndSplineSet
Fore
SplineSet
-170 -237 m 1xa7
 -187 -220 l 1
 -187 -220 -185 -217 -182 -214 c 2
 -125 -158 l 2
 -125 -157 l 0
 -111 -143 -76 -113 -40 -113 c 0x67
 -15 -113 53 -163 80 -163 c 0xa7
 88 -163 100 -158 113 -151 c 1
 113 -20 l 1
 113 510 l 1
 290 687 l 1
 307 670 l 1
 307 670 312 660 321 649 c 0
 336 637 355 627 380 627 c 0
 408 627 470 687 471 687 c 2
 488 670 l 1
 431 613 l 2
 430 613 368 553 340 553 c 0
 310 553 288 568 273 583 c 2
 256 600 l 2
 253 603 250 607 247 610 c 1
 187 550 l 1
 187 424 l 1
 200 437 l 1
 200 437 289 377 342 377 c 0
 360 377 374 379 386 383 c 1
 440 437 l 1
 517 360 l 1
 460 303 l 1
 352 219 l 1
 500 137 l 1
 517 120 l 1
 517 -130 l 1
 460 -187 l 1x77
 460 -187 404 -237 370 -237 c 1xa7
 353 -220 l 2
 352 -219 352 -218 351 -217 c 0
 348 -214 345 -211 342 -208 c 0
 294 -161 232 -112 187 -78 c 1
 187 -130 l 1
 130 -187 l 1x67
 130 -187 66 -237 40 -237 c 0xa7
 13 -237 -55 -187 -80 -187 c 0x67
 -112 -187 -142 -210 -158 -225 c 2
 -170 -237 l 1xa7
187 347 m 1
 187 25 l 1
 226 -3 325 -78 390 -143 c 2
 407 -160 l 2
 408 -161 410 -162 411 -163 c 0xa7
 421 -163 431 -159 443 -153 c 1
 443 73 l 1
 280 163 l 1
 263 180 l 1
 320 237 l 1
 436 327 l 1
 407 356 l 1
 382 330 l 2
 368 316 343 303 302 303 c 0
 267 303 217 329 187 347 c 1
EndSplineSet
EndChar
StartChar: ae
Encoding: 230 230 189
Width: 660
Flags: W
HStem: 183 74<238.765 323> 417 20G<210 350 480 530> 417 20G<210 350 480 530>
VStem: 83 74<110 140> 323 74<134 183 257 300 334 341>
AnchorPoint: "blwmark" 360 0 basechar 0
AnchorPoint: "abvmark" 360 500 basechar 0
LayerCount: 2
Back
SplineSet
150 220 m 17
 120 310 l 1
 210 400 l 1
 360 375 l 1
 360 150 l 9
 210 0 l 1
 120 90 l 1
 120 160 l 1
 210 250 l 1
 210 250 232.928594192 220 300 220 c 3
 280.995781714 220 360 220 360 220 c 1033
600 120 m 1
 480 0 l 1
 360 80 l 25
 360 280 l 25
 480 400 l 25
 600 320 l 1
 360 80 l 1025
EndSplineSet
Fore
SplineSet
397 134 m 1x98
 560 297 l 1
 460 363 l 1
 397 300 l 1
 397 170 l 1
 397 134 l 1x98
400 103 m 1
 500 37 l 1
 620 157 l 1
 637 140 l 1
 460 -37 l 1
 340 43 l 1
 323 60 l 1
 323 96 l 1
 190 -37 l 1
 83 70 l 1
 83 140 l 1
 128 185 l 1
 113 200 l 1
 83 290 l 1
 230 437 l 1
 380 412 l 1
 397 395 l 1
 397 334 l 1
 500 437 l 1xd8
 620 357 l 1
 637 340 l 1
 400 103 l 1
323 130 m 1
 323 183 l 1
 278 183 l 2
 225 184 200 204 193 211 c 0
 192 211 l 2
 190 213 l 1
 157 180 l 1
 157 110 l 1
 230 37 l 1
 323 130 l 1
323 260 m 1
 323 341 l 1
 190 363 l 1
 157 330 l 1
 186 243 l 1
 230 287 l 1
 235 282 l 2
 245 273 268 257 317 257 c 0
 317 257 319 257 323 257 c 2
 323 260 l 1
EndSplineSet
EndChar
StartChar: eth
Encoding: 240 240 181
Width: 480
Flags: W
HStem: 417 20G<240 279.688> 417 20G<240 279.688> 514 73<162.137 187 220 260>
VStem: 83 74<100 260 600.281 618.75> 323 74<140 260 373 482.295>
AnchorPoint: "blwmark" 240 0 basechar 0
AnchorPoint: "abvmark" 300 700 basechar 0
LayerCount: 2
Back
SplineSet
300 610 m 1
 140 450 l 1025
360 280 m 1
 240 400 l 25
 120 280 l 1
 120 120 l 25
 240 0 l 25
 360 120 l 1
 360 450 l 10
 360 510 293 550 240 550 c 0
 187 550 120 549 120 600 c 27
 120 633 180 670 169 650 c 1049
EndSplineSet
Fore
SplineSet
323 260 m 1x38
 220 363 l 1
 157 300 l 1
 157 140 l 2
 157 84 230 67 260 37 c 1
 323 100 l 1
 323 260 l 1x38
323 373 m 1
 323 430 l 2
 323 450 316 468 304 483 c 0
 280 502 248 513 220 513 c 1
 120 413 l 1
 103 430 l 1
 187 514 l 1
 157 515 126 519 111 534 c 2
 94 551 l 2
 87 558 83 567 83 580 c 0
 83 593 93 607 103 617 c 2
 159 673 l 2
 160 674 l 2
 173 687 187 695 190 692 c 2
 207 675 l 2
 208 674 207 673 206 670 c 2
 157 621 l 2
 157 620 l 0
 157 612 158 606 161 600 c 0
 185 587 226 587 260 587 c 1
 320 647 l 1
 337 630 l 1
 290 583 l 1
 313 577 335 565 352 548 c 2
 353 548 l 1
 370 531 l 2
 386 515 397 494 397 470 c 2
 397 140 l 1
 220 -37 l 1
 83 100 l 1
 83 260 l 1
 260 437 l 1xb8
 323 373 l 1
EndSplineSet
EndChar
StartChar: dcroat
Encoding: 273 273 319
Width: 480
Flags: W
HStem: 417 20G<240 279.688> 437 45G<240 279.688 450 487> 513 74<162.137 292.21>
VStem: 83 74<115 155 189 260 600.281 618.75> 323 74<140 260 373 395 429 482.295>
AnchorPoint: "blwmark" 240 0 basechar 0
AnchorPoint: "abvmark" 300 700 basechar 0
LayerCount: 2
Back
SplineSet
450 465 m 1
 60 75 l 1025
360 280 m 1
 240 400 l 25
 120 280 l 1
 120 120 l 25
 240 0 l 25
 360 120 l 1
 360 450 l 10
 360 510 293 550 240 550 c 0
 187 550 120 549 120 600 c 27
 120 633 180 670 169 650 c 1049
EndSplineSet
Fore
SplineSet
323 373 m 1xb8
 323 430 l 2
 323 450 316 468 304 483 c 0
 280 502 248 513 220 513 c 0
 180 513 132 513 111 534 c 2
 94 551 l 2
 87 558 83 567 83 580 c 0
 83 593 93 607 103 617 c 2
 159 673 l 2
 160 674 l 2
 173 687 187 695 190 692 c 2
 207 675 l 2
 208 674 207 673 206 670 c 2
 157 621 l 2
 157 620 l 0
 157 612 158 606 161 600 c 0
 185 587 226 587 260 587 c 0
 292 587 328 572 352 548 c 2
 353 548 l 1
 370 531 l 2
 386 515 397 494 397 470 c 2
 397 429 l 1
 470 502 l 1
 487 485 l 1
 397 395 l 1
 397 140 l 1
 220 -37 l 1
 93 91 l 1
 40 38 l 1
 23 55 l 1
 83 115 l 1
 83 260 l 1
 260 437 l 1
 323 373 l 1xb8
276 308 m 1
 220 363 l 1
 157 300 l 1
 157 189 l 1
 276 308 l 1
293 291 m 1
 157 155 l 1
 157 140 l 2
 157 84 230 67 260 37 c 1
 323 100 l 1
 323 260 l 1
 293 291 l 1
EndSplineSet
EndChar
StartChar: hbar
Encoding: 295 295 964
Width: 480
Flags: W
HStem: 417 20G<270 310> 417 20G<270 310> 438 74<50 83 157 220>
VStem: 83 74<55 270 304 438 512 570> 323 74<55 328.03>
AnchorPoint: "abvmark" 240 700 basechar 0
AnchorPoint: "blwmark" 240 0 basechar 0
LayerCount: 2
Back
SplineSet
335 50 m 25
 385 0 l 1049
95 50 m 25
 145 0 l 1049
95 625 m 25
 145 575 l 1049
120 600 m 9
 120 25 l 1049
360 25 m 25
 360 310 l 25
 270 400 l 1
 120 250 l 1049
240 475 m 25
 30 475 l 1049
EndSplineSet
Fore
SplineSet
277 495 m 1xb8
 220 438 l 1
 157 438 l 1
 157 304 l 1
 290 437 l 1
 397 330 l 1
 397 45 l 1
 422 20 l 1
 365 -37 l 1
 340 -12 l 1
 323 5 l 1
 298 30 l 1
 323 55 l 1
 323 290 l 2
 323 329 271 342 250 363 c 1
 157 270 l 1
 157 45 l 1
 182 20 l 1
 125 -37 l 1
 100 -12 l 1
 83 5 l 1
 58 30 l 1
 83 55 l 1
 83 230 l 1
 83 438 l 1
 10 438 l 1
 -7 455 l 1
 50 512 l 1
 83 512 l 1
 83 580 l 1
 58 605 l 1
 115 662 l 1
 140 637 l 1
 157 620 l 1
 182 595 l 1
 157 570 l 1
 157 512 l 1
 260 512 l 1
 277 495 l 1xb8
EndSplineSet
EndChar
StartChar: dotlessi
Encoding: 305 305 97
Width: 240
Flags: W
HStem: 417 20G<95 135> 417 20G<95 135>
VStem: 83 74<55 345>
AnchorPoint: "blwmark" 120 0 basechar 0
AnchorPoint: "abvmark" 120 500 basechar 0
LayerCount: 2
Back
SplineSet
95 50 m 25
 145 0 l 25
 195 50 l 1049
145 350 m 25
 95 400 l 25
 45 350 l 1049
120 375 m 9
 120 25 l 1025
EndSplineSet
Fore
SplineSet
157 395 m 1xa0
 182 370 l 1
 157 345 l 1
 157 45 l 1
 165 37 l 1
 215 87 l 1
 232 70 l 1
 125 -37 l 1
 100 -12 l 1
 83 5 l 1
 58 30 l 1
 83 55 l 1
 83 355 l 1
 75 363 l 1
 25 313 l 1
 8 330 l 1
 115 437 l 1
 140 412 l 1
 157 395 l 1xa0
EndSplineSet
EndChar
StartChar: lslash
Encoding: 322 322 291
Width: 240
Flags: W
HStem: 447 20G<210 247>
VStem: 83 74<55 286 320 360 394 570>
LayerCount: 2
Back
SplineSet
210 430 m 25
 30 250 l 1049
95 50 m 25
 145 0 l 25
 195 50 l 1049
95 625 m 25
 145 575 l 1049
120 600 m 9
 120 25 l 1049
EndSplineSet
Fore
SplineSet
58 605 m 1
 115 662 l 1
 140 637 l 1
 157 620 l 1
 182 595 l 1
 157 570 l 1
 157 394 l 1
 230 467 l 1
 247 450 l 1
 157 360 l 1
 157 45 l 1
 165 37 l 1
 215 87 l 1
 232 70 l 1
 125 -37 l 1
 100 -12 l 1
 83 5 l 1
 58 30 l 1
 83 55 l 1
 83 286 l 1
 10 213 l 1
 -7 230 l 1
 83 320 l 1
 83 580 l 1
 58 605 l 1
EndSplineSet
EndChar
StartChar: eng
Encoding: 331 331 600
Width: 480
Flags: W
HStem: -237 74<231.188 302.852> -187 74<112.655 179.118>
VStem: 83 74<55 264 298 339> 323 74<-130 284>
AnchorPoint: "abvmark" 240 500 basechar 0
LayerCount: 2
Back
SplineSet
120 244 m 25
 270 394 l 1
 360 304 l 1
 360 -150 l 1
 360 -150 304 -200 270 -200 c 0
 232 -200 175 -150 150 -150 c 16
 104 -150 60 -200 60 -200 c 1033
95 50 m 25
 145 0 l 1049
145 344 m 25
 95 394 l 1049
120 369 m 9
 120 25 l 1025
EndSplineSet
Fore
SplineSet
157 389 m 1xb0
 182 364 l 1
 157 339 l 1
 157 298 l 1
 290 431 l 1
 397 324 l 1
 397 -130 l 1
 340 -187 l 1x70
 340 -187 284 -237 250 -237 c 0xb0
 212 -237 155 -187 130 -187 c 0x70
 98 -187 68 -211 52 -225 c 2
 40 -237 l 1xb0
 23 -220 l 1
 23 -220 25 -217 28 -214 c 2
 85 -158 l 2
 98 -145 133 -113 170 -113 c 0x70
 195 -113 252 -163 290 -163 c 0
 300 -163 311 -159 323 -153 c 1
 323 284 l 1
 250 357 l 1
 157 264 l 1
 157 45 l 1
 182 20 l 1
 125 -37 l 1
 100 -12 l 1
 83 5 l 1
 58 30 l 1
 83 55 l 1
 83 224 l 1
 83 349 l 1
 58 374 l 1
 115 431 l 1
 140 406 l 1
 157 389 l 1xb0
EndSplineSet
EndChar
StartChar: OE
Encoding: 338 338 116
Width: 1500
Flags: W
HStem: -37 74<331.499 531.553 961.499 1160.77> 263 74<1235 1298.37> 313 74<1166.78 1225> 455 21G<293 318 923 948> 513 74<1234.63 1302.51> 517 20G<1110 1147> 563 74<521.067 595.491 1098.03 1175.87>
VStem: 83 74<201.2 379.225> 318 24<64 463 526 571> 443 74<120 530> 713 78<192.222 428.5> 948 24<64 462 521 571> 1073 74<120 311.543 351 480>
AnchorPoint: "blwmark" 720 0 basechar 0
AnchorPoint: "abvmark" 780 700 basechar 0
LayerCount: 2
Back
SplineSet
1110 300 m 25
 1110 300 1166 350 1200 350 c 27
 1242 350 1218 300 1260 300 c 3
 1309 300 1350 350 1351 350 c 1049
960 550 m 1
 960 100 l 1025
1110 500 m 1
 1110 100 l 1025
960 600 m 1
 960 600 750 480 750 300 c 3
 750 134 864 0 1080 0 c 3
 1223 0 1381 150 1382 150 c 1025
960 492 m 1
 960 492 1074 600 1146 600 c 3
 1223 600 1190 550 1260 550 c 3
 1318 550 1350 600 1351 600 c 1025
330 550 m 1
 330 100 l 1025
482 550 m 1
 480 100 l 1025
330 600 m 1
 330 600 120 480 120 300 c 3
 120 134 234 0 450 0 c 3
 593 0 754 142 754 300 c 3
 754 512 643 600 510 600 c 3
 406 600 330 492 330 492 c 1025
EndSplineSet
Fore
SplineSet
1130 537 m 1xb5f8
 1147 520 l 1
 1147 351 l 1
 1166 366 1198 387 1220 387 c 0xb5f8
 1230 387 1236 384 1240 380 c 2
 1257 363 l 2
 1263 357 1266 346 1269 338 c 0
 1272 337 1276 337 1280 337 c 0xd1f8
 1314 337 1343 360 1359 375 c 2
 1370 386 l 2
 1371 387 l 2xb1f8
 1388 370 l 1
 1385 367 l 2
 1384 366 1382 364 1381 363 c 2
 1325 307 l 2
 1311 293 1278 263 1240 263 c 0xd1f8
 1230 263 1225 266 1220 270 c 0
 1203 287 l 2
 1197 293 1195 303 1191 312 c 0
 1189 313 1184 313 1180 313 c 0
 1170 313 1159 309 1147 303 c 1
 1147 120 l 1
 1090 63 l 1
 1073 80 l 1
 1073 280 l 1
 1073 480 l 1
 1130 537 l 1xb5f8
478 563 m 1x97f8
 436 559 398 538 370 517 c 0
 368 514 367 512 367 512 c 1
 342 487 l 1
 342 60 l 1
 328 60 l 1
 369 45 416 37 470 37 c 0
 532 37 598 64 652 107 c 1
 685 148 708 197 715 247 c 0
 714 258 713 269 713 280 c 0
 713 292 714 304 716 316 c 0
 710 402 685 466 647 508 c 1
 611 540 567 557 519 562 c 1
 517 120 l 1
 460 63 l 1
 443 80 l 1
 445 530 l 1
 478 563 l 1x97f8
318 571 m 1
 310 563 l 1
 310 563 275 544 235 509 c 1
 193 459 157 395 157 320 c 0
 157 242 181 171 230 118 c 0
 254 96 284 78 318 64 c 1
 318 463 l 1
 310 455 l 1
 293 472 l 2
 293 472 302 484 318 501 c 1
 318 571 l 1
342 526 m 1
 380 564 l 2
 412 596 466 637 530 637 c 0
 593 637 651 617 695 573 c 2
 712 556 l 2
 739 529 760 493 774 447 c 1
 788 465 803 482 818 497 c 0
 818 498 l 2
 875 555 l 2
 927 607 980 637 980 637 c 1
 997 620 l 1
 967 590 l 1
 972 590 l 1
 972 521 l 1
 980 529 l 1
 980 529 1094 637 1166 637 c 0x93f8
 1196 637 1209 629 1218 620 c 2
 1235 603 l 2
 1237 601 1240 597 1242 595 c 0
 1250 590 1261 587 1280 587 c 0x99f8
 1307 587 1328 598 1343 609 c 2
 1371 637 l 2x93f8
 1388 620 l 2
 1386 618 1381 611 1374 604 c 2
 1318 548 l 2
 1303 533 1276 513 1240 513 c 0x99f8
 1215 513 1204 519 1195 528 c 2
 1177 545 l 2
 1175 547 1173 550 1171 553 c 0
 1162 559 1148 563 1126 563 c 0
 1078 563 1011 515 972 483 c 1
 972 60 l 1
 958 60 l 1
 999 45 1046 37 1100 37 c 0
 1243 37 1401 187 1402 187 c 2
 1419 170 l 1
 1362 113 l 2
 1361 113 1203 -37 1060 -37 c 0
 951 -37 868 -2 812 53 c 2
 795 70 l 2
 769 96 750 126 736 160 c 1
 725 145 712 130 699 117 c 2
 642 60 l 2
 583 1 504 -37 430 -37 c 0
 321 -37 238 -2 182 53 c 0
 165 70 l 2
 111 124 83 198 83 280 c 0
 83 370 135 444 188 497 c 0
 188 498 l 2
 245 555 l 2
 297 607 350 637 350 637 c 1
 367 620 l 1
 337 590 l 1
 342 590 l 1
 342 526 l 1
788 286 m 0
 794 222 819 163 860 118 c 0
 884 96 914 78 948 64 c 1
 948 462 l 1
 943 458 940 455 940 455 c 1
 923 472 l 1
 948 497 l 1
 948 571 l 1
 940 563 l 1
 940 563 905 544 865 509 c 1
 830 467 799 415 790 356 c 0
 791 344 791 333 791 320 c 0
 791 309 790 297 788 286 c 0
EndSplineSet
EndChar
StartChar: longs
Encoding: 383 383 95
Width: 360
Flags: W
HStem: -237 74<26.134 89.6482> -187 74<-97.6401 -27.2399> 613 14<380 431>
VStem: 113 74<-130 510>
AnchorPoint: "abvmark" 210 700 basechar 0
LayerCount: 2
Back
SplineSet
-150 -200 m 17
 -150 -200 -106 -150 -60 -150 c 8
 -35 -150 33 -200 60 -200 c 24
 86 -200 150 -150 150 -150 c 1
 150 530 l 1
 270 650 l 17
 270 650 300 590 360 590 c 24
 388 590 450 650 451 650 c 1033
EndSplineSet
Fore
SplineSet
-170 -237 m 1xb0
 -187 -220 l 1
 -187 -220 -185 -217 -182 -214 c 2
 -125 -158 l 2
 -125 -157 l 0
 -111 -143 -76 -113 -40 -113 c 0x70
 -15 -113 53 -163 80 -163 c 0xb0
 88 -163 100 -158 113 -151 c 1
 113 510 l 1
 290 687 l 1
 307 670 l 1
 307 670 312 660 321 649 c 0
 336 637 355 627 380 627 c 0
 408 627 470 687 471 687 c 2
 488 670 l 1
 431 613 l 2
 430 613 368 553 340 553 c 0
 310 553 288 568 273 583 c 2
 256 600 l 2
 253 603 250 607 247 610 c 1
 187 550 l 1
 187 -130 l 1
 130 -187 l 1x70
 130 -187 66 -237 40 -237 c 0xb0
 13 -237 -55 -187 -80 -187 c 0x70
 -112 -187 -142 -210 -158 -225 c 2
 -170 -237 l 1xb0
EndSplineSet
EndChar
StartChar: florin
Encoding: 402 402 260
Width: 480
Flags: W
HStem: -237 74<24.611 95.07> -187 74<-97.6401 -24.611> 363 74<140 207 287 400> 553 74<449.683 509.633>
LayerCount: 2
Back
SplineSet
-150 -200 m 17
 -150 -200 -106 -150 -60 -150 c 8
 -9 -150 9 -200 60 -200 c 24
 100 -200 150 -150 150 -150 c 1
 270 530 l 1
 390 650 l 17
 390 650 438 590 480 590 c 24
 522 590 570 650 571 650 c 1033
120 400 m 25
 420 400 l 1049
EndSplineSet
Fore
SplineSet
83 380 m 1xb0
 140 437 l 1
 220 437 l 1
 233 510 l 1
 410 687 l 1
 427 670 l 1
 427 670 430 666 435 661 c 0
 453 645 477 627 500 627 c 0
 521 627 544 643 561 657 c 2
 590 686 l 2
 591 687 l 2
 608 670 l 1
 606 668 l 2
 604 666 600 661 593 654 c 2
 592 653 l 2
 535 597 l 2
 517 579 487 553 460 553 c 0
 433 553 405 577 387 595 c 2
 369 612 l 1
 307 550 l 1
 287 437 l 1
 440 437 l 1
 457 420 l 1
 400 363 l 1
 274 363 l 1
 187 -130 l 1
 130 -187 l 1x70
 130 -187 80 -237 40 -237 c 0xb0
 -11 -237 -29 -187 -80 -187 c 0x70
 -112 -187 -142 -210 -158 -225 c 2
 -170 -237 l 1xb0
 -187 -220 l 1
 -187 -220 -185 -217 -182 -214 c 2
 -125 -158 l 2
 -125 -157 l 0
 -111 -143 -76 -113 -40 -113 c 0x70
 11 -113 29 -163 80 -163 c 0
 92 -163 104 -159 116 -153 c 1
 207 363 l 1
 100 363 l 1
 83 380 l 1xb0
EndSplineSet
EndChar
StartChar: wynn
Encoding: 447 447 877
Width: 480
Flags: W
HStem: -187 21G<83 120> 417 20G<95 135 240 280> 417 20G<95 135 240 280>
VStem: 83 74<-130 -44 -10 30 64 300 334 345> 323 74<270 300>
AnchorPoint: "abvmark" 240 500 basechar 0
LayerCount: 2
Back
SplineSet
60 -50 m 9
 360 250 l 1
 360 280 l 25
 240 400 l 1
 120 280 l 1049
95 400 m 25
 145 350 l 1049
120 375 m 1
 120 -150 l 1025
EndSplineSet
Fore
SplineSet
58 380 m 1xd8
 115 437 l 1
 140 412 l 1
 157 395 l 1
 182 370 l 1
 157 345 l 1
 157 334 l 1
 260 437 l 1
 397 300 l 1
 397 270 l 1
 157 30 l 1
 157 -130 l 1
 100 -187 l 1
 83 -170 l 1
 83 -44 l 1
 40 -87 l 1
 23 -70 l 1
 83 -10 l 1
 83 260 l 1
 83 355 l 1
 58 380 l 1xd8
157 300 m 1
 157 64 l 1
 323 230 l 1
 323 260 l 2
 323 316 250 333 220 363 c 1
 157 300 l 1
EndSplineSet
EndChar
StartChar: HV
Encoding: 502 502 513
Width: 1080
Flags: W
HStem: -37 21G<23 55 296 330 700 750> 13 74<114.897 227.259> 513 21G<23 58> 538 74<194.815 228> 563 49<252.792 281> 563 33<88 107.353> 617 20G<320.5 338 450 487 956.226 997>
VStem: 228 24<86 539> 353 74<80 192 219 520> 623 74<85 295> 803 74<429.117 485.496> 893 74<201 349.645>
AnchorPoint: "blwmark" 570 0 basechar 0
AnchorPoint: "abvmark" 600 700 basechar 0
LayerCount: 2
Back
SplineSet
60 550 m 1
 60 550 101 600 149 600 c 3
 192 600 214 575 240 575 c 3
 274 575 300 600 301 600 c 1025
240 550 m 1
 240 75 l 1025
450 225 m 1
 600 375 l 1
 660 315 l 1
 660 60 l 1
 750 0 l 1
 930 181.200195312 l 1
 930 378 l 1
 930 378 840 382.799804688 840 450 c 3
 840 516 960 600 960 600 c 1025
450 600 m 1
 390 540 l 1
 390 60 l 1
 330 0 l 1
 330 0 298 50 180 50 c 3
 97 50 60 0 60 0 c 1033
EndSplineSet
Fore
SplineSet
470 637 m 1xebf0
 487 620 l 1
 427 560 l 1
 427 219 l 1
 620 412 l 1
 697 335 l 1
 697 85 l 1
 770 37 l 1
 893 161 l 1
 893 344 l 1
 877 347 854 354 838 370 c 2
 821 387 l 2
 820 387 l 0
 810 397 803 411 803 430 c 0
 803 462 830 497 859 526 c 2
 916 583 l 2
 917 584 l 2
 949 615 980 637 980 637 c 2
 997 620 l 1
 940 563 l 2xe7f0
 940 563 926 554 908 538 c 1
 891 516 877 492 877 470 c 0
 877 456 881 444 887 435 c 1
 913 417 950 415 950 415 c 1
 967 398 l 1
 967 201 l 1
 787 20 l 1
 730 -37 l 1
 640 23 l 1
 623 40 l 1
 623 295 l 1
 580 338 l 1
 430 188 l 1
 427 192 l 1
 427 80 l 1
 310 -37 l 1
 296 -23 l 2
 277 -8 237 13 160 13 c 0
 106 13 72 -8 55 -22 c 2
 40 -37 l 1
 23 -20 l 2
 23 -20 25 -17 29 -13 c 2
 30 -13 l 2
 86 44 l 2
 100 58 137 87 200 87 c 0
 210 87 219 87 228 86 c 1
 228 539 l 2
 225 539 223 538 220 538 c 0xf3f0
 194 538 172 563 129 563 c 0
 101 563 75 546 58 531 c 2
 40 513 l 1
 23 530 l 1
 23 530 27 534 32 539 c 2
 88 596 l 2
 89 596 l 0xe7f0
 104 611 135 637 169 637 c 0
 212 637 234 612 260 612 c 0
 294 612 320 637 321 637 c 2
 338 620 l 1
 281 563 l 2
 280 563 269 552 252 545 c 1
 252 83 l 1
 306 75 333 55 344 44 c 2
 350 37 l 1
 353 40 l 1
 353 520 l 1
 470 637 l 1xebf0
EndSplineSet
EndChar
StartChar: ascript
Encoding: 593 593 348
Width: 480
Flags: W
HStem: 315 74<272.5 320.938> 417 20G<240 277 360 397> 417 20G<240 277 360 397>
VStem: 83 74<71.9701 260> 323 74<50 96 130 339>
AnchorPoint: "blwmark" 240 0 basechar 0
AnchorPoint: "abvmark" 270 500 basechar 0
LayerCount: 2
Back
SplineSet
450 60 m 25
 390 0 l 1
 360 30 l 1
 360 400 l 1
 360 400 334 352 300 352 c 0
 266 352 240 400 240 400 c 9
 120 280 l 1
 120 90 l 17
 210 0 l 1
 360 150 l 1049
EndSplineSet
Fore
SplineSet
323 339 m 1x98
 319 335 l 2
 309 325 295 315 280 315 c 0
 265 315 252 325 242 335 c 2
 225 352 l 2
 224 352 l 0
 221 355 219 358 217 360 c 2
 157 300 l 1
 157 110 l 2
 157 71 209 58 230 37 c 1
 323 130 l 1
 323 339 l 1x98
323 96 m 1
 190 -37 l 1
 83 70 l 1
 83 260 l 1
 260 437 l 1
 277 420 l 2
 277 420 282 411 290 401 c 0
 298 395 309 389 320 389 c 0
 325 389 330 390 335 392 c 2
 380 437 l 1xd8
 397 420 l 1
 397 50 l 1
 410 37 l 1
 470 97 l 1
 487 80 l 1
 370 -37 l 1
 323 10 l 1
 323 96 l 1
EndSplineSet
EndChar
StartChar: Rsmallcap
Encoding: 640 640 854
Width: 540
Flags: W
HStem: 417 20G<95 135 240 296> 417 20G<95 135 240 296>
VStem: 83 74<55 300 334 345>
AnchorPoint: "blwmark" 270 0 basechar 0
AnchorPoint: "abvmark" 240 500 basechar 0
LayerCount: 2
Back
SplineSet
95 50 m 25
 145 0 l 1049
95 400 m 25
 145 350 l 1049
120 375 m 9
 120 25 l 1025
480 60 m 25
 420 0 l 1
 420 0 399 85 360 125 c 24
 337 149 270 150 270 150 c 1025
240 120 m 1
 420 300 l 1
 240 400 l 1
 120 280 l 1049
EndSplineSet
Fore
SplineSet
220 83 m 1xa0
 203 100 l 1
 290 187 l 1
 378 275 l 1
 220 363 l 2
 220 363 163 306 157 300 c 1
 157 45 l 1
 182 20 l 1
 125 -37 l 1
 100 -12 l 1
 83 5 l 1
 58 30 l 1
 83 55 l 1
 83 260 l 1
 83 355 l 1
 58 380 l 1
 115 437 l 1
 140 412 l 1
 157 395 l 1
 182 370 l 1
 157 345 l 1
 157 334 l 1
 260 437 l 1
 440 337 l 1
 457 320 l 1
 321 184 l 1
 341 181 366 175 379 163 c 0
 379 162 l 2
 396 145 l 2
 397 145 l 0
 422 119 439 75 449 46 c 1
 500 97 l 1
 517 80 l 1
 400 -37 l 1
 383 -20 l 1
 383 -20 365 53 332 95 c 1
 304 113 250 113 250 113 c 2
 220 83 l 1xa0
EndSplineSet
EndChar
StartChar: caron
Encoding: 711 711 245
Width: 480
Flags: W
HStem: 488 249
VStem: 203 74<545 579.945>
LayerCount: 2
Back
SplineSet
120 700 m 25
 120 700 240 625 240 525 c 1
 240 675 360 700 360 700 c 1025
EndSplineSet
Fore
SplineSet
83 680 m 1
 140 737 l 1
 140 737 167 720 195 692 c 2
 213 674 l 0
 225 662 237 648 247 633 c 1
 249 635 251 637 253 639 c 2
 309 696 l 2
 342 729 380 737 380 737 c 1
 397 720 l 1
 340 663 l 2
 340 663 323 660 302 647 c 0
 298 640 293 631 290 622 c 0
 282 601 277 576 277 545 c 1
 220 488 l 1
 203 505 l 1
 203 522 200 538 194 553 c 0
 184 581 166 606 147 626 c 0
 122 649 100 663 100 663 c 1
 83 680 l 1
EndSplineSet
EndChar
StartChar: breve
Encoding: 728 728 265
Width: 480
Flags: W
HStem: 488 74<187.963 308.055> 617 20G<120 157 390 427>
LayerCount: 2
Back
SplineSet
120 600 m 17
 120 600 137.55499552 525 270 525 c 3
 324 525 390 600 390 600 c 1033
EndSplineSet
Fore
SplineSet
140 637 m 1
 157 620 l 1
 157 620 160 608 170 595 c 0
 192 578 229 562 290 562 c 0
 324 562 362 591 386 613 c 2
 410 637 l 1
 427 620 l 1
 427 620 423 615 416 608 c 2
 359 552 l 2
 338 531 291 488 250 488 c 0
 179 488 141 510 121 530 c 2
 104 547 l 2
 87 564 83 580 83 580 c 1
 140 637 l 1
EndSplineSet
EndChar
StartChar: dotaccent
Encoding: 729 729 269
Width: 480
Flags: W
HStem: 518 124
VStem: 178 124
LayerCount: 2
Back
SplineSet
215 605 m 25
 265 555 l 1049
EndSplineSet
Fore
SplineSet
178 585 m 1
 235 642 l 1
 302 575 l 1
 245 518 l 1
 178 585 l 1
EndSplineSet
EndChar
StartChar: tilde
Encoding: 732 732 168
Width: 480
Flags: W
HStem: 488 21G<23 43> 513 74<212.438 365.936> 538 74<114.09 267.562> 617 20G<437 457>
LayerCount: 2
Back
SplineSet
60 525 m 17
 60 525 108 575 150 575 c 27
 221 575 259 550 330 550 c 27
 372 550 420 600 420 600 c 1033
EndSplineSet
Fore
SplineSet
40 488 m 1xb0
 23 505 l 1
 23 505 23 505 24 506 c 2
 81 563 l 2
 88 570 132 612 170 612 c 0xb0
 241 612 279 587 350 587 c 0
 387 587 428 625 437 634 c 2
 440 637 l 1
 457 620 l 2
 457 620 457 620 456 619 c 2
 399 562 l 2
 392 555 348 513 310 513 c 0xd0
 239 513 201 538 130 538 c 0
 93 538 53 501 43 491 c 2
 40 488 l 1xb0
EndSplineSet
EndChar
StartChar: dotbelowcmb
Encoding: 803 803 357
Width: 0
VWidth: 400
Flags: W
HStem: -182 124
VStem: -302 124
AnchorPoint: "blwmark" -240 0 mark 0
LayerCount: 2
Back
SplineSet
-265 -95 m 25
 -215 -145 l 1049
EndSplineSet
Fore
SplineSet
-302 -115 m 1
 -245 -58 l 1
 -178 -125 l 1
 -235 -182 l 1
 -302 -115 l 1
EndSplineSet
EndChar
StartChar: Germandbls
Encoding: 7838 7838 136
Width: 840
Flags: W
HStem: -147 74<321.878 503.722> -37 21G<23 55 296 330> 13 74<114.255 227.259> 513 21G<23 58> 538 74<194.815 228> 563 49<252.792 281> 563 33<88 107.353> 617 20G<320.5 338 450 513.2>
VStem: 228 24<86 539> 353 74<80 520> 683 74<-90 195 415 446>
AnchorPoint: "abvmark" 480 700 basechar 0
LayerCount: 2
Back
SplineSet
60 0 m 17
 60 0 97 50 180 50 c 3
 298 50 330 0 330 0 c 1
 390 60 l 1
 390 540 l 1
 450 600 l 1
 720 475 l 1
 720 395 l 1
 600 275 l 9
 720 225 l 25
 720 -110 l 25
 630 -200 l 1
 599 -160 500.505859376 -110 420 -110 c 3
 265.80476195 -110 210 -200 210 -200 c 1025
60 550 m 1
 60 550 101 600 149 600 c 3
 192 600 214 575 240 575 c 3
 274 575 300 600 301 600 c 1025
240 550 m 1
 240 75 l 1025
EndSplineSet
Fore
SplineSet
40 513 m 1xf3e0
 23 530 l 1
 23 530 27 534 32 539 c 2
 88 596 l 2
 89 596 l 0xf3e0
 104 611 135 637 169 637 c 0
 212 637 234 612 260 612 c 0
 294 612 320 637 321 637 c 2
 338 620 l 1
 281 563 l 2xf5e0
 280 563 269 552 252 545 c 1
 252 83 l 1
 306 75 333 55 344 44 c 2
 350 37 l 1
 353 40 l 1
 353 520 l 1
 470 637 l 1
 740 512 l 1
 757 495 l 1
 757 415 l 1
 644 302 l 1
 740 262 l 1
 757 245 l 1
 757 -90 l 1
 610 -237 l 1
 593 -220 l 2
 592 -218 l 0
 550 -182 469 -147 400 -147 c 0
 317 -147 262 -173 230 -197 c 1
 190 -237 l 1
 173 -220 l 1
 173 -220 178 -212 190 -200 c 2
 247 -143 l 2
 274 -116 333 -73 440 -73 c 0
 514 -73 603 -115 641 -153 c 2
 641 -154 l 2
 650 -163 l 1
 683 -130 l 1
 683 195 l 1
 580 238 l 1
 563 255 l 1
 683 375 l 1
 683 446 l 1
 430 563 l 1xf3e0
 427 560 l 1
 427 80 l 1
 310 -37 l 1
 296 -23 l 2
 277 -8 237 13 160 13 c 0
 107 13 73 -7 55 -22 c 2
 40 -37 l 1
 23 -20 l 1
 23 -20 26 -17 30 -13 c 2
 86 44 l 2
 100 58 137 87 200 87 c 0
 210 87 219 87 228 86 c 1
 228 539 l 2
 225 539 223 538 220 538 c 0xf9e0
 194 538 172 563 129 563 c 0
 101 563 75 546 58 531 c 2
 40 513 l 1xf3e0
EndSplineSet
EndChar
StartChar: figuredash
Encoding: 8210 8210 908
Width: 480
Flags: W
HStem: 163 74<140 340>
VStem: 83 314
LayerCount: 2
Back
SplineSet
120 200 m 25
 360 200 l 1049
EndSplineSet
Fore
SplineSet
83 180 m 1
 140 237 l 1
 380 237 l 1
 397 220 l 1
 340 163 l 1
 100 163 l 1
 83 180 l 1
EndSplineSet
EndChar
StartChar: quoteleft
Encoding: 8216 8216 254
Width: 360
Flags: W
HStem: 388 249
VStem: 121 148
LayerCount: 2
Back
SplineSet
207.5 425 m 25
 157.5 475 l 1
 157.5 525 l 25
 232.5 600 l 1049
EndSplineSet
Fore
SplineSet
244 445 m 1
 188 388 l 1
 121 455 l 1
 121 505 l 1
 252 637 l 1
 269 620 l 1
 194 545 l 1
 194 495 l 1
 244 445 l 1
EndSplineSet
EndChar
StartChar: quotesinglbase
Encoding: 8218 8218 256
Width: 360
VWidth: 450
Flags: W
HStem: -162 249
VStem: 91 148
LayerCount: 2
Back
SplineSet
152.5 50 m 25
 202.5 0 l 1
 202.5 -50 l 25
 127.5 -125 l 1049
EndSplineSet
Fore
SplineSet
116 30 m 1
 172 87 l 1
 239 20 l 1
 239 -30 l 1
 108 -162 l 1
 91 -145 l 1
 166 -70 l 1
 166 -20 l 1
 116 30 l 1
EndSplineSet
EndChar
StartChar: quotereversed
Encoding: 8219 8219 928
Width: 360
Flags: W
HStem: 388 249
VStem: 121 148
LayerCount: 2
Back
SplineSet
207.5 600 m 25
 157.5 550 l 1
 157.5 500 l 25
 232.5 425 l 1049
EndSplineSet
Fore
SplineSet
188 637 m 1
 244 580 l 1
 194 530 l 1
 194 480 l 2
 194 480 211 464 213 462 c 2
 269 405 l 1
 252 388 l 1
 121 520 l 1
 121 570 l 1
 188 637 l 1
EndSplineSet
EndChar
StartChar: quotedblleft
Encoding: 8220 8220 251
Width: 600
Flags: W
HStem: 388 249
LayerCount: 2
Back
SplineSet
207.5 425 m 25
 157.5 475 l 1
 157.5 525 l 25
 232.5 600 l 1049
447.5 425 m 25
 397.5 475 l 1
 397.5 525 l 25
 472.5 600 l 1049
EndSplineSet
Fore
SplineSet
484 445 m 1
 428 388 l 1
 361 455 l 1
 361 505 l 1
 492 637 l 1
 509 620 l 1
 434 545 l 1
 434 495 l 1
 484 445 l 1
244 445 m 1
 188 388 l 1
 121 455 l 1
 121 505 l 1
 252 637 l 1
 269 620 l 1
 194 545 l 1
 194 495 l 1
 244 445 l 1
EndSplineSet
EndChar
StartChar: quotedblright
Encoding: 8221 8221 252
Width: 600
Flags: W
HStem: 388 249
LayerCount: 2
Back
SplineSet
392.5 600 m 25
 442.5 550 l 1
 442.5 500 l 25
 367.5 425 l 1049
152.5 600 m 25
 202.5 550 l 1
 202.5 500 l 25
 127.5 425 l 1049
EndSplineSet
Fore
SplineSet
116 580 m 1
 172 637 l 1
 239 570 l 1
 239 520 l 1
 108 388 l 1
 91 405 l 1
 166 480 l 1
 166 530 l 1
 116 580 l 1
356 580 m 1
 412 637 l 1
 479 570 l 1
 479 520 l 1
 348 388 l 1
 331 405 l 1
 406 480 l 1
 406 530 l 1
 356 580 l 1
EndSplineSet
EndChar
StartChar: quotedblbase
Encoding: 8222 8222 253
Width: 600
VWidth: 450
Flags: W
HStem: -162 249
LayerCount: 2
Back
SplineSet
392.5 50 m 25
 442.5 0 l 1
 442.5 -50 l 25
 367.5 -125 l 1049
152.5 50 m 25
 202.5 0 l 1
 202.5 -50 l 25
 127.5 -125 l 1049
EndSplineSet
Fore
SplineSet
116 30 m 1
 172 87 l 1
 239 20 l 1
 239 -30 l 1
 108 -162 l 1
 91 -145 l 1
 166 -70 l 1
 166 -20 l 1
 116 30 l 1
356 30 m 1
 412 87 l 1
 479 20 l 1
 479 -30 l 1
 348 -162 l 1
 331 -145 l 1
 406 -70 l 1
 406 -20 l 1
 356 30 l 1
EndSplineSet
EndChar
StartChar: dagger
Encoding: 8224 8224 262
Width: 480
Flags: W
HStem: -187 21G<203 240> 417 20G<60 100 300.87 400> 417 20G<60 100 300.87 400> 617 20G<270 307>
VStem: 191 98<86.481 327 414 519.945> 203 74<-130 66.4842>
LayerCount: 2
Back
SplineSet
60 400 m 25
 120 340 l 25
 360 400 l 25
 420 340 l 1049
210 540 m 1
 210 540 226 455 228 400 c 24
 238 186 240 -150 240 -150 c 1
 240 -150 244 186 252 400 c 24
 256 478 270 600 270 600 c 9
 210 540 l 1
EndSplineSet
Fore
SplineSet
173 520 m 1xd8
 290 637 l 1
 307 620 l 1
 307 620 293 498 289 420 c 0
 289 418 289 416 289 414 c 2xd8
 380 437 l 1
 457 360 l 1
 400 303 l 1
 340 363 l 1
 286 350 l 1
 280 140 277 -130 277 -130 c 2
 220 -187 l 1
 203 -170 l 1xd4
 203 -170 201 115 193 327 c 1
 100 303 l 1
 23 380 l 1
 80 437 l 1
 140 377 l 1
 191 390 l 1
 188 445 173 520 173 520 c 1xd8
EndSplineSet
EndChar
StartChar: perthousand
Encoding: 8240 8240 244
Width: 1260
Flags: W
HStem: -187 21G<23 60 560 600 980 1020>
VStem: 83 74<450 560> 323 74<490 600> 443 74<-50 60> 683 74<-10 100> 863 74<-50 60> 1103 74<-10 100>
LayerCount: 2
Back
SplineSet
1020 200 m 25
 900 80 l 25
 900 -30 l 25
 1020 -150 l 25
 1140 -30 l 25
 1140 80 l 25
 1020 200 l 25
600 200 m 25
 480 80 l 25
 480 -30 l 25
 600 -150 l 25
 720 -30 l 25
 720 80 l 25
 600 200 l 25
60 -150 m 25
 780 700 l 1049
240 700 m 25
 120 580 l 25
 120 470 l 25
 240 350 l 25
 360 470 l 25
 360 580 l 25
 240 700 l 25
EndSplineSet
Fore
SplineSet
220 663 m 1
 157 600 l 1
 157 490 l 2
 157 434 230 417 260 387 c 1
 323 450 l 1
 323 560 l 2
 323 616 250 633 220 663 c 1
83 560 m 1
 260 737 l 1
 397 600 l 1
 397 490 l 1
 220 313 l 1
 83 450 l 1
 83 560 l 1
40 -187 m 1
 23 -170 l 1
 743 680 l 1
 800 737 l 1
 817 720 l 1
 97 -130 l 1
 40 -187 l 1
580 163 m 1
 517 100 l 1
 517 -10 l 2
 517 -66 590 -83 620 -113 c 1
 683 -50 l 1
 683 60 l 2
 683 116 610 133 580 163 c 1
443 60 m 1
 620 237 l 1
 757 100 l 1
 757 -10 l 1
 580 -187 l 1
 443 -50 l 1
 443 60 l 1
1000 163 m 1
 937 100 l 1
 937 -10 l 2
 937 -66 1010 -83 1040 -113 c 1
 1103 -50 l 1
 1103 60 l 2
 1103 116 1030 133 1000 163 c 1
863 60 m 1
 1040 237 l 1
 1177 100 l 1
 1177 -10 l 1
 1000 -187 l 1
 863 -50 l 1
 863 60 l 1
EndSplineSet
EndChar
StartChar: guilsinglleft
Encoding: 8249 8249 242
Width: 360
Flags: W
VStem: 23 314
LayerCount: 2
Back
SplineSet
270 325 m 17
 270 325 243.919921876 295.744140624 210 275 c 0
 96 207 60 200 60 200 c 1
 60 200 137 174 240 100 c 0
 265.14976701 81.7315958294 300 50 300 50 c 1033
EndSplineSet
Fore
SplineSet
290 362 m 1
 307 345 l 1
 307 345 304 342 299 337 c 2
 243 280 l 2
 233 270 213 252 190 238 c 0
 172 227 153 217 141 210 c 1
 172 194 213 170 260 137 c 0
 285 119 320 87 320 87 c 1
 337 70 l 1
 280 13 l 1
 280 13 245 45 220 63 c 0
 117 137 40 163 40 163 c 1
 23 180 l 1
 80 237 l 1
 80 237 116 244 230 312 c 0
 247 323 262 335 273 345 c 2
 290 362 l 1
EndSplineSet
EndChar
StartChar: fraction
Encoding: 8260 8260 217
Width: 840
Flags: W
LayerCount: 2
Back
SplineSet
120 0 m 25
 720 700 l 1049
EndSplineSet
Fore
SplineSet
100 -37 m 1
 83 -20 l 1
 683 680 l 1
 740 737 l 1
 757 720 l 1
 157 20 l 1
 100 -37 l 1
EndSplineSet
EndChar
StartChar: bracketquillright
Encoding: 8262 8262 917
Width: 360
Flags: W
HStem: -187 74<80 203> 263 74<80 203> 663 74<80 203>
VStem: 203 74<-113 263 337 663>
LayerCount: 2
Back
SplineSet
60 300 m 25
 240 300 l 1049
60 700 m 25
 240 700 l 25
 240 -150 l 25
 60 -150 l 1033
EndSplineSet
Fore
SplineSet
23 680 m 1
 80 737 l 1
 260 737 l 1
 277 720 l 1
 277 320 l 1
 277 -130 l 1
 220 -187 l 1
 40 -187 l 1
 23 -170 l 1
 80 -113 l 1
 203 -113 l 1
 203 263 l 1
 40 263 l 1
 23 280 l 1
 80 337 l 1
 203 337 l 1
 203 663 l 1
 40 663 l 1
 23 680 l 1
EndSplineSet
EndChar
StartChar: paragraphrev
Encoding: 8267 8267 951
Width: 840
Flags: W
HStem: -187 74<145.143 228 252 354.044> 63 74<494.493 599.468> 513 21G<23 60> 538 74<194.815 228 454.067 556.36> 563 74<110.341 202.824 280.986 281 470 470.014 548.176 621.017> 563 49<252.792 281 508.631 596.319>
VStem: 228 24<-113 539> 353 74<-55 109 143 520> 654 74<214.142 524.712>
LayerCount: 2
Back
SplineSet
60 550 m 1
 60 550 99 600 149 600 c 3
 192 600 214 575 240 575 c 3
 274 575 300 600 301 600 c 1025
240 550 m 1
 240 -125 l 1025
480 -200 m 1
 480 -200 328 -150 210 -150 c 3
 127 -150 90 -200 90 -200 c 1025
451 150 m 17
 451 150 462.861328124 100 541 100 c 3
 643 100 691 177.791015624 691 350 c 3
 691 469 684 600 602 600 c 3
 559 600 537 575 511 575 c 3
 477 575 451 600 450 600 c 1
 390 540 l 1
 390 -75 l 1025
EndSplineSet
Fore
SplineSet
427 109 m 2xeb80
 427 -55 l 1
 370 -112 l 1
 353 -95 l 1
 353 520 l 1
 470 637 l 2xeb80
 471 637 497 612 531 612 c 0xf380
 557 612 579 637 622 637 c 0
 640 637 654 631 666 619 c 2
 683 602 l 2
 723 562 728 462 728 370 c 0
 728 263 709 193 671 155 c 2
 615 98 l 2
 591 74 560 63 521 63 c 0
 482 63 460 75 447 88 c 0
 447 89 l 2
 446 89 l 1
 429 106 l 2
 428 107 428 108 427 109 c 2xeb80
427 143 m 1
 471 187 l 1
 488 170 l 1
 488 170 488 168 490 164 c 0
 491 161 493 157 495 154 c 0
 508 144 530 137 561 137 c 0
 584 137 605 141 622 149 c 1
 644 190 654 250 654 330 c 0
 654 416 650 507 618 552 c 0
 608 559 596 563 582 563 c 0xeb80
 539 563 517 538 491 538 c 0xf380
 457 538 431 563 430 563 c 0xe780
 427 560 l 2
 427 143 l 1
517 -180 m 1
 460 -237 l 1
 460 -237 308 -187 190 -187 c 0
 136 -187 102 -208 85 -222 c 2
 70 -237 l 1
 53 -220 l 2
 53 -220 55 -217 59 -213 c 2
 60 -213 l 2
 116 -156 l 2
 130 -142 166 -114 228 -113 c 1
 228 539 l 2
 225 539 223 538 220 538 c 0xf380
 194 538 172 563 129 563 c 0
 102 563 78 549 62 535 c 2
 40 513 l 1
 23 530 l 1
 23 530 27 535 34 542 c 2
 90 598 l 2
 105 613 134 637 169 637 c 0xeb80
 212 637 234 612 260 612 c 0xe780
 294 612 320 637 321 637 c 2
 338 620 l 1
 281 563 l 2
 280 563 269 552 252 545 c 1
 252 -114 l 1
 366 -119 500 -163 500 -163 c 1
 517 -180 l 1
EndSplineSet
EndChar
StartChar: lozengedot
Encoding: 8280 8280 899
Width: 720
Flags: W
LayerCount: 2
Back
SplineSet
515 200 m 25
 565 150 l 1049
335 50 m 25
 385 0 l 1049
335 350 m 25
 385 300 l 1049
155 200 m 25
 205 150 l 1049
EndSplineSet
Fore
SplineSet
118 180 m 1
 175 237 l 1
 242 170 l 1
 185 113 l 1
 118 180 l 1
298 330 m 1
 355 387 l 1
 422 320 l 1
 365 263 l 1
 298 330 l 1
298 30 m 1
 355 87 l 1
 422 20 l 1
 365 -37 l 1
 298 30 l 1
478 180 m 1
 535 237 l 1
 602 170 l 1
 545 113 l 1
 478 180 l 1
EndSplineSet
EndChar
StartChar: Euro
Encoding: 8364 8364 264
Width: 660
Flags: W
HStem: 188 74<80 143 217 400> 338 74<80 143 249 460> 488 21G<510 570> 617 20G<420 480>
VStem: 143 74<130 188 262 338>
LayerCount: 2
Back
SplineSet
60 225 m 25
 420 225 l 1049
60 375 m 25
 480 375 l 1049
570 525 m 9
 420 600 l 25
 180 360 l 25
 180 100 l 25
 420 0 l 25
 600 180 l 1041
EndSplineSet
Fore
SplineSet
607 545 m 1
 550 488 l 1
 400 563 l 2
 399 563 302 465 249 412 c 1
 500 412 l 1
 517 395 l 1
 460 338 l 1
 217 338 l 1
 217 262 l 1
 440 262 l 1
 457 245 l 1
 400 188 l 1
 217 188 l 1
 217 130 l 1
 440 37 l 2
 441 37 552 149 563 160 c 2
 620 217 l 1
 637 200 l 1
 400 -37 l 1
 160 63 l 1
 143 80 l 1
 143 188 l 1
 40 188 l 1
 23 205 l 1
 80 262 l 1
 143 262 l 1
 143 338 l 1
 40 338 l 1
 23 355 l 1
 80 412 l 1
 215 412 l 1
 440 637 l 1
 590 562 l 1
 607 545 l 1
EndSplineSet
EndChar
StartChar: minus
Encoding: 8722 8722 214
Width: 720
Flags: W
HStem: 263 74<140 580>
LayerCount: 2
Back
SplineSet
120 300 m 25
 600 300 l 1049
EndSplineSet
Fore
SplineSet
83 280 m 1
 140 337 l 1
 620 337 l 1
 637 320 l 1
 580 263 l 1
 100 263 l 1
 83 280 l 1
EndSplineSet
EndChar
StartChar: logicaland
Encoding: 8743 8743 952
Width: 720
Flags: W
HStem: 417 20G<360 397> 417 20G<360 397>
LayerCount: 2
Back
SplineSet
120 0 m 25
 360 400 l 25
 600 0 l 1049
EndSplineSet
Fore
SplineSet
100 -37 m 1x80
 83 -20 l 1
 323 380 l 1
 380 437 l 1
 397 420 l 1
 637 20 l 1
 580 -37 l 1
 563 -20 l 1
 348 339 l 1
 157 20 l 1
 100 -37 l 1x80
EndSplineSet
EndChar
StartChar: because
Encoding: 8757 8757 897
Width: 720
Flags: W
LayerCount: 2
Back
SplineSet
515 350 m 25
 565 300 l 1049
155 350 m 25
 205 300 l 1049
335 50 m 25
 385 0 l 1049
EndSplineSet
Fore
SplineSet
298 30 m 1
 355 87 l 1
 422 20 l 1
 365 -37 l 1
 298 30 l 1
118 330 m 1
 175 387 l 1
 242 320 l 1
 185 263 l 1
 118 330 l 1
478 330 m 1
 535 387 l 1
 602 320 l 1
 545 263 l 1
 478 330 l 1
EndSplineSet
EndChar
StartChar: proportion
Encoding: 8759 8759 898
Width: 720
Flags: W
LayerCount: 2
Back
SplineSet
515 350 m 25
 565 300 l 1049
515 50 m 25
 565 0 l 1049
155 350 m 25
 205 300 l 1049
155 50 m 25
 205 0 l 1049
EndSplineSet
Fore
SplineSet
118 30 m 1
 175 87 l 1
 242 20 l 1
 185 -37 l 1
 118 30 l 1
118 330 m 1
 175 387 l 1
 242 320 l 1
 185 263 l 1
 118 330 l 1
478 30 m 1
 535 87 l 1
 602 20 l 1
 545 -37 l 1
 478 30 l 1
478 330 m 1
 535 387 l 1
 602 320 l 1
 545 263 l 1
 478 330 l 1
EndSplineSet
EndChar
StartChar: bracketangleright
Encoding: 9297 9297 931
Width: 480
Flags: W
HStem: -187 21G<23 60>
LayerCount: 2
Back
SplineSet
90 675 m 17
 90 675 186.56640625 553.8359375 210 525 c 0
 264 459 420 250 420 250 c 1
 420 250 235 60 180 0 c 0
 160.16796875 -22.12890625 60 -150 60 -150 c 1033
EndSplineSet
Fore
SplineSet
110 712 m 1
 127 695 l 1
 127 695 224 574 247 545 c 0
 301 479 457 270 457 270 c 1
 457 270 272 80 217 20 c 0
 197 -2 97 -130 97 -130 c 1
 40 -187 l 1
 23 -170 l 1
 23 -170 123 -42 143 -20 c 0
 198 40 383 230 383 230 c 1
 383 230 227 439 173 505 c 0
 150 534 53 655 53 655 c 1
 110 712 l 1
EndSplineSet
EndChar
StartChar: FleuronCenter
Encoding: 10086 10086 955
Width: 840
Flags: W
HStem: 467 20G<238.5 272> 538 74<577 730> 538 21G<23 64> 547 75<388.667 490 577 690> 563 74<110 256.812>
VStem: 53 374<93 300>
LayerCount: 2
Back
SplineSet
480 700 m 1
 480 700 540 644 540 600 c 27
 540 521 420 425 420 425 c 1025
60 575 m 25
 90 600 l 25
 750 575 l 25
 780 600 l 1049
660 100 m 1
 660 100 551 0 420 0 c 3
 275 0 90 141 90 300 c 27
 90 376 149 450 240 450 c 27
 314 450 360 325 360 325 c 1
 360 325 406 450 480 450 c 27
 546 450 600 399 600 350 c 3
 600 277.78125 523.607421876 243.705078124 450 200 c 8
 398 169 390 128 390 75 c 19
 390 47.953970399 450 25 450 25 c 1025
EndSplineSet
Fore
SplineSet
697 120 m 1xc4
 640 63 l 1
 640 63 531 -37 400 -37 c 0
 389 -37 377 -36 365 -34 c 0
 293 -24 216 17 159 74 c 2
 142 91 l 2
 90 144 53 210 53 280 c 0
 53 320 70 359 98 387 c 2
 154 444 l 2
 180 470 217 487 260 487 c 0
 284 487 304 474 321 457 c 2
 338 440 l 1
 339 439 l 0
 353 425 365 408 374 392 c 1
 377 395 379 397 382 400 c 2
 385 404 l 1
 383 405 l 1
 440 462 l 2
 440 462 442 464 448 469 c 0
 468 492 487 519 497 547 c 1x94
 70 563 l 1
 40 538 l 1xac
 23 555 l 1
 80 612 l 1xc4
 110 637 l 1x8c
 490 622 l 1x94
 478 643 461 662 451 672 c 2
 443 680 l 1
 500 737 l 1
 500 737 502 735 504 733 c 2
 521 716 l 2
 535 702 577 657 577 620 c 0
 577 619 l 2
 770 612 l 1xc4
 800 637 l 1
 817 620 l 1
 760 563 l 1x8c
 730 538 l 1
 550 545 l 1
 536 523 518 504 502 487 c 1
 537 486 569 471 591 449 c 2
 608 432 l 0
 626 414 637 392 637 370 c 0
 637 341 624 317 604 297 c 2
 548 241 l 2
 547 240 l 2
 519 213 478 191 438 168 c 1
 429 147 427 123 427 95 c 0
 427 91 429 86 431 83 c 0
 449 70 470 62 470 62 c 2
 487 45 l 1
 482 40 l 1
 594 58 680 137 680 137 c 1
 697 120 l 1xc4
EndSplineSet
EndChar
StartChar: bracketwhiteleft
Encoding: 10214 10214 918
Width: 480
Flags: W
HStem: -187 74<157 258 282 400> 663 74<157 258 282 400>
VStem: 83 74<-113 663> 258 24<-113 663>
LayerCount: 2
Back
SplineSet
270 650 m 25
 270 -100 l 1049
420 700 m 25
 120 700 l 25
 120 -150 l 25
 420 -150 l 1033
EndSplineSet
Fore
SplineSet
457 720 m 1
 400 663 l 1
 282 663 l 1
 282 -113 l 1
 440 -113 l 1
 457 -130 l 1
 400 -187 l 1
 100 -187 l 1
 83 -170 l 1
 83 680 l 1
 140 737 l 1
 440 737 l 1
 457 720 l 1
258 663 m 1
 157 663 l 1
 157 -113 l 1
 258 -113 l 1
 258 663 l 1
EndSplineSet
EndChar
StartChar: luslst
Encoding: 11788 11788 902
Width: 360
Flags: W
HStem: 413 324
VStem: 23 314
LayerCount: 2
Back
SplineSet
60 700 m 25
 300 450 l 1049
EndSplineSet
Fore
SplineSet
80 737 m 1
 97 720 l 1
 337 470 l 1
 280 413 l 1
 263 430 l 1
 23 680 l 1
 80 737 l 1
EndSplineSet
EndChar
StartChar: ramus
Encoding: 11801 11801 911
Width: 720
Flags: W
HStem: -187 21G<83 120> 523 20G<263 300> 605 20G<686 723>
VStem: 53 74<145.538 330> 226 74<339.83 486> 395 74<547.38 642>
LayerCount: 2
Back
SplineSet
432 662 m 1
 432 662 432 625 432 600 c 27
 432 551 474 475 474 475 c 1
 474 475 582 516 642 550 c 24
 666 564 686 588 686 588 c 1025
90 350 m 1
 90 350 90 274 90 225 c 27
 90 127 185 -25 185 -25 c 1
 185 -25 391 57 510 125 c 24
 558 153 600 200 600 200 c 1025
263 506 m 1
 263 506 263 449 263 412 c 27
 263 339 330 225 330 225 c 1
 330 225 488 287 577 338 c 24
 613 359 646 394 646 394 c 1025
120 -150 m 25
 600 700 l 1049
EndSplineSet
Fore
SplineSet
100 -187 m 1
 83 -170 l 1
 152 -48 l 1
 148 -45 l 1
 148 -45 53 107 53 205 c 2
 53 330 l 1
 110 387 l 1
 127 370 l 1
 127 245 l 2
 127 179 171 87 199 35 c 1
 294 204 l 1
 293 205 l 1
 293 205 226 319 226 392 c 2
 226 486 l 1
 283 543 l 1
 300 526 l 1
 300 432 l 2
 300 388 324 330 343 290 c 1
 437 456 l 1
 432 465 395 534 395 580 c 2
 395 642 l 1
 452 699 l 1
 469 682 l 1
 469 620 l 2
 469 598 477 569 487 545 c 1
 563 680 l 1
 620 737 l 1
 637 720 l 1
 527 525 l 1
 564 540 623 565 662 587 c 0
 670 592 678 598 684 603 c 2
 706 625 l 1
 723 608 l 2
 723 608 719 604 713 597 c 2
 712 596 l 2
 656 540 l 2
 648 532 635 521 622 513 c 0
 582 490 520 465 484 450 c 1
 386 277 l 1
 438 298 535 339 597 375 c 0
 622 389 645 411 657 422 c 2
 666 431 l 1
 683 414 l 2
 683 414 682 413 679 410 c 2
 622 353 l 2
 612 343 585 318 557 301 c 0
 494 265 395 223 344 202 c 1
 247 29 l 1
 313 57 444 113 530 162 c 0
 554 176 577 195 593 210 c 2
 620 237 l 1
 637 220 l 2
 637 220 633 215 625 207 c 2
 624 206 l 2
 567 150 l 2
 551 134 522 107 490 88 c 0
 403 38 270 -19 204 -46 c 1
 157 -130 l 1
 100 -187 l 1
EndSplineSet
EndChar
StartChar: rlslst
Encoding: 11804 11804 904
Width: 360
Flags: W
HStem: -187 324
VStem: 23 314
LayerCount: 2
Back
SplineSet
60 100 m 25
 300 -150 l 1049
EndSplineSet
Fore
SplineSet
80 137 m 1
 97 120 l 1
 337 -130 l 1
 280 -187 l 1
 263 -170 l 1
 23 80 l 1
 80 137 l 1
EndSplineSet
EndChar
StartChar: brackettopleft
Encoding: 11810 11810 922
Width: 360
Flags: W
HStem: 663 74<157 280>
VStem: 83 74<320 663>
LayerCount: 2
Back
SplineSet
300 700 m 25
 120 700 l 17
 120 300 l 1025
EndSplineSet
Fore
SplineSet
337 720 m 1
 280 663 l 1
 157 663 l 1
 157 320 l 1
 100 263 l 1
 83 280 l 1
 83 680 l 1
 140 737 l 1
 320 737 l 1
 337 720 l 1
EndSplineSet
EndChar
StartChar: brackettopright
Encoding: 11811 11811 923
Width: 360
Flags: W
HStem: 663 74<80 203>
VStem: 203 74<320 663>
LayerCount: 2
Back
SplineSet
60 700 m 25
 240 700 l 17
 240 300 l 1025
EndSplineSet
Fore
SplineSet
23 680 m 1
 80 737 l 1
 260 737 l 1
 277 720 l 1
 277 320 l 1
 220 263 l 1
 203 280 l 1
 203 663 l 1
 40 663 l 1
 23 680 l 1
EndSplineSet
EndChar
StartChar: bracketbottomleft
Encoding: 11812 11812 924
Width: 360
Flags: W
HStem: -187 74<157 280>
VStem: 83 74<-113 280>
LayerCount: 2
Back
SplineSet
120 300 m 1
 120 -150 l 9
 300 -150 l 1033
EndSplineSet
Fore
SplineSet
140 337 m 1
 157 320 l 1
 157 -113 l 1
 320 -113 l 1
 337 -130 l 1
 280 -187 l 1
 100 -187 l 1
 83 -170 l 1
 83 280 l 1
 140 337 l 1
EndSplineSet
EndChar
StartChar: Ubracketright
Encoding: 11815 11815 913
Width: 600
Flags: W
HStem: -37 74<80 327.81> 363 74<80 326.604>
VStem: 443 74<137.049 263.652>
LayerCount: 2
Back
SplineSet
60 400 m 1
 240 400 l 26
 372 400 480 310 480 200 c 27
 480 90 372 0 240 0 c 26
 60 0 l 1025
EndSplineSet
Fore
SplineSet
23 380 m 1
 80 437 l 1
 260 437 l 2
 334 437 400 408 444 364 c 2
 462 347 l 0
 496 312 517 268 517 220 c 0
 517 172 496 127 461 92 c 2
 405 36 l 2
 404 35 l 2
 360 -9 294 -37 220 -37 c 2
 40 -37 l 1
 23 -20 l 1
 80 37 l 1
 260 37 l 2
 318 37 371 54 413 83 c 1
 432 112 443 145 443 180 c 0
 443 225 426 265 396 299 c 1
 353 338 289 363 220 363 c 2
 40 363 l 1
 23 380 l 1
EndSplineSet
EndChar
StartChar: a_o
Encoding: 42805 42805 341
Width: 720
Flags: W
HStem: 188 74<232.385 323> 417 20G<210 350 480 520> 417 20G<210 350 480 520>
VStem: 83 74<110 140> 323 74<130 188 262 300 334 341> 563 74<140 300>
CounterMasks: 1 1c
AnchorPoint: "blwmark" 360 0 basechar 0
AnchorPoint: "abvmark" 360 500 basechar 0
LayerCount: 2
Back
SplineSet
150 220 m 17
 120 310 l 1
 210 400 l 1
 360 375 l 1
 360 150 l 9
 210 0 l 1
 120 90 l 1
 120 160 l 1
 210 250 l 1
 210 250 232.928594192 225 300 225 c 3
 280.995781714 225 360 225 360 225 c 1033
480 400 m 25
 360 280 l 25
 360 120 l 25
 480 0 l 25
 600 120 l 25
 600 280 l 25
 480 400 l 25
EndSplineSet
Fore
SplineSet
128 185 m 1xdc
 113 200 l 1
 83 290 l 1
 230 437 l 1
 380 412 l 1
 397 395 l 1
 397 334 l 1
 500 437 l 1
 637 300 l 1
 637 140 l 1
 460 -37 l 1
 325 98 l 1
 190 -37 l 1
 83 70 l 1
 83 140 l 1
 128 185 l 1xdc
317 262 m 0
 317 262 319 262 323 262 c 2
 323 341 l 1
 190 363 l 1
 157 330 l 1
 186 243 l 1
 230 287 l 1
 230 286 l 2
 234 282 256 262 317 262 c 0
397 170 m 1
 397 140 l 2
 397 84 470 67 500 37 c 1
 563 100 l 1
 563 260 l 2
 563 316 490 333 460 363 c 1
 397 300 l 1
 397 170 l 1
323 130 m 1
 323 188 l 1
 282 188 l 2
 218 188 193 210 190 213 c 2
 157 180 l 1
 157 110 l 1
 230 37 l 1
 323 130 l 1
EndSplineSet
LCarets2: 1 360 
Ligature2: "Historic ligatures-1" a o
EndChar
StartChar: a_v
Encoding: 42809 42809 345
Width: 720
Flags: W
HStem: 188 74<232.385 323> 422 20G<210 330 625.5 643>
VStem: 83 74<110 140> 323 74<140 188 262 342> 503 74<434.835 499.789> 563 74<140 354>
AnchorPoint: "blwmark" 360 0 basechar 0
AnchorPoint: "abvmark" 360 500 basechar 0
LayerCount: 2
Back
SplineSet
360 150 m 9
 210 0 l 1
 120 90 l 1
 120 160 l 1
 210 250 l 1
 210 250 232.928594192 225 300 225 c 3
 280.995781714 225 360 225 360 225 c 1033
606 550 m 17
 604 550 540 521 540 472 c 16
 540 423 600 375 600 375 c 9
 600 120 l 1
 480 0 l 25
 360 120 l 1
 360 375 l 17
 210 405 l 1
 120 315 l 1
 150 225 l 1033
EndSplineSet
Fore
SplineSet
643 570 m 1xf8
 586 513 l 2
 586 513 583 512 580 511 c 0
 578 505 577 499 577 492 c 0xf8
 577 464 596 435 613 417 c 0
 617 413 620 412 620 412 c 2
 637 395 l 1
 637 140 l 1
 460 -37 l 1
 325 98 l 1
 190 -37 l 1
 83 70 l 1
 83 140 l 1
 230 287 l 1
 230 286 l 2
 234 282 256 262 317 262 c 2
 323 262 l 1
 323 342 l 1
 190 368 l 2
 190 368 161 339 157 335 c 1
 187 245 l 1
 130 188 l 1
 113 205 l 1
 83 295 l 1
 230 442 l 1
 380 412 l 1
 397 395 l 1
 397 245 l 1
 397 170 l 1
 397 140 l 1
 500 37 l 1
 563 100 l 1
 563 354 l 1xf4
 548 369 l 2
 530 387 503 419 503 452 c 0
 503 472 513 488 526 501 c 0
 527 502 l 2
 583 558 l 2
 602 576 625 587 626 587 c 2
 643 570 l 1xf8
323 130 m 1
 323 188 l 1
 282 188 l 2
 218 188 193 210 190 213 c 2
 157 180 l 1
 157 110 l 1
 230 37 l 1
 323 130 l 1
EndSplineSet
LCarets2: 1 360 
Ligature2: "Historic ligatures-1" a v
EndChar
StartChar: avslash
Encoding: 42811 42811 861
Width: 720
Flags: W
HStem: 188 74<232.385 323> 213 74<397 563 637 640> 417 20G<210 350> 417 20G<210 350 625.5 643>
VStem: 83 74<110 140> 323 74<140 188 287 341> 503 74<433.796 499.789> 563 74<140 213 287 350>
AnchorPoint: "abvmark" 360 500 basechar 0
AnchorPoint: "blwmark" 360 0 basechar 0
LayerCount: 2
Back
SplineSet
360 250 m 25
 660 250 l 1049
360 150 m 9
 210 0 l 1
 120 90 l 1
 120 160 l 1
 210 250 l 1
 210 250 232.928594192 225 300 225 c 3
 280.995781714 225 360 225 360 225 c 1033
606 550 m 17
 604 550 540 521 540 472 c 16
 540 423 600 370 600 370 c 9
 600 120 l 1
 480 0 l 25
 360 120 l 1
 360 375 l 17
 210 400 l 1
 120 310 l 1
 150 220 l 1033
EndSplineSet
Fore
SplineSet
643 570 m 1x6e
 586 513 l 2
 586 513 583 512 580 511 c 0
 578 505 577 499 577 492 c 0x6e
 577 459 603 424 621 405 c 2
 637 390 l 1
 637 287 l 1
 680 287 l 1
 697 270 l 1
 640 213 l 1
 637 213 l 1
 637 140 l 1
 460 -37 l 1
 325 98 l 1
 190 -37 l 1
 83 70 l 1
 83 140 l 1
 128 185 l 1
 113 200 l 1
 83 290 l 1
 230 437 l 1
 380 412 l 1
 397 395 l 1
 397 287 l 1
 563 287 l 1
 563 350 l 1x6d
 556 357 l 2
 540 373 503 414 503 452 c 0
 503 472 513 488 526 501 c 0
 527 502 l 2
 583 558 l 2
 602 576 625 587 626 587 c 2
 643 570 l 1x6e
186 243 m 1
 230 287 l 1x4c
 230 286 l 2
 234 282 256 262 317 262 c 2
 323 262 l 1x8c
 323 341 l 1
 190 363 l 2
 190 363 161 334 157 330 c 1
 186 243 l 1
397 170 m 1
 397 140 l 1
 500 37 l 1
 563 100 l 1
 563 213 l 1x4d
 397 213 l 1
 397 170 l 1
323 130 m 1
 323 188 l 1
 282 188 l 2x8c
 218 188 193 210 190 213 c 2
 157 180 l 1
 157 110 l 1
 230 37 l 1
 323 130 l 1
EndSplineSet
EndChar
StartChar: lbar
Encoding: 42825 42825 865
Width: 240
Flags: W
HStem: 438 74<50 83 157 190>
VStem: 83 74<55 438 512 570>
AnchorPoint: "abvmark" 120 700 basechar 0
AnchorPoint: "blwmark" 120 0 basechar 0
LayerCount: 2
Back
SplineSet
95 50 m 25
 145 0 l 25
 195 50 l 1049
95 625 m 25
 145 575 l 1049
120 600 m 9
 120 25 l 1049
210 475 m 25
 30 475 l 1049
EndSplineSet
Fore
SplineSet
247 495 m 1
 190 438 l 1
 157 438 l 1
 157 45 l 1
 165 37 l 1
 215 87 l 1
 232 70 l 1
 125 -37 l 1
 100 -12 l 1
 83 5 l 1
 58 30 l 1
 83 55 l 1
 83 438 l 1
 10 438 l 1
 -7 455 l 1
 50 512 l 1
 83 512 l 1
 83 580 l 1
 58 605 l 1
 115 662 l 1
 140 637 l 1
 157 620 l 1
 182 595 l 1
 157 570 l 1
 157 512 l 1
 230 512 l 1
 247 495 l 1
EndSplineSet
EndChar
StartChar: o_o
Encoding: 42831 42831 669
Width: 720
Flags: W
HStem: 417 20G<240 280 480 520> 417 20G<240 280 480 520>
VStem: 83 74<100 260> 323 74<100 300> 563 74<140 300>
CounterMasks: 1 38
AnchorPoint: "blwmark" 360 0 basechar 0
AnchorPoint: "abvmark" 360 500 basechar 0
LayerCount: 2
Back
SplineSet
480 400 m 25
 360 280 l 25
 360 120 l 25
 480 0 l 25
 600 120 l 25
 600 280 l 25
 480 400 l 25
240 400 m 25
 120 280 l 25
 120 120 l 25
 240 0 l 25
 360 120 l 25
 360 280 l 25
 240 400 l 25
EndSplineSet
Fore
SplineSet
220 363 m 1x38
 157 300 l 1
 157 140 l 2
 157 84 230 67 260 37 c 1
 323 100 l 1
 323 260 l 2
 323 316 250 333 220 363 c 1x38
83 260 m 1
 260 437 l 1
 380 317 l 1
 500 437 l 1xb8
 637 300 l 1
 637 140 l 1
 460 -37 l 1
 340 83 l 1
 220 -37 l 1
 83 100 l 1
 83 260 l 1
397 140 m 2
 397 84 470 67 500 37 c 1
 563 100 l 1
 563 260 l 2
 563 316 490 333 460 363 c 1
 397 300 l 1
 397 140 l 2
EndSplineSet
LCarets2: 1 360 
Ligature2: "Historic ligatures-1" o o
EndChar
StartChar: qslash
Encoding: 42841 42841 872
Width: 480
Flags: W
HStem: -187 21G<173 210 323 360> 315 74<272.5 321.905> 417 20G<240 277 360 397> 417 20G<240 277 360 397>
VStem: 83 74<140 260> 323 74<-130 -54 -20 20 54 66 100 338>
AnchorPoint: "abvmark" 270 500 basechar 0
LayerCount: 2
Back
SplineSet
360 120 m 9
 240 0 l 25
 120 120 l 25
 120 280 l 25
 240 400 l 1
 240 400 264 352 300 352 c 24
 336 352 360 400 360 400 c 9
 360 -150 l 1049
450 90 m 25
 210 -150 l 1049
EndSplineSet
Fore
SplineSet
470 127 m 1xec
 487 110 l 1
 397 20 l 1
 397 -130 l 1
 340 -187 l 1
 323 -170 l 1
 323 -54 l 1
 190 -187 l 1
 173 -170 l 1
 323 -20 l 1
 323 66 l 1
 220 -37 l 1
 83 100 l 1
 83 260 l 1
 260 437 l 1
 277 420 l 1
 277 420 282 410 290 400 c 0
 299 393 309 389 320 389 c 0
 325 389 330 389 334 391 c 2
 380 437 l 1
 397 420 l 1
 397 54 l 1
 470 127 l 1xec
323 100 m 1
 323 338 l 1
 319 334 l 2
 309 324 296 315 280 315 c 0
 265 315 252 324 242 334 c 2
 225 351 l 2
 222 354 219 357 217 360 c 2
 157 300 l 1
 157 140 l 1
 260 37 l 1
 323 100 l 1
EndSplineSet
EndChar
StartChar: rrotunda
Encoding: 42843 42843 96
Width: 360
Flags: W
HStem: 417 20G<120 164> 417 20G<120 164>
VStem: 23 314
AnchorPoint: "blwmark" 180 0 basechar 0
AnchorPoint: "abvmark" 180 500 basechar 0
LayerCount: 2
Back
SplineSet
300 60 m 25
 240 0 l 1
 120 180 l 25
 240 300 l 1
 120 400 l 1
 60 340 l 1049
EndSplineSet
Fore
SplineSet
320 97 m 1xa0
 337 80 l 1
 220 -37 l 1
 203 -20 l 1
 83 160 l 1
 202 279 l 1
 100 363 l 2
 97 360 l 2
 40 303 l 1
 23 320 l 1
 140 437 l 1
 260 337 l 1
 277 320 l 1
 157 200 l 1
 263 40 l 1
 320 97 l 1xa0
EndSplineSet
EndChar
StartChar: rumrotunda
Encoding: 42845 42845 705
Width: 600
Flags: W
HStem: -187 21G<203 241.633> -37 74<429 496.065> 417 20G<120 164> 417 20G<120 164>
VStem: 383 74<53.4219 170>
LayerCount: 2
Back
SplineSet
360 225 m 1
 420 200 l 1
 420 200 420 139 420 100 c 27
 420 3 240 -150 240 -150 c 1025
540 50 m 17
 540 50 517 0 450 0 c 3
 337 0 300 60 300 60 c 9
 240 0 l 1
 120 180 l 25
 240 300 l 1
 120 400 l 1
 60 340 l 1049
EndSplineSet
Fore
SplineSet
560 87 m 1xe8
 577 70 l 1
 577 70 572 60 561 49 c 2
 504 -8 l 2
 490 -22 467 -37 430 -37 c 0
 409 -37 392 -34 376 -31 c 1
 360 -49 344 -66 329 -81 c 2
 273 -138 l 2
 244 -167 220 -187 220 -187 c 1
 203 -170 l 1
 260 -113 l 1
 260 -113 269 -105 283 -92 c 0
 303 -70 324 -46 341 -21 c 1
 316 -11 299 2 290 11 c 2
 279 22 l 1
 220 -37 l 1
 203 -20 l 1
 83 160 l 1
 202 279 l 1
 100 363 l 2
 97 360 l 2
 40 303 l 1
 23 320 l 1
 140 437 l 1
 260 337 l 1
 277 320 l 1
 157 200 l 1
 263 40 l 1
 320 97 l 1
 337 80 l 1
 337 80 337 78 339 76 c 0
 348 68 362 60 379 53 c 1
 382 62 383 71 383 80 c 2
 383 170 l 1
 340 188 l 1
 323 205 l 1
 380 262 l 1
 440 237 l 1
 457 220 l 1
 457 120 l 2
 457 96 446 68 429 40 c 1
 441 38 455 37 470 37 c 0
 492 37 509 42 523 50 c 1
 560 87 l 1xe8
EndSplineSet
EndChar
StartChar: vslash
Encoding: 42847 42847 873
Width: 480
Flags: W
HStem: 417 20G<95 135> 417 20G<95 135 385.5 403>
VStem: 83 74<100 186 220 260 294 345> 263 74<431.892 500.732> 323 74<140 346>
LayerCount: 2
Back
SplineSet
145 350 m 25
 95 400 l 1049
120 375 m 25
 120 120 l 1
 240 0 l 25
 360 120 l 1
 360 370 l 17
 370 351 300 423 300 472 c 8
 300 523.5 363.5 550 366 550 c 1033
270 390 m 25
 30 150 l 1049
EndSplineSet
Fore
SplineSet
83 186 m 1xa8
 10 113 l 1
 -7 130 l 1
 83 220 l 1
 83 355 l 1
 58 380 l 1
 115 437 l 1
 140 412 l 1
 157 395 l 1
 182 370 l 1
 157 345 l 1
 157 294 l 1
 275 412 l 1
 268 426 263 439 263 452 c 0
 263 473 274 489 286 502 c 2
 343 559 l 2
 362 577 385 587 386 587 c 2
 403 570 l 1
 346 513 l 2
 346 513 344 513 340 511 c 0
 339 507 337 499 337 492 c 0xb0
 337 464 360 427 378 405 c 1
 380 407 l 1
 397 390 l 2
 398 388 398 387 398 387 c 0
 397 386 398 387 397 386 c 2
 397 140 l 1
 220 -37 l 1
 83 100 l 1
 83 186 l 1xa8
287 390 m 1
 157 260 l 1
 157 140 l 2
 157 84 230 67 260 37 c 1
 323 100 l 1
 323 346 l 1x28
 316 353 l 2
 308 361 297 374 287 390 c 1
EndSplineSet
EndChar
StartChar: zvisigoth
Encoding: 42851 42851 839
Width: 420
Flags: W
HStem: -237 74<179.809 242.852> -187 74<52.6553 128.881> 417 20G<240 280> 417 20G<240 280>
VStem: 83 74<230 260> 263 74<-130 -34>
AnchorPoint: "abvmark" 240 500 basechar 0
LayerCount: 2
Back
SplineSet
360 280 m 9
 240 400 l 25
 120 280 l 1
 120 200 l 25
 240 150 l 25
 120 30 l 1
 300 0 l 1
 300 -150 l 1
 300 -150 244 -200 210 -200 c 0
 172 -200 141 -150 90 -150 c 16
 44 -150 0 -200 0 -200 c 1025
EndSplineSet
Fore
SplineSet
397 300 m 1xac
 340 243 l 1
 220 363 l 1
 157 300 l 1
 157 230 l 1
 260 187 l 1
 277 170 l 1
 169 62 l 1
 320 37 l 1
 337 20 l 1
 337 -130 l 1
 280 -187 l 1x6c
 280 -187 224 -237 190 -237 c 0x8c
 152 -237 121 -187 70 -187 c 0x4c
 38 -187 8 -211 -8 -225 c 2
 -20 -237 l 1x8c
 -37 -220 l 1
 -37 -220 -35 -217 -32 -214 c 2
 25 -158 l 2
 38 -145 73 -113 110 -113 c 0x4c
 161 -113 192 -163 230 -163 c 0
 240 -163 251 -159 263 -153 c 1
 263 -34 l 1
 100 -7 l 1
 83 10 l 1
 196 123 l 1
 100 163 l 1
 83 180 l 1
 83 260 l 1
 260 437 l 1
 397 300 l 1xac
EndSplineSet
EndChar
StartChar: thornbarbelow
Encoding: 42855 42855 875
Width: 480
Flags: W
HStem: -187 21G<83 120> -112 74<50 83 157 220> 417 20G<240 280> 417 20G<240 280>
VStem: 83 74<-130 -112 -38 46 135 300 334 570> 323 74<80 260>
AnchorPoint: "abvmark" 240 700 basechar 0
LayerCount: 2
Back
SplineSet
240 -75 m 25
 30 -75 l 1049
120 280 m 25
 240 400 l 1
 360 280 l 1
 360 60 l 1
 300 0 l 1
 300 0 247 100 150 100 c 0
 115 100 60 50 60 50 c 1025
95 625 m 25
 145 575 l 1049
120 600 m 1
 120 -150 l 1025
EndSplineSet
Fore
SplineSet
58 605 m 1xec
 115 662 l 1
 140 637 l 1
 157 620 l 1
 182 595 l 1
 157 570 l 1
 157 334 l 1
 260 437 l 1
 397 300 l 1
 397 80 l 1
 280 -37 l 1
 263 -20 l 1
 263 -20 253 -1 234 20 c 0
 214 38 189 55 157 61 c 1
 157 -38 l 1
 260 -38 l 1
 277 -55 l 1
 220 -112 l 1
 157 -112 l 1
 157 -130 l 1
 100 -187 l 1
 83 -170 l 1
 83 -112 l 1
 10 -112 l 1
 -7 -95 l 1
 50 -38 l 1
 83 -38 l 1
 83 46 l 1
 60 32 40 13 40 13 c 2
 23 30 l 1
 80 87 l 1
 80 87 81 88 83 90 c 2
 83 260 l 1
 83 580 l 1
 58 605 l 1xec
157 300 m 1
 157 135 l 1
 162 136 166 137 170 137 c 0
 219 137 257 111 282 86 c 2
 299 69 l 2
 309 59 317 49 323 41 c 1
 323 260 l 1
 220 363 l 1
 157 300 l 1
EndSplineSet
EndChar
StartChar: etfin
Encoding: 42859 42859 959
Width: 420
Flags: W
HStem: 417 20G<150 200> 417 20G<150 200>
LayerCount: 2
Back
SplineSet
60 310 m 25
 150 400 l 1
 300 300 l 1
 120 120 l 1
 300 100 l 1
 300 40 l 1
 0 -200 l 1025
EndSplineSet
Fore
SplineSet
40 273 m 1x80
 23 290 l 1
 170 437 l 1
 320 337 l 1
 337 320 l 1
 170 153 l 1
 320 137 l 1
 337 120 l 1
 337 60 l 1
 280 3 l 1
 -20 -237 l 1
 -37 -220 l 1
 20 -163 l 1
 263 32 l 1
 263 65 l 1
 100 83 l 1
 83 100 l 1
 260 277 l 1
 130 363 l 1
 40 273 l 1x80
EndSplineSet
EndChar
StartChar: is
Encoding: 42861 42861 957
Width: 540
Flags: W
HStem: -237 74<24.611 95.1212> -187 74<-97.6401 -24.611>
VStem: 113 74<-130 152 192 231 271 510>
LayerCount: 2
Back
SplineSet
-150 -200 m 17
 -150 -200 -106 -150 -60 -150 c 8
 -9 -150 9 -200 60 -200 c 24
 100 -200 150 -150 150 -150 c 1
 150 530 l 1
 270 650 l 25
 390 530 l 25
 390 470 l 25
 0 50 l 1049
EndSplineSet
Fore
SplineSet
187 271 m 1x20
 353 450 l 1
 353 510 l 1
 250 613 l 1
 187 550 l 1
 187 271 l 1x20
-170 -237 m 1xa0
 -187 -220 l 1
 -187 -220 -185 -217 -182 -214 c 2
 -125 -158 l 2
 -125 -157 l 0
 -111 -143 -76 -113 -40 -113 c 0x60
 11 -113 29 -163 80 -163 c 0xa0
 91 -163 103 -159 113 -154 c 1
 113 152 l 1
 37 70 l 1
 -20 13 l 1
 -37 30 l 1
 113 192 l 1
 113 510 l 1
 290 687 l 1
 427 550 l 1
 427 490 l 1
 187 231 l 1
 187 -130 l 1
 130 -187 l 1x60
 130 -187 80 -237 40 -237 c 0xa0
 -11 -237 -29 -187 -80 -187 c 0x60
 -112 -187 -142 -210 -158 -225 c 2
 -170 -237 l 1xa0
EndSplineSet
EndChar
StartChar: dum
Encoding: 42865 42865 448
Width: 720
Flags: W
HStem: -187 21G<323 361.633> -37 74<549.291 615.796> 417 20G<240 279.688> 417 20G<240 279.688> 513 74<162.137 292.479>
VStem: 83 74<100 260 600.236 618.75> 323 74<54 66 100 260 373 482.295> 503 74<53.4219 170>
AnchorPoint: "abvmark" 300 700 basechar 0
LayerCount: 2
Back
SplineSet
480 225 m 1
 540 200 l 1
 540 200 540 139 540 100 c 27
 540 3 360 -150 360 -150 c 1025
360 280 m 1
 240 400 l 25
 120 280 l 1
 120 120 l 25
 240 0 l 17
 360 120 l 1025
169 650 m 25
 180 670 120 633 120 600 c 27
 120 549 187 550 240 550 c 0
 293 550 360 510 360 450 c 18
 360 0 l 9
 420 60 l 17
 420 60 457 0 570 0 c 3
 637 0 660 50 660 50 c 1033
EndSplineSet
Fore
SplineSet
157 621 m 2xef
 157 620 l 0
 157 612 158 605 161 600 c 0
 185 586 226 587 260 587 c 0
 292 587 329 572 353 548 c 2
 370 531 l 2
 386 515 397 494 397 470 c 2
 397 300 l 1
 397 140 l 1
 397 54 l 1
 440 97 l 1
 457 80 l 1
 457 80 457 78 459 76 c 0
 468 68 482 60 499 53 c 1
 502 62 503 71 503 80 c 2
 503 170 l 1
 460 188 l 1
 443 205 l 1
 500 262 l 1
 560 237 l 1
 577 220 l 1
 577 120 l 2
 577 96 566 68 549 40 c 1
 561 38 575 37 590 37 c 0
 612 37 630 43 643 50 c 1
 680 87 l 1
 697 70 l 2
 697 70 693 60 682 49 c 2
 681 49 l 2
 624 -8 l 2
 610 -22 587 -37 550 -37 c 0
 529 -37 512 -34 496 -31 c 1
 480 -49 464 -66 449 -81 c 2
 393 -138 l 2
 364 -167 340 -187 340 -187 c 1
 323 -170 l 1
 380 -113 l 1
 380 -113 389 -105 403 -92 c 0
 423 -70 444 -46 461 -21 c 1
 436 -11 419 2 410 11 c 2
 399 22 l 1
 340 -37 l 1
 323 -20 l 1
 323 66 l 1
 220 -37 l 1
 83 100 l 1
 83 260 l 1
 260 437 l 1
 323 373 l 1
 323 430 l 2
 323 450 316 468 304 483 c 1
 281 502 248 513 220 513 c 0
 180 513 132 513 111 534 c 2
 94 551 l 2
 87 558 83 567 83 580 c 0
 83 593 93 607 103 617 c 2
 159 673 l 2
 172 686 187 694 190 692 c 2
 207 675 l 2
 208 674 207 673 206 670 c 2
 157 621 l 2xef
323 100 m 1
 323 260 l 1
 220 363 l 1
 157 300 l 1
 157 140 l 2
 157 84 230 67 260 37 c 1
 323 100 l 1
EndSplineSet
EndChar
StartChar: rum
Encoding: 42869 42869 704
Width: 540
Flags: W
HStem: -187 21G<143 183.889> 417 20G<95 135 240 269 480 517> 417 20G<95 135 240 269 300 368 480 517>
VStem: 83 74<55 300 334 345> 323 74<110.997 320.021 399 470>
LayerCount: 2
Back
SplineSet
300 525 m 1
 360 500 l 1
 360 500 360 406 360 250 c 3
 360 -37.5015230616 180 -150 180 -150 c 1025
480 400 m 17
 480 400 457 350 390 350 c 3
 277 350 240 400 240 400 c 9
 120 280 l 1025
95 50 m 25
 145 0 l 1049
95 400 m 25
 145 350 l 1049
120 375 m 9
 120 25 l 1025
EndSplineSet
Fore
SplineSet
58 380 m 1xd8
 115 437 l 1
 140 412 l 1
 157 395 l 1
 182 370 l 1
 157 345 l 1
 157 334 l 1
 260 437 l 1
 269 427 l 2
 278 419 296 408 323 399 c 1
 323 470 l 1
 280 488 l 1
 263 505 l 1
 320 562 l 1
 380 537 l 1
 397 520 l 1
 397 387 l 1
 401 387 406 387 410 387 c 0
 432 387 449 392 463 400 c 1
 500 437 l 1
 517 420 l 1
 517 420 512 410 501 399 c 2
 444 342 l 2
 434 332 419 321 397 316 c 1
 397 270 l 2
 397 74 313 -41 260 -94 c 2
 204 -150 l 2
 203 -151 l 2
 178 -176 160 -187 160 -187 c 2
 143 -170 l 1
 200 -113 l 1
 200 -113 205 -110 214 -103 c 0
 264 -42 323 66 323 230 c 2
 323 316 l 1
 263 325 234 349 224 359 c 2
 220 363 l 1
 157 300 l 1
 157 45 l 1
 182 20 l 1
 125 -37 l 1
 100 -12 l 1
 83 5 l 1
 58 30 l 1
 83 55 l 1
 83 260 l 1
 83 355 l 1
 58 380 l 1xd8
EndSplineSet
EndChar
StartChar: Rumsmallcap
Encoding: 42870 42870 858
Width: 780
Flags: W
HStem: -187 21G<383 421.633> -37 74<609.291 676.065> 417 20G<95 135 240 296> 417 20G<95 135 240 296>
VStem: 83 74<55 300 334 345> 563 74<53.4219 170>
LayerCount: 2
Back
SplineSet
540 225 m 1
 600 200 l 1
 600 200 600 139 600 100 c 27
 600 3 420 -150 420 -150 c 1025
720 50 m 17
 720 50 697 0 630 0 c 3
 517 0 480 60 480 60 c 9
 420 0 l 1
 420 0 399 85 360 125 c 24
 337 149 270 150 270 150 c 1025
95 50 m 25
 145 0 l 1049
95 400 m 25
 145 350 l 1049
120 375 m 9
 120 25 l 1025
240 120 m 1
 420 300 l 1
 240 400 l 1
 120 280 l 1049
EndSplineSet
Fore
SplineSet
220 83 m 1xec
 203 100 l 1
 290 187 l 1
 378 275 l 1
 220 363 l 2
 220 363 163 306 157 300 c 1
 157 45 l 1
 182 20 l 1
 125 -37 l 1
 100 -12 l 1
 83 5 l 1
 58 30 l 1
 83 55 l 1
 83 260 l 1
 83 355 l 1
 58 380 l 1
 115 437 l 1
 140 412 l 1
 157 395 l 1
 182 370 l 1
 157 345 l 1
 157 334 l 1
 260 437 l 1
 440 337 l 1
 457 320 l 1
 321 184 l 1
 341 181 366 175 379 163 c 0
 379 162 l 2
 396 145 l 2
 397 145 l 0
 422 119 439 75 449 46 c 1
 500 97 l 1
 517 80 l 1
 517 80 517 78 519 76 c 0
 528 68 542 60 559 53 c 1
 562 62 563 71 563 80 c 2
 563 170 l 1
 520 188 l 1
 503 205 l 1
 560 262 l 1
 620 237 l 1
 637 220 l 1
 637 120 l 2
 637 96 626 68 609 40 c 1
 621 38 635 37 650 37 c 0
 672 37 689 42 703 50 c 1
 740 87 l 1
 757 70 l 1
 757 70 752 60 741 49 c 2
 684 -8 l 2
 670 -22 647 -37 610 -37 c 0
 589 -37 572 -34 556 -31 c 1
 540 -49 524 -66 509 -81 c 2
 453 -138 l 2
 424 -167 400 -187 400 -187 c 1
 383 -170 l 1
 440 -113 l 1
 440 -113 449 -105 463 -92 c 0
 483 -70 504 -46 521 -21 c 1
 496 -11 479 2 470 11 c 2
 459 22 l 1
 400 -37 l 1
 383 -20 l 1
 383 -20 365 53 332 95 c 1
 304 113 250 113 250 113 c 2
 220 83 l 1xec
EndSplineSet
EndChar
StartChar: um
Encoding: 42872 42872 958
Width: 480
Flags: W
HStem: -187 21G<83 120> 417 20G<240 277 417.778 457> 417 20G<240 277 417.778 457>
VStem: 83 74<-130 1.62573>
LayerCount: 2
Back
SplineSet
120 -150 m 1
 120 -150 120 -58 120 0 c 3
 120 141 420 400 420 400 c 1
 420 400 364 340 330 340 c 0
 277 340 240 400 240 400 c 9
 120 280 l 1
 120 240 l 1
 360 160 l 1
 360 120 l 1
 240 0 l 17
 240 0 180 60 150 60 c 24
 120 60 60 0 60 0 c 1025
EndSplineSet
Fore
SplineSet
301 304 m 1x90
 277 307 256 322 242 336 c 2
 225 353 l 2
 225 354 l 0
 223 356 220 359 218 361 c 2
 157 300 l 1
 157 271 l 1
 242 243 l 1
 259 261 275 278 291 294 c 2
 301 304 l 1x90
178 96 m 1
 210 88 260 37 260 37 c 1
 323 100 l 1
 323 129 l 1
 218 164 l 1
 202 141 189 118 178 96 c 1
100 -187 m 1
 83 -170 l 1
 83 -20 l 2
 83 -13 84 -6 85 2 c 1
 61 -15 40 -37 40 -37 c 1
 23 -20 l 1
 80 37 l 1
 80 37 92 48 107 61 c 1
 123 93 146 126 171 159 c 0
 175 164 180 170 184 175 c 1
 100 203 l 1
 83 220 l 1
 83 260 l 1
 260 437 l 1
 277 420 l 2
 277 420 281 412 290 402 c 0
 305 389 326 377 350 377 c 0
 355 377 360 378 366 380 c 0
 377 384 389 393 400 401 c 0
 424 423 440 437 440 437 c 1xd0
 457 420 l 1
 457 420 455 418 451 414 c 2
 394 357 l 2
 387 350 375 338 361 327 c 0
 354 320 345 313 337 305 c 0
 321 288 303 269 286 249 c 0
 282 244 277 238 272 233 c 1
 380 197 l 1
 397 180 l 1
 397 140 l 1
 220 -37 l 1
 220 -37 187 -3 157 14 c 1
 157 -130 l 1
 100 -187 l 1
EndSplineSet
EndChar
StartChar: thornbar_longs
Encoding: 59189 59189 885
Width: 480
Flags: W
HStem: -237 74<26.134 89.6482> -187 74<-97.6401 -27.2399> 417 20G<240 280> 417 20G<240 280> 438 74<50 113 187 220> 613 14<380 431>
VStem: 113 74<-130 -6 81.4108 256 290 330 364 438> 323 74<140 300>
LayerCount: 2
Back
SplineSet
240 475 m 25
 30 475 l 1049
-150 -200 m 17
 -150 -200 -106 -150 -60 -150 c 8
 -35 -150 33 -200 60 -200 c 24
 86 -200 150 -150 150 -150 c 1
 150 530 l 1
 270 650 l 17
 270 650 300 590 360 590 c 24
 388 590 450 650 451 650 c 1033
60 0 m 1
 60 0 115 60 150 60 c 0
 185 60 240 0 240 0 c 9
 360 120 l 1
 360 280 l 25
 240 400 l 1
 120 280 l 1049
EndSplineSet
Fore
SplineSet
40 -37 m 1x8f
 23 -20 l 1
 23 -20 26 -17 31 -12 c 2
 87 44 l 2
 93 50 102 59 113 68 c 1
 113 256 l 1
 100 243 l 1
 83 260 l 1
 113 290 l 1
 113 438 l 1
 10 438 l 1
 -7 455 l 1
 50 512 l 1
 115 512 l 1
 290 687 l 1
 307 670 l 1
 307 670 312 660 321 649 c 0
 336 637 355 627 380 627 c 0
 408 627 470 687 471 687 c 2
 488 670 l 1
 431 613 l 2
 430 613 368 553 340 553 c 0
 310 553 288 568 273 583 c 2
 256 600 l 2
 253 603 250 607 247 610 c 1
 187 550 l 1
 187 512 l 1
 260 512 l 1
 277 495 l 1
 220 438 l 1
 187 438 l 1
 187 364 l 1
 260 437 l 1
 397 300 l 1
 397 140 l 1
 220 -37 l 1
 205 -21 l 2
 200 -16 194 -11 187 -6 c 1
 187 -130 l 1
 130 -187 l 1x6f
 130 -187 66 -237 40 -237 c 0x8f
 13 -237 -55 -187 -80 -187 c 0x4f
 -112 -187 -142 -210 -158 -225 c 2
 -170 -237 l 1x8f
 -187 -220 l 1
 -187 -220 -185 -217 -182 -214 c 2
 -125 -158 l 2
 -125 -157 l 0
 -111 -143 -76 -113 -40 -113 c 0x4f
 -15 -113 53 -163 80 -163 c 0
 88 -163 100 -158 113 -151 c 1
 113 20 l 1
 93 12 71 -7 56 -21 c 2
 40 -37 l 1x8f
187 93 m 1
 212 83 239 57 252 44 c 2
 260 37 l 1
 323 100 l 1
 323 260 l 2
 323 316 250 333 220 363 c 1
 187 330 l 1
 187 93 l 1
EndSplineSet
LCarets2: 1 240 
Ligature2: "Historic ligatures-1" thornbar longs
EndChar
StartChar: hbar_longs
Encoding: 59335 59335 963
Width: 509
Flags: W
HStem: -237 74<26.134 89.6482> -187 74<-97.6401 -27.2399> 417 20G<300 340> 417 20G<300 340> 438 74<50 113 187 220> 613 14<380 431>
VStem: 113 74<-130 270 304 438> 353 74<55 328.03>
LayerCount: 2
Back
SplineSet
365 50 m 25
 415 0 l 1049
390 25 m 25
 390 310 l 25
 300 400 l 1
 150 250 l 1049
-150 -200 m 17
 -150 -200 -106 -150 -60 -150 c 8
 -35 -150 33 -200 60 -200 c 24
 86 -200 150 -150 150 -150 c 1
 150 530 l 1
 270 650 l 17
 270 650 300 590 360 590 c 24
 388 590 450 650 451 650 c 1033
240 475 m 25
 30 475 l 1049
EndSplineSet
Fore
SplineSet
277 495 m 1x8f
 220 438 l 1
 187 438 l 1
 187 304 l 1
 320 437 l 1
 427 330 l 1
 427 45 l 1
 452 20 l 1
 395 -37 l 1
 370 -12 l 1
 353 5 l 1
 328 30 l 1
 353 55 l 1
 353 290 l 2
 353 329 301 342 280 363 c 1
 187 270 l 1
 187 -130 l 1
 130 -187 l 1x6f
 130 -187 66 -237 40 -237 c 0x8f
 13 -237 -55 -187 -80 -187 c 0x4f
 -112 -187 -142 -210 -158 -225 c 2
 -170 -237 l 1x8f
 -187 -220 l 1
 -187 -220 -185 -217 -182 -214 c 2
 -125 -158 l 2
 -125 -157 l 0
 -111 -143 -76 -113 -40 -113 c 0x4f
 -15 -113 53 -163 80 -163 c 0
 88 -163 100 -158 113 -151 c 1
 113 230 l 1
 113 438 l 1
 10 438 l 1
 -7 455 l 1
 50 512 l 1
 115 512 l 1
 290 687 l 1
 307 670 l 1
 307 670 312 660 321 649 c 0
 336 637 355 627 380 627 c 0
 408 627 470 687 471 687 c 2
 488 670 l 1
 431 613 l 2
 430 613 368 553 340 553 c 0
 310 553 288 568 273 583 c 2
 256 600 l 2
 253 603 250 607 247 610 c 1
 187 550 l 1
 187 512 l 1
 260 512 l 1
 277 495 l 1x8f
EndSplineSet
LCarets2: 1 270 
Ligature2: "Historic ligatures-1" hbar longs
EndChar
StartChar: q_v
Encoding: 60113 60113 967
Width: 720
Flags: W
HStem: -187 21G<323 360> 315 74<272.5 321.905> 417 20G<240 277 360 397> 417 20G<240 277 360 397 625.5 643>
VStem: 83 74<140 260> 323 74<-130 27 140 338> 503 74<434.013 499.643> 563 74<140 350>
LayerCount: 2
Back
SplineSet
360 120 m 9
 240 0 l 25
 120 120 l 25
 120 280 l 25
 240 400 l 1
 240 400 264 352 300 352 c 24
 336 352 360 400 360 400 c 9
 360 -150 l 1049
360 120 m 1
 480 0 l 25
 600 120 l 1
 600 370 l 17
 600 370 540 423 540 472 c 8
 540 521 604 550 606 550 c 1033
EndSplineSet
Fore
SplineSet
323 66 m 1xed
 220 -37 l 1
 83 100 l 1
 83 260 l 1
 260 437 l 1
 277 420 l 1
 277 420 282 410 290 400 c 0
 299 393 309 389 320 389 c 0
 325 389 330 389 334 391 c 2
 380 437 l 1
 397 420 l 1
 397 140 l 1
 500 37 l 1
 563 100 l 1
 563 350 l 1xed
 556 357 l 2
 540 373 503 414 503 452 c 0
 503 472 514 489 527 502 c 2
 583 558 l 2
 602 576 625 587 626 587 c 2
 643 570 l 1
 586 513 l 2
 586 513 583 513 580 511 c 0
 578 506 577 499 577 492 c 0xee
 577 459 603 425 621 405 c 2
 637 390 l 1
 637 140 l 1
 460 -37 l 1
 397 27 l 1
 397 -130 l 1
 340 -187 l 1
 323 -170 l 1
 323 66 l 1xed
323 100 m 1
 323 338 l 1
 319 334 l 2
 309 324 296 315 280 315 c 0
 265 315 252 324 242 334 c 2
 225 351 l 2
 222 354 219 357 217 360 c 2
 157 300 l 1
 157 140 l 1
 260 37 l 1
 323 100 l 1
EndSplineSet
LCarets2: 1 360 
Ligature2: "Ligatures-1" q v
EndChar
StartChar: g_p
Encoding: 60114 60114 501
Width: 720
Flags: W
HStem: -237 74<234.611 305.121> -187 74<112.36 185.389> 417 20G<240 277 360 397 480 520> 417 20G<240 277 360 397 480 520>
VStem: 83 74<140 260> 323 74<-127 2 94 96 130 300 334 341> 563 74<140 300>
CounterMasks: 1 0e
LayerCount: 2
Back
SplineSet
300 0 m 1
 300 0 355 60 390 60 c 0
 425 60 480 0 480 0 c 9
 600 120 l 1
 600 280 l 25
 480 400 l 1
 360 280 l 1049
60 -200 m 17
 60 -200 104 -150 150 -150 c 8
 201 -150 219 -200 270 -200 c 24
 310 -200 360 -150 360 -150 c 9
 360 400 l 1
 360 400 330 352 300 352 c 24
 270 352 240 400 240 400 c 1
 120 280 l 25
 120 120 l 25
 210 0 l 1
 360 150 l 1049
360 -150 m 9
 420 -200 l 1025
EndSplineSet
Fore
SplineSet
323 341 m 1x0e
 318 336 l 2
 318 335 l 0
 307 324 293 315 280 315 c 0
 266 315 253 325 242 336 c 2
 225 353 l 1
 223 355 220 359 218 361 c 2
 157 300 l 1
 157 140 l 1
 232 39 l 1
 323 130 l 1
 323 260 l 1
 323 341 l 1x0e
323 96 m 1
 190 -37 l 1
 173 -20 l 1
 83 100 l 1
 83 260 l 1
 260 437 l 1
 277 420 l 2
 277 420 282 412 290 402 c 0
 298 395 310 389 320 389 c 0
 325 389 330 390 336 393 c 2
 380 437 l 1
 397 420 l 1
 397 334 l 1
 500 437 l 1
 637 300 l 1
 637 140 l 1
 460 -37 l 1
 445 -21 l 2
 433 -10 415 6 397 15 c 1
 397 -127 l 1
 440 -163 l 1
 457 -180 l 1
 400 -237 l 1xae
 340 -187 l 1x4e
 340 -187 290 -237 250 -237 c 0x8e
 199 -237 181 -187 130 -187 c 0x4e
 98 -187 68 -210 52 -225 c 2
 40 -237 l 1x8e
 23 -220 l 1
 23 -220 25 -217 28 -214 c 2
 85 -158 l 2
 85 -157 l 0
 99 -143 134 -113 170 -113 c 0x4e
 221 -113 239 -163 290 -163 c 0x8e
 301 -163 313 -159 323 -154 c 1
 323 2 l 1
 313 -6 304 -14 296 -21 c 2
 280 -37 l 1
 263 -20 l 1
 263 -20 266 -17 271 -12 c 2
 323 40 l 1
 323 96 l 1
397 300 m 1
 397 94 l 1
 402 95 406 97 410 97 c 0
 437 97 476 60 492 44 c 2
 500 37 l 1
 563 100 l 1
 563 260 l 2
 563 316 490 333 460 363 c 1
 397 300 l 1
EndSplineSet
LCarets2: 1 360 
Ligature2: "Historic ligatures-1" g p
EndChar
StartChar: longs_h
Encoding: 60321 60321 707
Width: 780
Flags: W
HStem: -237 74<24.611 95.1212> -187 74<-97.6401 -24.611> 417 20G<570 610> 417 20G<570 610> 564 73<326.272 383>
VStem: 113 74<-130 510> 383 74<55 270 304 564> 623 74<55 328.03>
LayerCount: 2
Back
SplineSet
635 50 m 25
 685 0 l 1049
395 50 m 25
 445 0 l 1049
660 25 m 25
 660 310 l 25
 570 400 l 1
 420 250 l 1049
-150 -200 m 17
 -150 -200 -106 -150 -60 -150 c 8
 -9 -150 9 -200 60 -200 c 24
 100 -200 150 -150 150 -150 c 1
 150 530 l 1
 270 650 l 1
 270 650 304 600 420 600 c 9
 420 25 l 1025
EndSplineSet
Fore
SplineSet
-170 -237 m 1x8f
 -187 -220 l 1
 -187 -220 -185 -217 -182 -214 c 2
 -125 -158 l 2
 -125 -157 l 0
 -111 -143 -76 -113 -40 -113 c 0x4f
 11 -113 29 -163 80 -163 c 0x8f
 91 -163 103 -159 113 -154 c 1
 113 510 l 1
 290 687 l 1
 302 674 l 2
 320 659 362 637 440 637 c 1
 457 620 l 1
 457 304 l 1
 590 437 l 1
 697 330 l 1
 697 45 l 1
 722 20 l 1
 665 -37 l 1
 640 -12 l 1
 623 5 l 1
 598 30 l 1
 623 55 l 1
 623 290 l 2
 623 329 571 342 550 363 c 1
 457 270 l 1
 457 45 l 1
 482 20 l 1
 425 -37 l 1
 400 -12 l 1
 383 5 l 1
 358 30 l 1
 383 55 l 1
 383 230 l 1
 383 564 l 1
 304 568 267 595 255 607 c 2
 250 613 l 1
 187 550 l 1
 187 -130 l 1
 130 -187 l 1x6f
 130 -187 80 -237 40 -237 c 0x8f
 -11 -237 -29 -187 -80 -187 c 0x4f
 -112 -187 -142 -210 -158 -225 c 2
 -170 -237 l 1x8f
EndSplineSet
LCarets2: 1 360 
Ligature2: "Ligatures-1" longs h
EndChar
StartChar: longs_p
Encoding: 60325 60325 709
Width: 780
Flags: W
HStem: -237 74<24.611 95.1212> -187 74<-97.6401 -24.611> 417 20G<540 580> 417 20G<540 580> 553 74<357.864 460>
VStem: 113 74<-130 510> 383 74<-130 -1 81.3337 300> 623 74<140 300>
LayerCount: 2
Back
SplineSet
300 0 m 1
 300 0 355 60 390 60 c 11
 454 60 540 0 540 0 c 9
 660 120 l 1
 660 280 l 25
 540 400 l 1
 420 280 l 1049
420 370 m 1
 420 -150 l 1025
-150 -200 m 17
 -150 -200 -106 -150 -60 -150 c 8
 -9 -150 9 -200 60 -200 c 24
 100 -200 150 -150 150 -150 c 1
 150 530 l 1
 270 650 l 17
 270 650 324 590 480 590 c 3
 522 590 571 650 571 650 c 9
 360 430 l 9
 450 340 l 1025
EndSplineSet
Fore
SplineSet
577 638 m 1x8f
 397 450 l 2
 396 449 418 426 439 406 c 1
 440 407 l 1
 457 390 l 1
 457 389 l 1
 464 383 469 378 470 377 c 2
 485 362 l 1
 560 437 l 1
 697 300 l 1
 697 140 l 1
 520 -37 l 1
 520 -37 493 -18 457 -1 c 1
 457 -130 l 1
 400 -187 l 1
 383 -170 l 1
 383 22 l 1
 379 22 374 23 370 23 c 0
 347 23 315 -3 296 -21 c 2
 280 -37 l 1
 263 -20 l 1
 263 -20 266 -17 271 -12 c 2
 327 44 l 2
 338 55 361 77 383 89 c 1
 383 260 l 1
 383 350 l 1
 323 410 l 1
 460 553 l 1
 315 553 259 604 251 612 c 2
 250 613 l 1
 187 550 l 1
 187 -130 l 1
 130 -187 l 1x6f
 130 -187 80 -237 40 -237 c 0x8f
 -11 -237 -29 -187 -80 -187 c 0x4f
 -112 -187 -142 -210 -158 -225 c 2
 -170 -237 l 1x8f
 -187 -220 l 1
 -187 -220 -185 -217 -182 -214 c 2
 -125 -158 l 2
 -125 -157 l 0
 -111 -143 -76 -113 -40 -113 c 0x4f
 11 -113 29 -163 80 -163 c 0
 91 -163 103 -159 113 -154 c 1
 113 510 l 1
 290 687 l 1
 292 685 l 2
 303 675 361 627 500 627 c 0
 520 627 542 641 559 655 c 2
 591 687 l 1
 608 670 l 1
 608 670 602 662 593 653 c 2
 577 638 l 1x8f
457 300 m 1
 457 89 l 1
 509 73 560 37 560 37 c 1
 560 37 617 94 623 100 c 1
 623 260 l 2
 623 316 550 333 520 363 c 1
 457 300 l 1
EndSplineSet
LCarets2: 1 360 
Ligature2: "Ligatures-1" longs p
EndChar
StartChar: k_longs
Encoding: 60334 60334 566
Width: 509
Flags: W
HStem: -237 74<26.134 89.6482> -187 74<-97.6401 -27.2399> 442 20G<365 405> 613 14<380 431>
VStem: 113 74<-130 199 247 510> 353 74<55 174>
LayerCount: 2
Back
SplineSet
-150 -200 m 17
 -150 -200 -106 -150 -60 -150 c 8
 -35 -150 33 -200 60 -200 c 24
 86 -200 150 -150 150 -150 c 1
 150 530 l 1
 270 650 l 17
 270 650 300 590 360 590 c 24
 388 590 450 650 451 650 c 1033
365 50 m 25
 415 0 l 1049
270 275 m 1
 390 200 l 1
 390 25 l 1025
150 200 m 1
 390 350 l 9
 390 400 l 1049
365 425 m 25
 415 375 l 1049
EndSplineSet
Fore
SplineSet
328 405 m 1xbc
 385 462 l 1
 410 437 l 1
 427 420 l 1
 452 395 l 1
 427 370 l 1
 395 338 l 1
 370 313 l 1
 329 287 l 1
 410 237 l 1
 427 220 l 1
 427 45 l 1
 452 20 l 1
 395 -37 l 1
 370 -12 l 1
 353 5 l 1
 328 30 l 1
 353 55 l 1
 353 174 l 1
 250 238 l 1
 187 199 l 1
 187 -130 l 1
 130 -187 l 1x7c
 130 -187 66 -237 40 -237 c 0xbc
 13 -237 -55 -187 -80 -187 c 0x7c
 -112 -187 -142 -210 -158 -225 c 2
 -170 -237 l 1xbc
 -187 -220 l 1
 -187 -220 -185 -217 -182 -214 c 2
 -125 -158 l 2
 -125 -157 l 0
 -111 -143 -76 -113 -40 -113 c 0x7c
 -15 -113 53 -163 80 -163 c 0
 88 -163 100 -158 113 -151 c 1
 113 180 l 1
 113 510 l 1
 290 687 l 1
 307 670 l 1
 307 670 312 660 321 649 c 0
 336 637 355 627 380 627 c 0
 408 627 470 687 471 687 c 2
 488 670 l 1
 431 613 l 2
 430 613 368 553 340 553 c 0
 310 553 288 568 273 583 c 2
 256 600 l 2
 253 603 250 607 247 610 c 1
 187 550 l 1
 187 247 l 1
 290 312 l 1
 353 351 l 1
 353 380 l 1
 328 405 l 1xbc
EndSplineSet
LCarets2: 1 270 
Ligature2: "Historic ligatures-1" k longs
EndChar
StartChar: b_b
Encoding: 61122 61122 349
Width: 720
GlyphClass: 3
Flags: W
HStem: 417 20G<240 279.688 480 520> 417 20G<240 279.688 480 520>
VStem: 83 74<100 300 334 570> 323 74<100 300 373 570> 563 74<140 300>
CounterMasks: 1 38
LayerCount: 2
Back
SplineSet
335 625 m 25
 385 575 l 1049
360 600 m 9
 360 120 l 25
 480 0 l 25
 600 120 l 25
 600 280 l 25
 480 400 l 1
 360 280 l 1049
95 625 m 25
 145 575 l 1049
120 600 m 9
 120 120 l 25
 240 0 l 25
 360 120 l 25
 360 280 l 25
 240 400 l 1
 120 280 l 1049
EndSplineSet
Fore
SplineSet
157 300 m 1x38
 157 140 l 2
 157 84 230 67 260 37 c 1
 323 100 l 1
 323 260 l 2
 323 316 250 333 220 363 c 1
 157 300 l 1x38
157 334 m 1
 260 437 l 1
 323 373 l 1
 323 580 l 1
 298 605 l 1
 355 662 l 1
 380 637 l 1
 397 620 l 1
 422 595 l 1
 397 570 l 1
 397 334 l 1
 500 437 l 1xb8
 637 300 l 1
 637 140 l 1
 460 -37 l 1
 340 83 l 1
 220 -37 l 1
 83 100 l 1
 83 580 l 1
 58 605 l 1
 115 662 l 1
 140 637 l 1
 157 620 l 1
 182 595 l 1
 157 570 l 1
 157 334 l 1
397 300 m 1
 397 140 l 2
 397 84 470 67 500 37 c 1
 563 100 l 1
 563 260 l 2
 563 316 490 333 460 363 c 1
 397 300 l 1
EndSplineSet
LCarets2: 1 360 
Ligature2: "Historic ligatures-1" b b
EndChar
StartChar: f_r
Encoding: 61130 61130 352
Width: 660
GlyphClass: 3
Flags: W
HStem: -237 74<26.134 89.6482> -187 74<-97.6401 -27.2399> 363 74<80 113 187 375> 417 20G<540 580> 613 14<380 431>
VStem: 113 74<-130 363 437 510> 383 74<55 300 334 345>
LayerCount: 2
Back
SplineSet
-150 -200 m 1
 -150 -200 -106 -150 -60 -150 c 8
 -35 -150 33 -200 60 -200 c 24
 86 -200 150 -150 150 -150 c 1
 150 530 l 1
 270 650 l 17
 270 650 300 590 360 590 c 24
 388 590 450 650 451 650 c 1025
60 400 m 1
 395 400 l 25
 445 350 l 1025
600 340 m 25
 540 400 l 25
 420 280 l 1049
395 50 m 25
 445 0 l 1049
420 375 m 9
 420 25 l 1025
EndSplineSet
Fore
SplineSet
637 360 m 1x1e
 580 303 l 1
 520 363 l 1
 457 300 l 1
 457 45 l 1
 482 20 l 1
 425 -37 l 1
 392 -3 l 1
 383 5 l 1
 358 30 l 1
 383 55 l 1
 383 260 l 1
 383 355 l 1
 375 363 l 1
 187 363 l 1
 187 -130 l 1
 130 -187 l 1x6e
 130 -187 66 -237 40 -237 c 0x8e
 13 -237 -55 -187 -80 -187 c 0x4e
 -112 -187 -142 -210 -158 -225 c 2
 -170 -237 l 1x8e
 -187 -220 l 1
 -187 -220 -185 -217 -182 -214 c 2
 -125 -158 l 2
 -125 -157 l 0
 -111 -143 -76 -113 -40 -113 c 0x4e
 -15 -113 53 -163 80 -163 c 0
 88 -163 100 -158 113 -151 c 1
 113 363 l 1
 40 363 l 1
 23 380 l 1
 80 437 l 1
 113 437 l 1
 113 510 l 1
 290 687 l 1
 307 670 l 1
 307 670 312 660 321 649 c 0
 336 637 355 627 380 627 c 0
 408 627 470 687 471 687 c 2
 488 670 l 1
 431 613 l 2
 430 613 368 553 340 553 c 0
 310 553 288 568 273 583 c 2
 256 600 l 2
 253 603 250 607 247 610 c 1
 187 550 l 1
 187 437 l 1xae
 415 437 l 1
 440 412 l 1
 457 395 l 1
 482 370 l 1
 457 345 l 1
 457 334 l 1
 560 437 l 1
 637 360 l 1x1e
EndSplineSet
LCarets2: 1 360 
Ligature2: "Ligatures-1" f r
EndChar
StartChar: g_g
Encoding: 61137 61137 497
Width: 720
Flags: W
HStem: -237 74<236.134 299.648 471.436 542.745> -187 74<112.36 182.76> 334 55<290.377 319 530.377 559> 417 20G<240 277 360 397 480 517 600 637> 417 20G<240 277 360 397 480 517 600 637>
VStem: 83 74<100 260> 323 74<-115.927 27 100 300 334 338> 563 74<-130 66 100 338>
CounterMasks: 1 07
LayerCount: 2
Back
SplineSet
360 -150 m 8
 383 -130 472 -200 510 -200 c 0
 544 -200 600 -150 600 -150 c 9
 600 400 l 1
 600 400 576 352 540 352 c 24
 504 352 480 400 480 400 c 1
 360 280 l 25
 360 120 l 25
 480 0 l 25
 600 120 l 1041
60 -200 m 17
 60 -200 104 -150 150 -150 c 8
 175 -150 243 -200 270 -200 c 24
 296 -200 360 -150 360 -150 c 9
 360 400 l 1
 360 400 336 352 300 352 c 24
 264 352 240 400 240 400 c 1
 120 280 l 25
 120 120 l 25
 240 0 l 25
 360 120 l 1041
EndSplineSet
Fore
SplineSet
323 338 m 1x27
 319 334 l 2
 318 334 l 0
 308 324 295 315 280 315 c 0
 265 315 252 324 242 334 c 2
 225 351 l 2
 224 352 l 0
 221 355 219 358 217 360 c 2
 157 300 l 1
 157 140 l 2
 157 84 230 67 260 37 c 1
 323 100 l 1
 323 260 l 1
 323 338 l 1x27
323 66 m 1
 220 -37 l 1
 83 100 l 1
 83 260 l 1
 260 437 l 1
 277 420 l 2
 277 420 282 411 290 400 c 0
 298 394 309 389 320 389 c 0
 325 389 328 389 334 391 c 2
 380 437 l 1
 397 420 l 1
 397 334 l 1
 500 437 l 1
 517 420 l 2
 517 420 522 411 530 400 c 0
 538 394 549 389 560 389 c 0
 565 389 568 389 574 391 c 2
 620 437 l 1
 637 420 l 1
 637 -130 l 1
 580 -187 l 1x77
 580 -187 524 -237 490 -237 c 0xa7
 452 -237 363 -167 340 -187 c 1x67
 340 -187 276 -237 250 -237 c 0xa7
 223 -237 155 -187 130 -187 c 0x67
 98 -187 68 -210 52 -225 c 2
 40 -237 l 1xa7
 23 -220 l 1
 23 -220 25 -217 28 -214 c 2
 85 -158 l 2
 85 -157 l 0
 99 -143 134 -113 170 -113 c 0x67
 195 -113 263 -163 290 -163 c 0xa7
 298 -163 310 -158 323 -151 c 1
 323 66 l 1
563 338 m 1
 559 334 l 2
 558 334 l 0
 548 324 535 315 520 315 c 0
 505 315 492 324 482 334 c 2
 465 351 l 2
 464 352 l 0
 461 355 459 358 457 360 c 2
 397 300 l 1
 397 140 l 2
 397 84 470 67 500 37 c 1
 563 100 l 1
 563 338 l 1
563 66 m 1
 460 -37 l 1
 397 27 l 1
 397 -110 l 1
 432 -115 498 -163 530 -163 c 0xa7
 540 -163 552 -159 563 -153 c 1
 563 66 l 1
EndSplineSet
LCarets2: 1 360 
Ligature2: "Historic ligatures-1" g g
EndChar
StartChar: g_d
Encoding: 61138 61138 498
Width: 480
Flags: W
HStem: -237 74<236.134 299.648> -187 74<112.36 182.76> 334 55<290.377 319> 417 20G<240 277> 417 20G<240 277> 513 74<162.137 288.699>
VStem: 83 74<100 260 600.281 618.75> 323 74<-130 66 100 338 389 480.295>
LayerCount: 2
Back
SplineSet
360 400 m 1
 360 450 l 2
 360 504.529056756 293 550 240 550 c 0
 187 550 120 549 120 600 c 27
 120 633 180 670 169 650 c 1049
60 -200 m 17
 60 -200 104 -150 150 -150 c 8
 175 -150 243 -200 270 -200 c 24
 296 -200 360 -150 360 -150 c 9
 360 400 l 1
 360 400 336 352 300 352 c 24
 264 352 240 400 240 400 c 1
 120 280 l 25
 120 120 l 25
 240 0 l 25
 360 120 l 1041
EndSplineSet
Fore
SplineSet
323 338 m 1x27
 319 334 l 2
 318 334 l 0
 308 324 295 315 280 315 c 0
 265 315 252 324 242 334 c 2
 225 351 l 2
 224 352 l 0
 221 355 219 358 217 360 c 2
 157 300 l 1
 157 140 l 2
 157 84 230 67 260 37 c 1
 323 100 l 1
 323 338 l 1x27
323 66 m 1
 220 -37 l 1
 83 100 l 1
 83 260 l 1
 260 437 l 1
 277 420 l 2
 277 420 282 411 290 400 c 0
 298 394 309 389 320 389 c 0
 321 389 322 389 323 389 c 2
 323 430 l 2
 323 448 315 466 303 481 c 0
 279 501 248 513 220 513 c 0
 180 513 132 513 111 534 c 2
 94 551 l 2
 87 558 83 567 83 580 c 0
 83 593 93 607 103 617 c 2
 159 673 l 2
 160 674 l 2
 173 687 187 695 190 692 c 2
 207 675 l 2
 208 674 207 673 206 670 c 2
 157 621 l 2
 157 620 l 0
 157 612 158 606 161 600 c 0
 185 587 226 587 260 587 c 0
 291 587 328 570 352 546 c 2
 369 529 l 2
 386 512 397 492 397 470 c 2
 397 420 l 1
 397 -130 l 1
 340 -187 l 1x77
 340 -187 276 -237 250 -237 c 0xa7
 223 -237 155 -187 130 -187 c 0x67
 98 -187 68 -210 52 -225 c 2
 40 -237 l 1xa7
 23 -220 l 1
 23 -220 25 -217 28 -214 c 2
 85 -158 l 2
 85 -157 l 0
 99 -143 134 -113 170 -113 c 0x67
 195 -113 263 -163 290 -163 c 0xa7
 298 -163 310 -158 323 -151 c 1
 323 66 l 1
EndSplineSet
LCarets2: 1 240 
Ligature2: "Historic ligatures-1" g d
EndChar
StartChar: t_t
Encoding: 61145 61145 730
Width: 629
Flags: W
HStem: 363 74<80 113 187 353 427 520> 567 20G<150 187 390 427>
VStem: 113 74<51.4784 363 437 530> 353 74<51.4784 126 157 363 437 530>
LayerCount: 2
Back
SplineSet
390 550 m 1
 390 60 l 1
 450 0 l 1
 570 120 l 1025
60 400 m 1
 540 400 l 1041
150 550 m 1
 150 60 l 1
 210 0 l 1
 330 120 l 1025
EndSplineSet
Fore
SplineSet
170 587 m 1
 187 570 l 1
 187 437 l 1
 353 437 l 1
 353 530 l 1
 410 587 l 1
 427 570 l 1
 427 437 l 1
 560 437 l 1
 577 420 l 1
 520 363 l 1
 427 363 l 1
 427 80 l 2
 427 57 458 49 470 37 c 1
 590 157 l 1
 607 140 l 1
 430 -37 l 1
 353 40 l 1
 353 126 l 1
 190 -37 l 1
 113 40 l 1
 113 363 l 1
 40 363 l 1
 23 380 l 1
 80 437 l 1
 113 437 l 1
 113 530 l 1
 170 587 l 1
187 363 m 1
 187 80 l 2
 187 57 218 49 230 37 c 1
 350 157 l 1
 353 153 l 1
 353 363 l 1
 187 363 l 1
EndSplineSet
LCarets2: 1 360 
Ligature2: "Ligatures-1" t t
EndChar
StartChar: t_z
Encoding: 61148 61148 732
Width: 660
Flags: W
HStem: -237 74<419.809 482.852> -187 74<292.655 368.881> 313 74<188.389 409.538> 417 20G<60 87 428 520> 437 130G<60 87 150 187 428 520>
VStem: 113 74<51.4784 317 415 530> 503 74<-130 73>
LayerCount: 2
Back
SplineSet
60 400 m 1
 60 400 91 350 300 350 c 0
 427 350 480 400 480 400 c 1
 540 340 l 1
 360 200 l 1
 540 100 l 1
 540 -150 l 1
 540 -150 484 -200 450 -200 c 0
 412 -200 381 -150 330 -150 c 16
 284 -150 240 -200 240 -200 c 1033
150 550 m 1
 150 60 l 1
 210 0 l 1
 330 120 l 1025
EndSplineSet
Fore
SplineSet
170 587 m 1xb6
 187 570 l 1
 187 396 l 1
 220 391 264 387 320 387 c 0
 447 387 500 437 500 437 c 1
 577 360 l 1
 520 303 l 1
 412 219 l 1
 560 137 l 1
 577 120 l 1
 577 -130 l 1
 520 -187 l 1x76
 520 -187 464 -237 430 -237 c 0xa6
 392 -237 361 -187 310 -187 c 0x66
 278 -187 248 -211 232 -225 c 2
 220 -237 l 1xa6
 203 -220 l 1
 203 -220 205 -217 208 -214 c 2
 265 -158 l 2
 278 -145 313 -113 350 -113 c 0x66
 401 -113 432 -163 470 -163 c 0
 480 -163 491 -159 503 -153 c 1
 503 73 l 1
 340 163 l 1
 323 180 l 1
 380 237 l 1
 496 327 l 1
 460 363 l 1
 460 363 407 313 280 313 c 0
 244 313 213 315 187 317 c 1
 187 80 l 2
 187 57 218 49 230 37 c 1
 350 157 l 1
 367 140 l 1
 190 -37 l 1
 113 40 l 1
 113 329 l 1
 67 340 49 354 43 360 c 2
 26 377 l 2
 24 379 23 380 23 380 c 1
 80 437 l 1
 87 430 l 2
 92 426 100 421 113 415 c 1
 113 530 l 1
 170 587 l 1xb6
EndSplineSet
LCarets2: 1 360 
Ligature2: "Ligatures-1" t z
EndChar
StartChar: a_f
Encoding: 61347 61347 337
Width: 569
GlyphClass: 3
Flags: W
HStem: -237 74<236.134 299.648> -187 74<112.36 182.76> 188 74<232.385 323> 363 74<230 323 397 490> 613 14<590 641>
VStem: 83 74<110 140> 323 74<-130 96 130 188 262 363 437 510>
LayerCount: 2
Back
SplineSet
360 150 m 9
 210 0 l 1
 120 90 l 1
 120 160 l 1
 210 250 l 1
 210 250 232.928594192 225 300 225 c 3
 280.995781714 225 360 225 360 225 c 1033
60 -200 m 17
 60 -200 104 -150 150 -150 c 8
 175 -150 243 -200 270 -200 c 24
 296 -200 360 -150 360 -150 c 1
 360 530 l 1
 480 650 l 17
 480 650 510 590 570 590 c 24
 598 590 660 650 661 650 c 1033
510 400 m 1
 210 400 l 17
 120 310 l 1
 150 220 l 1033
EndSplineSet
Fore
SplineSet
547 420 m 1xbe
 490 363 l 1
 397 363 l 1
 397 245 l 1
 397 170 l 1
 397 -130 l 1
 340 -187 l 1x7e
 340 -187 276 -237 250 -237 c 0xbe
 223 -237 155 -187 130 -187 c 0x7e
 98 -187 68 -210 52 -225 c 2
 40 -237 l 1xbe
 23 -220 l 1
 23 -220 25 -217 28 -214 c 2
 85 -158 l 2
 85 -157 l 0
 99 -143 134 -113 170 -113 c 0x7e
 195 -113 263 -163 290 -163 c 0
 298 -163 310 -158 323 -151 c 1
 323 96 l 1
 190 -37 l 1
 83 70 l 1
 83 140 l 1
 128 185 l 1
 113 200 l 1
 83 290 l 1
 230 437 l 1
 323 437 l 1
 323 510 l 1
 500 687 l 1
 517 670 l 1
 517 670 522 660 531 649 c 0
 546 637 565 627 590 627 c 0
 618 627 680 687 681 687 c 2
 698 670 l 1
 641 613 l 2
 640 613 578 553 550 553 c 0
 520 553 498 568 483 583 c 2
 466 600 l 2
 463 603 460 607 457 610 c 1
 397 550 l 1
 397 437 l 1
 530 437 l 1
 547 420 l 1xbe
323 363 m 1
 190 363 l 2
 189 363 161 334 157 330 c 1
 186 243 l 1
 230 287 l 1
 230 286 l 2
 234 282 256 262 317 262 c 2
 323 262 l 1
 323 363 l 1
323 130 m 1
 323 188 l 1
 282 188 l 2
 218 188 193 210 190 213 c 2
 157 180 l 1
 157 110 l 1
 230 37 l 1
 323 130 l 1
EndSplineSet
LCarets2: 1 360 
Ligature2: "Historic ligatures-1" a f
EndChar
StartChar: a_p
Encoding: 61353 61353 342
Width: 720
GlyphClass: 3
Flags: W
HStem: -187 21G<323 360> 188 74<232.385 323> 417 20G<210 350 480 520> 417 20G<210 350 480 520>
VStem: 83 74<110 140> 323 74<-130 2 94 96 130 188 262 300 334 341> 563 74<140 300>
CounterMasks: 1 0e
LayerCount: 2
Back
SplineSet
150 220 m 17
 120 310 l 1
 210 400 l 1
 360 375 l 1
 360 150 l 9
 210 0 l 1
 120 90 l 1
 120 160 l 1
 210 250 l 1
 210 250 232.928594192 225 300 225 c 3
 280.995781714 225 360 225 360 225 c 1033
300 0 m 1
 300 0 355 60 390 60 c 0
 425 60 480 0 480 0 c 9
 600 120 l 1
 600 280 l 25
 480 400 l 1
 360 280 l 1049
360 -150 m 1
 360 375 l 1025
EndSplineSet
Fore
SplineSet
340 -187 m 1xee
 323 -170 l 1
 323 2 l 1
 313 -6 304 -14 296 -21 c 2
 280 -37 l 1
 263 -20 l 1
 263 -20 266 -17 271 -12 c 2
 323 40 l 1
 323 96 l 1
 190 -37 l 1
 83 70 l 1
 83 140 l 1
 128 185 l 1
 113 200 l 1
 83 290 l 1
 230 437 l 1
 380 412 l 1
 397 395 l 1
 397 334 l 1
 500 437 l 1
 637 300 l 1
 637 140 l 1
 460 -37 l 1
 445 -21 l 2
 433 -10 415 6 397 15 c 1
 397 -130 l 1
 340 -187 l 1xee
397 94 m 1
 402 95 406 97 410 97 c 0
 437 97 476 60 492 44 c 2
 500 37 l 1
 563 100 l 1
 563 260 l 2
 563 316 490 333 460 363 c 1
 397 300 l 1
 397 170 l 1
 397 94 l 1
323 341 m 1
 190 363 l 1
 157 330 l 1
 186 243 l 1
 230 287 l 1
 230 286 l 2
 234 282 256 262 317 262 c 0
 317 262 319 262 323 262 c 2
 323 341 l 1
323 130 m 1
 323 188 l 1
 282 188 l 2
 218 188 193 210 190 213 c 2
 157 180 l 1
 157 110 l 1
 230 37 l 1
 323 130 l 1
EndSplineSet
LCarets2: 1 360 
Ligature2: "Historic ligatures-1" a p
EndChar
StartChar: a_r
Encoding: 61354 61354 343
Width: 600
GlyphClass: 3
Flags: W
HStem: 188 74<232.385 323> 417 20G<210 350 480 520> 417 20G<210 350 480 520>
VStem: 83 74<110 140> 323 74<50 96 130 188 262 300 334 341>
LayerCount: 2
Back
SplineSet
150 220 m 17
 120 310 l 1
 210 400 l 1
 360 375 l 1
 360 150 l 9
 210 0 l 1
 120 90 l 1
 120 160 l 1
 210 250 l 1
 210 250 232.928594192 225 300 225 c 3
 280.995781714 225 360 225 360 225 c 1033
450 60 m 25
 390 0 l 1
 360 30 l 1
 360 375 l 1025
540 340 m 25
 480 400 l 25
 360 280 l 1049
EndSplineSet
Fore
SplineSet
577 360 m 1xd8
 520 303 l 1
 460 363 l 1
 397 300 l 1
 397 170 l 1
 397 50 l 1
 410 37 l 1
 470 97 l 1
 487 80 l 1
 370 -37 l 1
 323 10 l 1
 323 96 l 1
 190 -37 l 1
 83 70 l 1
 83 140 l 1
 128 185 l 1
 113 200 l 1
 83 290 l 1
 230 437 l 1
 380 412 l 1
 397 395 l 1
 397 334 l 1
 500 437 l 1
 577 360 l 1xd8
323 341 m 1
 190 363 l 1
 157 330 l 1
 186 243 l 1
 230 287 l 1
 230 286 l 2
 234 282 256 262 317 262 c 0
 317 262 319 262 323 262 c 2
 323 341 l 1
323 130 m 1
 323 188 l 1
 282 188 l 2
 218 188 193 210 190 213 c 2
 157 180 l 1
 157 110 l 1
 230 37 l 1
 323 130 l 1
EndSplineSet
LCarets2: 1 360 
Ligature2: "Historic ligatures-1" a r
EndChar
StartChar: f_f
Encoding: 64256 64256 320
Width: 600
Flags: W
HStem: -237 74<26.134 89.6482 252.243 332.745> -187 74<-97.6401 -27.2399> 363 74<80 113 187 353 427 520> 613 14<620 671>
VStem: 113 74<-122.421 363 437 510> 353 74<-130 363 437 510.106>
LayerCount: 2
Back
SplineSet
150 -150 m 1
 187 -150 262 -200 300 -200 c 0
 334 -200 390 -150 390 -150 c 1
 390 530 l 1
 510 650 l 17
 510 650 540 590 600 590 c 24
 628 590 690 650 691 650 c 1033
-150 -200 m 17
 -150 -200 -106 -150 -60 -150 c 8
 -35 -150 33 -200 60 -200 c 24
 86 -200 150 -150 150 -150 c 1
 150 530 l 1
 270 650 l 1
 270 650 337 530 390 530 c 1025
60 400 m 25
 540 400 l 1049
EndSplineSet
Fore
SplineSet
23 380 m 1xbc
 80 437 l 1
 113 437 l 1
 113 510 l 1
 290 687 l 1
 307 670 l 1
 307 670 333 625 364 590 c 0
 379 576 395 567 410 567 c 1
 530 687 l 1
 547 670 l 1
 547 670 552 660 561 649 c 0
 576 637 595 627 620 627 c 0
 648 627 710 687 711 687 c 2
 728 670 l 1
 671 613 l 2
 670 613 608 553 580 553 c 0
 550 553 528 568 513 583 c 0
 496 600 l 2
 493 603 490 607 487 610 c 1
 427 550 l 1
 427 437 l 1
 560 437 l 1
 577 420 l 1
 520 363 l 1
 427 363 l 1
 427 -130 l 1
 370 -187 l 1x7c
 370 -187 314 -237 280 -237 c 0xbc
 242 -237 167 -187 130 -187 c 1x7c
 130 -187 66 -237 40 -237 c 0xbc
 13 -237 -55 -187 -80 -187 c 0x7c
 -112 -187 -142 -210 -158 -225 c 2
 -170 -237 l 1xbc
 -187 -220 l 1
 -187 -220 -185 -217 -182 -214 c 2
 -125 -158 l 2
 -125 -157 l 0
 -111 -143 -76 -113 -40 -113 c 0x7c
 -15 -113 53 -163 80 -163 c 0
 88 -163 100 -158 113 -151 c 1
 113 363 l 1
 40 363 l 1
 23 380 l 1xbc
187 437 m 1
 353 437 l 1
 353 497 l 1
 341 502 328 512 316 524 c 0
 315 524 l 1
 298 541 l 2
 277 562 258 590 246 609 c 1
 187 550 l 1
 187 437 l 1
187 363 m 1
 187 -116 l 1
 227 -126 287 -163 320 -163 c 0xbc
 330 -163 342 -159 353 -153 c 1
 353 363 l 1
 187 363 l 1
EndSplineSet
LCarets2: 1 360 
Ligature2: "Ligatures-1" f f
EndChar
StartChar: f_l
Encoding: 64258 64258 323
Width: 540
Flags: W
HStem: -237 74<26.0848 87.9866> -187 74<-97.6401 -27.7931> 363 74<80 113 187 340> 588 74<299.241 375>
VStem: 113 74<-130 363 437 510> 383 74<55 406 433 570>
LayerCount: 2
Back
SplineSet
-150 -200 m 17
 -150 -200 -106 -150 -60 -150 c 8
 -41.5 -150 39 -200 60 -200 c 24
 82.5 -200 150 -150 150 -150 c 1
 150 530 l 1
 270 650 l 1
 270 650 335 625 395 625 c 9
 445 575 l 1025
60 400 m 25
 360 400 l 1049
395 50 m 25
 445 0 l 25
 495 50 l 1049
420 600 m 9
 420 25 l 1049
EndSplineSet
Fore
SplineSet
23 380 m 1xbc
 80 437 l 1
 113 437 l 1
 113 510 l 1
 290 687 l 1
 290 687 355 662 415 662 c 1
 440 637 l 1
 457 620 l 1
 482 595 l 1
 457 570 l 1
 457 45 l 1
 465 37 l 1
 515 87 l 1
 532 70 l 1
 425 -37 l 1
 400 -12 l 1
 383 5 l 1
 358 30 l 1
 383 55 l 1
 383 406 l 1
 340 363 l 1
 187 363 l 1
 187 -130 l 1
 130 -187 l 1x7c
 130 -187 62 -237 40 -237 c 0xbc
 19 -237 -62 -187 -80 -187 c 0x7c
 -112 -187 -142 -210 -158 -225 c 2
 -170 -237 l 1xbc
 -187 -220 l 1
 -187 -220 -185 -217 -182 -214 c 2
 -125 -158 l 2
 -125 -157 l 0
 -111 -143 -76 -113 -40 -113 c 0x7c
 -22 -113 59 -163 80 -163 c 0
 87 -163 101 -157 113 -150 c 1
 113 363 l 1
 40 363 l 1
 23 380 l 1xbc
383 433 m 1
 383 580 l 1
 375 588 l 1
 315 588 250 613 250 613 c 1
 187 550 l 1
 187 437 l 1
 380 437 l 1
 383 433 l 1
EndSplineSet
LCarets2: 1 360 
Ligature2: "Ligatures-1" f l
EndChar
StartChar: f_f_l
Encoding: 64260 64260 325
Width: 780
Flags: W
HStem: -237 74<26.134 89.6482 252.243 332.745> -187 74<-97.6401 -27.2399> 363 74<80 113 187 353 427 580> 588 74<539.241 615>
VStem: 113 74<-122.421 363 437 510> 353 74<-130 363 437 510.106> 623 74<55 406 433 570>
LayerCount: 2
Back
SplineSet
150 -150 m 1
 187 -150 262 -200 300 -200 c 0
 334 -200 390 -150 390 -150 c 1
 390 530 l 1
 510 650 l 17
 510 650 575 625 635 625 c 1
 685 575 l 1025
-150 -200 m 17
 -150 -200 -106 -150 -60 -150 c 8
 -35 -150 33 -200 60 -200 c 24
 86 -200 150 -150 150 -150 c 1
 150 530 l 1
 270 650 l 1
 270 650 337 530 390 530 c 1025
60 400 m 25
 600 400 l 1049
635 50 m 25
 685 0 l 25
 735 50 l 1049
660 600 m 9
 660 25 l 1049
EndSplineSet
Fore
SplineSet
23 380 m 1xbe
 80 437 l 1
 113 437 l 1
 113 510 l 1
 290 687 l 1
 307 670 l 1
 307 670 333 625 364 590 c 0
 379 576 395 567 410 567 c 1
 530 687 l 1
 530 687 595 662 655 662 c 1
 680 637 l 1
 697 620 l 1
 722 595 l 1
 697 570 l 1
 697 45 l 1
 705 37 l 1
 755 87 l 1
 772 70 l 1
 665 -37 l 1
 640 -12 l 1
 623 5 l 1
 598 30 l 1
 623 55 l 1
 623 406 l 1
 580 363 l 1
 427 363 l 1
 427 -130 l 1
 370 -187 l 1x7e
 370 -187 314 -237 280 -237 c 0xbe
 242 -237 167 -187 130 -187 c 1x7e
 130 -187 66 -237 40 -237 c 0xbe
 13 -237 -55 -187 -80 -187 c 0x7e
 -112 -187 -142 -210 -158 -225 c 2
 -170 -237 l 1xbe
 -187 -220 l 1
 -187 -220 -185 -217 -182 -214 c 2
 -125 -158 l 2
 -125 -157 l 0
 -111 -143 -76 -113 -40 -113 c 0x7e
 -15 -113 53 -163 80 -163 c 0
 88 -163 100 -158 113 -151 c 1
 113 363 l 1
 40 363 l 1
 23 380 l 1xbe
623 433 m 1
 623 580 l 1
 615 588 l 1
 555 588 490 613 490 613 c 1
 427 550 l 1
 427 437 l 1
 620 437 l 1
 623 433 l 1
187 437 m 1
 353 437 l 1
 353 497 l 1
 341 502 328 512 316 524 c 0
 315 524 l 1
 298 541 l 2
 277 562 258 590 246 609 c 1
 187 550 l 1
 187 437 l 1
187 363 m 1
 187 -116 l 1
 227 -126 287 -163 320 -163 c 0xbe
 330 -163 342 -159 353 -153 c 1
 353 363 l 1
 187 363 l 1
EndSplineSet
LCarets2: 2 360 600 
Ligature2: "Ligatures-1" f f l
EndChar
StartChar: longs_t
Encoding: 64261 64261 333
Width: 629
Flags: W
HStem: -237 74<26.134 89.6482> -187 74<-97.6401 -27.2399> 363 74<320 353 427 520>
VStem: 113 74<-130 510> 353 74<51.4784 363 437 527.072>
LayerCount: 2
Back
SplineSet
-150 -200 m 17
 -150 -200 -106 -150 -60 -150 c 8
 -35 -150 33 -200 60 -200 c 24
 86 -200 150 -150 150 -150 c 1
 150 530 l 1
 270 650 l 1
 270 650 337 550 390 550 c 1
 390 60 l 1
 450 0 l 1
 570 120 l 1025
300 400 m 25
 540 400 l 1049
EndSplineSet
Fore
SplineSet
263 380 m 1xb8
 320 437 l 1
 353 437 l 1
 353 516 l 1
 335 522 315 538 298 555 c 2
 281 572 l 2
 268 585 257 600 248 611 c 1
 187 550 l 1
 187 -130 l 1
 130 -187 l 1x78
 130 -187 66 -237 40 -237 c 0xb8
 13 -237 -55 -187 -80 -187 c 0x78
 -112 -187 -142 -210 -158 -225 c 2
 -170 -237 l 1xb8
 -187 -220 l 1
 -187 -220 -185 -217 -182 -214 c 2
 -125 -158 l 2
 -125 -157 l 0
 -111 -143 -76 -113 -40 -113 c 0x78
 -15 -113 53 -163 80 -163 c 0
 88 -163 100 -158 113 -151 c 1
 113 510 l 1
 290 687 l 1
 307 670 l 1
 307 670 324 645 346 621 c 0
 366 602 389 587 410 587 c 1
 427 570 l 1
 427 437 l 1
 560 437 l 1
 577 420 l 1
 520 363 l 1
 427 363 l 1
 427 80 l 2
 427 57 458 49 470 37 c 1
 590 157 l 1
 607 140 l 1
 430 -37 l 1
 353 40 l 1
 353 363 l 1
 280 363 l 1
 263 380 l 1xb8
EndSplineSet
LCarets2: 1 360 
Ligature2: "Ligatures-1" longs t
EndChar
